G04 EAGLE Gerber RS-274X export*
G75*
%MOMM*%
%FSLAX34Y34*%
%LPD*%
%INBottom Copper*%
%IPPOS*%
%AMOC8*
5,1,8,0,0,1.08239X$1,22.5*%
G01*
%ADD10P,1.539592X8X22.500000*%
%ADD11P,1.704548X8X202.500000*%
%ADD12C,1.574800*%
%ADD13P,1.732040X8X202.500000*%
%ADD14C,1.600200*%
%ADD15P,1.539592X8X112.500000*%
%ADD16P,1.732040X8X112.500000*%
%ADD17C,1.422400*%
%ADD18C,1.422400*%
%ADD19C,1.625600*%
%ADD20C,1.609600*%
%ADD21P,1.539592X8X292.500000*%
%ADD22P,1.539592X8X202.500000*%
%ADD23R,1.359600X1.359600*%
%ADD24P,1.471617X8X202.500000*%
%ADD25C,0.203200*%

G36*
X1299486Y3306D02*
X1299486Y3306D01*
X1299505Y3304D01*
X1299607Y3326D01*
X1299709Y3342D01*
X1299726Y3352D01*
X1299746Y3356D01*
X1299835Y3409D01*
X1299926Y3458D01*
X1299940Y3472D01*
X1299957Y3482D01*
X1300024Y3561D01*
X1300096Y3636D01*
X1300104Y3654D01*
X1300117Y3669D01*
X1300156Y3765D01*
X1300199Y3859D01*
X1300201Y3879D01*
X1300209Y3897D01*
X1300227Y4064D01*
X1300227Y201576D01*
X1300224Y201596D01*
X1300226Y201615D01*
X1300204Y201717D01*
X1300188Y201819D01*
X1300178Y201836D01*
X1300174Y201856D01*
X1300121Y201945D01*
X1300072Y202036D01*
X1300058Y202050D01*
X1300048Y202067D01*
X1299969Y202134D01*
X1299894Y202206D01*
X1299876Y202214D01*
X1299861Y202227D01*
X1299765Y202266D01*
X1299671Y202309D01*
X1299651Y202311D01*
X1299633Y202319D01*
X1299466Y202337D01*
X531522Y202337D01*
X531451Y202326D01*
X531380Y202324D01*
X531331Y202306D01*
X531279Y202298D01*
X531216Y202264D01*
X531149Y202239D01*
X531108Y202207D01*
X531062Y202182D01*
X531013Y202130D01*
X530957Y202086D01*
X530928Y202042D01*
X530893Y202004D01*
X530862Y201939D01*
X530824Y201879D01*
X530811Y201828D01*
X530789Y201781D01*
X530781Y201710D01*
X530764Y201640D01*
X530768Y201588D01*
X530762Y201537D01*
X530777Y201466D01*
X530783Y201395D01*
X530803Y201347D01*
X530814Y201296D01*
X530851Y201235D01*
X530879Y201169D01*
X530924Y201113D01*
X530940Y201085D01*
X530958Y201070D01*
X530984Y201038D01*
X532862Y199160D01*
X558890Y173132D01*
X558984Y173064D01*
X559078Y172994D01*
X559084Y172992D01*
X559089Y172988D01*
X559200Y172954D01*
X559312Y172918D01*
X559318Y172918D01*
X559324Y172916D01*
X559441Y172919D01*
X559558Y172920D01*
X559565Y172922D01*
X559570Y172922D01*
X559588Y172929D01*
X559719Y172967D01*
X561884Y173864D01*
X565876Y173864D01*
X569564Y172336D01*
X572386Y169514D01*
X573914Y165826D01*
X573914Y161834D01*
X572386Y158146D01*
X569564Y155324D01*
X567399Y154427D01*
X567299Y154365D01*
X567199Y154306D01*
X567195Y154301D01*
X567190Y154297D01*
X567115Y154207D01*
X567039Y154119D01*
X567037Y154113D01*
X567033Y154108D01*
X566991Y154000D01*
X566947Y153890D01*
X566946Y153883D01*
X566945Y153878D01*
X566944Y153860D01*
X566929Y153724D01*
X566929Y127039D01*
X566943Y126949D01*
X566951Y126858D01*
X566963Y126828D01*
X566968Y126796D01*
X567011Y126716D01*
X567047Y126632D01*
X567073Y126600D01*
X567084Y126579D01*
X567107Y126557D01*
X567152Y126501D01*
X569215Y124438D01*
X569215Y116862D01*
X563858Y111505D01*
X556282Y111505D01*
X550925Y116862D01*
X550925Y124438D01*
X556282Y129795D01*
X560070Y129795D01*
X560090Y129798D01*
X560109Y129796D01*
X560211Y129818D01*
X560313Y129834D01*
X560330Y129844D01*
X560350Y129848D01*
X560439Y129901D01*
X560530Y129950D01*
X560544Y129964D01*
X560561Y129974D01*
X560628Y130053D01*
X560700Y130128D01*
X560708Y130146D01*
X560721Y130161D01*
X560760Y130257D01*
X560803Y130351D01*
X560805Y130371D01*
X560813Y130389D01*
X560831Y130556D01*
X560831Y153724D01*
X560812Y153839D01*
X560795Y153955D01*
X560793Y153960D01*
X560792Y153967D01*
X560737Y154069D01*
X560684Y154174D01*
X560679Y154178D01*
X560676Y154184D01*
X560592Y154264D01*
X560508Y154346D01*
X560502Y154350D01*
X560498Y154353D01*
X560481Y154361D01*
X560361Y154427D01*
X558196Y155324D01*
X555374Y158146D01*
X553846Y161834D01*
X553846Y165826D01*
X554743Y167991D01*
X554770Y168104D01*
X554798Y168218D01*
X554798Y168224D01*
X554799Y168230D01*
X554788Y168347D01*
X554779Y168463D01*
X554777Y168469D01*
X554776Y168475D01*
X554728Y168583D01*
X554683Y168689D01*
X554678Y168695D01*
X554676Y168700D01*
X554663Y168714D01*
X554578Y168820D01*
X528550Y194848D01*
X528476Y194901D01*
X528407Y194961D01*
X528377Y194973D01*
X528350Y194992D01*
X528263Y195019D01*
X528179Y195053D01*
X528138Y195057D01*
X528115Y195064D01*
X528083Y195063D01*
X528012Y195071D01*
X294078Y195071D01*
X294007Y195060D01*
X293936Y195058D01*
X293887Y195040D01*
X293835Y195032D01*
X293772Y194998D01*
X293705Y194973D01*
X293664Y194941D01*
X293618Y194916D01*
X293569Y194864D01*
X293513Y194820D01*
X293484Y194776D01*
X293449Y194738D01*
X293418Y194673D01*
X293380Y194613D01*
X293367Y194562D01*
X293345Y194515D01*
X293337Y194444D01*
X293320Y194374D01*
X293324Y194322D01*
X293318Y194271D01*
X293333Y194200D01*
X293339Y194129D01*
X293359Y194081D01*
X293370Y194030D01*
X293407Y193969D01*
X293435Y193903D01*
X293480Y193847D01*
X293496Y193819D01*
X293514Y193804D01*
X293540Y193772D01*
X294756Y192556D01*
X324304Y163008D01*
X324398Y162940D01*
X324492Y162870D01*
X324498Y162868D01*
X324503Y162864D01*
X324614Y162830D01*
X324726Y162794D01*
X324732Y162794D01*
X324738Y162792D01*
X324855Y162795D01*
X324972Y162796D01*
X324979Y162798D01*
X324984Y162798D01*
X325002Y162805D01*
X325133Y162843D01*
X327325Y163751D01*
X331335Y163751D01*
X335040Y162216D01*
X337876Y159380D01*
X339411Y155675D01*
X339411Y151665D01*
X337876Y147960D01*
X336505Y146588D01*
X336463Y146530D01*
X336413Y146478D01*
X336391Y146431D01*
X336361Y146389D01*
X336340Y146320D01*
X336310Y146255D01*
X336304Y146203D01*
X336289Y146153D01*
X336291Y146082D01*
X336283Y146011D01*
X336294Y145960D01*
X336295Y145908D01*
X336320Y145840D01*
X336335Y145770D01*
X336362Y145725D01*
X336379Y145677D01*
X336424Y145621D01*
X336461Y145559D01*
X336501Y145525D01*
X336533Y145485D01*
X336593Y145446D01*
X336648Y145399D01*
X336696Y145380D01*
X336740Y145352D01*
X336810Y145334D01*
X336876Y145307D01*
X336947Y145299D01*
X336979Y145291D01*
X337002Y145293D01*
X337043Y145289D01*
X346617Y145289D01*
X346688Y145300D01*
X346760Y145302D01*
X346809Y145320D01*
X346860Y145328D01*
X346923Y145362D01*
X346991Y145387D01*
X347031Y145419D01*
X347077Y145444D01*
X347127Y145496D01*
X347183Y145540D01*
X347211Y145584D01*
X347247Y145622D01*
X347277Y145687D01*
X347316Y145747D01*
X347328Y145798D01*
X347350Y145845D01*
X347358Y145916D01*
X347376Y145986D01*
X347372Y146038D01*
X347377Y146089D01*
X347362Y146160D01*
X347357Y146231D01*
X347336Y146279D01*
X347325Y146330D01*
X347288Y146391D01*
X347260Y146457D01*
X347215Y146513D01*
X347199Y146541D01*
X347181Y146556D01*
X347155Y146588D01*
X345784Y147960D01*
X344249Y151665D01*
X344249Y155675D01*
X345784Y159380D01*
X348620Y162216D01*
X352325Y163751D01*
X356335Y163751D01*
X360040Y162216D01*
X362876Y159380D01*
X364411Y155675D01*
X364411Y151665D01*
X362876Y147960D01*
X361505Y146588D01*
X361463Y146530D01*
X361413Y146478D01*
X361391Y146431D01*
X361361Y146389D01*
X361340Y146320D01*
X361310Y146255D01*
X361304Y146203D01*
X361289Y146153D01*
X361291Y146082D01*
X361283Y146011D01*
X361294Y145960D01*
X361295Y145908D01*
X361320Y145840D01*
X361335Y145770D01*
X361362Y145725D01*
X361379Y145677D01*
X361424Y145621D01*
X361461Y145559D01*
X361501Y145525D01*
X361533Y145485D01*
X361593Y145446D01*
X361648Y145399D01*
X361696Y145380D01*
X361740Y145352D01*
X361810Y145334D01*
X361876Y145307D01*
X361947Y145299D01*
X361979Y145291D01*
X362002Y145293D01*
X362043Y145289D01*
X371617Y145289D01*
X371688Y145300D01*
X371760Y145302D01*
X371809Y145320D01*
X371860Y145328D01*
X371923Y145362D01*
X371991Y145387D01*
X372031Y145419D01*
X372077Y145444D01*
X372127Y145496D01*
X372183Y145540D01*
X372211Y145584D01*
X372247Y145622D01*
X372277Y145687D01*
X372316Y145747D01*
X372328Y145798D01*
X372350Y145845D01*
X372358Y145916D01*
X372376Y145986D01*
X372372Y146038D01*
X372377Y146089D01*
X372362Y146160D01*
X372357Y146231D01*
X372336Y146279D01*
X372325Y146330D01*
X372288Y146391D01*
X372260Y146457D01*
X372215Y146513D01*
X372199Y146541D01*
X372181Y146556D01*
X372155Y146588D01*
X370784Y147960D01*
X369249Y151665D01*
X369249Y155675D01*
X370784Y159380D01*
X373620Y162216D01*
X377325Y163751D01*
X381335Y163751D01*
X385040Y162216D01*
X387876Y159380D01*
X389411Y155675D01*
X389411Y151665D01*
X387876Y147960D01*
X386505Y146588D01*
X386463Y146530D01*
X386413Y146478D01*
X386391Y146431D01*
X386361Y146389D01*
X386340Y146320D01*
X386310Y146255D01*
X386304Y146203D01*
X386289Y146153D01*
X386291Y146082D01*
X386283Y146011D01*
X386294Y145960D01*
X386295Y145908D01*
X386320Y145840D01*
X386335Y145770D01*
X386362Y145725D01*
X386379Y145677D01*
X386424Y145621D01*
X386461Y145559D01*
X386501Y145525D01*
X386533Y145485D01*
X386593Y145446D01*
X386648Y145399D01*
X386696Y145380D01*
X386740Y145352D01*
X386810Y145334D01*
X386876Y145307D01*
X386947Y145299D01*
X386979Y145291D01*
X387002Y145293D01*
X387043Y145289D01*
X448564Y145289D01*
X448584Y145292D01*
X448603Y145290D01*
X448705Y145312D01*
X448807Y145328D01*
X448824Y145338D01*
X448844Y145342D01*
X448933Y145395D01*
X449024Y145444D01*
X449038Y145458D01*
X449055Y145468D01*
X449122Y145547D01*
X449194Y145622D01*
X449202Y145640D01*
X449215Y145655D01*
X449254Y145751D01*
X449297Y145845D01*
X449299Y145865D01*
X449307Y145883D01*
X449325Y146050D01*
X449325Y151108D01*
X454682Y156465D01*
X462258Y156465D01*
X467615Y151108D01*
X467615Y143532D01*
X462258Y138175D01*
X454682Y138175D01*
X453889Y138968D01*
X453815Y139021D01*
X453746Y139081D01*
X453716Y139093D01*
X453689Y139112D01*
X453602Y139139D01*
X453518Y139173D01*
X453477Y139177D01*
X453454Y139184D01*
X453422Y139183D01*
X453351Y139191D01*
X251768Y139191D01*
X251678Y139177D01*
X251587Y139169D01*
X251557Y139157D01*
X251525Y139152D01*
X251445Y139109D01*
X251361Y139073D01*
X251329Y139047D01*
X251308Y139036D01*
X251286Y139013D01*
X251230Y138968D01*
X236490Y124229D01*
X236479Y124213D01*
X236463Y124200D01*
X236407Y124113D01*
X236347Y124029D01*
X236341Y124010D01*
X236330Y123993D01*
X236305Y123893D01*
X236274Y123794D01*
X236275Y123774D01*
X236270Y123755D01*
X236278Y123652D01*
X236281Y123548D01*
X236288Y123529D01*
X236289Y123510D01*
X236330Y123415D01*
X236365Y123317D01*
X236378Y123301D01*
X236386Y123283D01*
X236490Y123152D01*
X239015Y120628D01*
X239015Y113052D01*
X233658Y107695D01*
X226082Y107695D01*
X220725Y113052D01*
X220725Y120628D01*
X226082Y125985D01*
X229308Y125985D01*
X229398Y125999D01*
X229489Y126007D01*
X229519Y126019D01*
X229551Y126024D01*
X229631Y126067D01*
X229715Y126103D01*
X229747Y126129D01*
X229768Y126140D01*
X229790Y126163D01*
X229846Y126208D01*
X248927Y145289D01*
X321617Y145289D01*
X321688Y145300D01*
X321760Y145302D01*
X321809Y145320D01*
X321860Y145328D01*
X321923Y145362D01*
X321991Y145387D01*
X322031Y145419D01*
X322077Y145444D01*
X322127Y145496D01*
X322183Y145540D01*
X322211Y145584D01*
X322247Y145622D01*
X322277Y145687D01*
X322316Y145747D01*
X322328Y145798D01*
X322350Y145845D01*
X322358Y145916D01*
X322376Y145986D01*
X322372Y146038D01*
X322377Y146089D01*
X322362Y146160D01*
X322357Y146231D01*
X322336Y146279D01*
X322325Y146330D01*
X322288Y146391D01*
X322260Y146457D01*
X322215Y146513D01*
X322199Y146541D01*
X322181Y146556D01*
X322155Y146588D01*
X320784Y147960D01*
X319249Y151665D01*
X319249Y155675D01*
X320157Y157867D01*
X320184Y157980D01*
X320212Y158094D01*
X320212Y158100D01*
X320213Y158106D01*
X320202Y158223D01*
X320193Y158339D01*
X320191Y158345D01*
X320190Y158351D01*
X320142Y158459D01*
X320097Y158565D01*
X320092Y158571D01*
X320090Y158576D01*
X320077Y158590D01*
X319992Y158696D01*
X290444Y188244D01*
X290370Y188297D01*
X290301Y188357D01*
X290271Y188369D01*
X290244Y188388D01*
X290157Y188415D01*
X290073Y188449D01*
X290032Y188453D01*
X290009Y188460D01*
X289977Y188459D01*
X289906Y188467D01*
X214132Y188467D01*
X214036Y188452D01*
X213939Y188442D01*
X213915Y188432D01*
X213889Y188428D01*
X213803Y188382D01*
X213714Y188342D01*
X213695Y188325D01*
X213672Y188312D01*
X213605Y188242D01*
X213533Y188176D01*
X213520Y188153D01*
X213502Y188134D01*
X213461Y188046D01*
X213414Y187960D01*
X213410Y187935D01*
X213399Y187911D01*
X213388Y187814D01*
X213370Y187718D01*
X213374Y187692D01*
X213371Y187667D01*
X213392Y187571D01*
X213406Y187475D01*
X213418Y187452D01*
X213424Y187426D01*
X213474Y187343D01*
X213518Y187256D01*
X213536Y187237D01*
X213550Y187215D01*
X213624Y187152D01*
X213693Y187084D01*
X213722Y187068D01*
X213737Y187055D01*
X213767Y187043D01*
X213840Y187003D01*
X214036Y186922D01*
X216894Y184064D01*
X218441Y180329D01*
X218441Y160031D01*
X216894Y156296D01*
X214036Y153438D01*
X210301Y151891D01*
X206259Y151891D01*
X202524Y153438D01*
X199666Y156296D01*
X198119Y160031D01*
X198119Y180329D01*
X199666Y184064D01*
X202524Y186922D01*
X202720Y187003D01*
X202802Y187054D01*
X202888Y187100D01*
X202906Y187119D01*
X202929Y187132D01*
X202991Y187207D01*
X203058Y187278D01*
X203069Y187302D01*
X203086Y187322D01*
X203120Y187413D01*
X203161Y187501D01*
X203164Y187527D01*
X203174Y187551D01*
X203178Y187649D01*
X203189Y187745D01*
X203183Y187771D01*
X203184Y187797D01*
X203157Y187891D01*
X203136Y187986D01*
X203123Y188008D01*
X203116Y188033D01*
X203060Y188113D01*
X203010Y188197D01*
X202990Y188214D01*
X202975Y188235D01*
X202897Y188294D01*
X202823Y188357D01*
X202799Y188367D01*
X202778Y188382D01*
X202686Y188412D01*
X202595Y188449D01*
X202563Y188452D01*
X202544Y188458D01*
X202511Y188458D01*
X202428Y188467D01*
X188732Y188467D01*
X188636Y188452D01*
X188539Y188442D01*
X188515Y188432D01*
X188489Y188428D01*
X188403Y188382D01*
X188314Y188342D01*
X188295Y188325D01*
X188272Y188312D01*
X188205Y188242D01*
X188133Y188176D01*
X188120Y188153D01*
X188102Y188134D01*
X188061Y188046D01*
X188014Y187960D01*
X188010Y187935D01*
X187999Y187911D01*
X187988Y187814D01*
X187970Y187718D01*
X187974Y187692D01*
X187971Y187667D01*
X187992Y187571D01*
X188006Y187475D01*
X188018Y187452D01*
X188024Y187426D01*
X188074Y187343D01*
X188118Y187256D01*
X188136Y187237D01*
X188150Y187215D01*
X188224Y187152D01*
X188293Y187084D01*
X188322Y187068D01*
X188337Y187055D01*
X188367Y187043D01*
X188440Y187003D01*
X188636Y186922D01*
X191494Y184064D01*
X193041Y180329D01*
X193041Y160031D01*
X191494Y156296D01*
X188636Y153438D01*
X186399Y152512D01*
X186299Y152450D01*
X186199Y152390D01*
X186195Y152385D01*
X186190Y152382D01*
X186115Y152291D01*
X186039Y152203D01*
X186037Y152197D01*
X186033Y152193D01*
X185991Y152084D01*
X185947Y151975D01*
X185946Y151967D01*
X185945Y151963D01*
X185944Y151945D01*
X185929Y151808D01*
X185929Y34843D01*
X185943Y34753D01*
X185951Y34662D01*
X185963Y34632D01*
X185968Y34600D01*
X186011Y34519D01*
X186047Y34435D01*
X186073Y34403D01*
X186084Y34383D01*
X186107Y34360D01*
X186152Y34304D01*
X187161Y33295D01*
X187171Y33234D01*
X187180Y33217D01*
X187184Y33197D01*
X187238Y33108D01*
X187286Y33017D01*
X187300Y33003D01*
X187311Y32986D01*
X187389Y32919D01*
X187464Y32848D01*
X187482Y32839D01*
X187498Y32826D01*
X187594Y32788D01*
X187687Y32744D01*
X187707Y32742D01*
X187726Y32734D01*
X187892Y32716D01*
X221708Y32716D01*
X221728Y32719D01*
X221747Y32717D01*
X221849Y32739D01*
X221951Y32756D01*
X221968Y32765D01*
X221988Y32769D01*
X222077Y32822D01*
X222168Y32871D01*
X222182Y32885D01*
X222199Y32895D01*
X222266Y32974D01*
X222338Y33049D01*
X222346Y33067D01*
X222359Y33082D01*
X222398Y33179D01*
X222441Y33272D01*
X222443Y33292D01*
X222451Y33310D01*
X222469Y33477D01*
X222469Y36850D01*
X223660Y38041D01*
X238940Y38041D01*
X240131Y36850D01*
X240131Y21570D01*
X238940Y20379D01*
X223660Y20379D01*
X222469Y21570D01*
X222469Y25857D01*
X222466Y25877D01*
X222468Y25897D01*
X222446Y25998D01*
X222430Y26100D01*
X222420Y26118D01*
X222416Y26137D01*
X222363Y26226D01*
X222314Y26317D01*
X222300Y26331D01*
X222290Y26348D01*
X222211Y26416D01*
X222136Y26487D01*
X222118Y26495D01*
X222103Y26508D01*
X222007Y26547D01*
X221913Y26590D01*
X221893Y26593D01*
X221875Y26600D01*
X221708Y26618D01*
X187892Y26618D01*
X187873Y26615D01*
X187853Y26617D01*
X187752Y26595D01*
X187650Y26579D01*
X187632Y26569D01*
X187613Y26565D01*
X187524Y26512D01*
X187432Y26464D01*
X187419Y26449D01*
X187401Y26439D01*
X187334Y26360D01*
X187263Y26285D01*
X187255Y26267D01*
X187242Y26252D01*
X187203Y26156D01*
X187159Y26062D01*
X187157Y26042D01*
X187152Y26031D01*
X181958Y20836D01*
X174643Y20836D01*
X169470Y26009D01*
X169470Y33325D01*
X174643Y38498D01*
X179070Y38498D01*
X179090Y38501D01*
X179109Y38499D01*
X179211Y38521D01*
X179313Y38538D01*
X179330Y38547D01*
X179350Y38551D01*
X179439Y38604D01*
X179530Y38653D01*
X179544Y38667D01*
X179561Y38677D01*
X179628Y38756D01*
X179700Y38831D01*
X179708Y38849D01*
X179721Y38864D01*
X179760Y38961D01*
X179803Y39054D01*
X179805Y39074D01*
X179813Y39092D01*
X179831Y39259D01*
X179831Y151808D01*
X179812Y151923D01*
X179795Y152039D01*
X179793Y152045D01*
X179792Y152051D01*
X179737Y152154D01*
X179684Y152258D01*
X179679Y152263D01*
X179676Y152268D01*
X179592Y152348D01*
X179508Y152431D01*
X179502Y152434D01*
X179498Y152438D01*
X179481Y152446D01*
X179361Y152512D01*
X177124Y153438D01*
X174266Y156296D01*
X172719Y160031D01*
X172719Y180329D01*
X174266Y184064D01*
X177124Y186922D01*
X177320Y187003D01*
X177402Y187054D01*
X177488Y187100D01*
X177506Y187119D01*
X177529Y187132D01*
X177591Y187207D01*
X177658Y187278D01*
X177669Y187302D01*
X177686Y187322D01*
X177720Y187413D01*
X177761Y187501D01*
X177764Y187527D01*
X177774Y187551D01*
X177778Y187649D01*
X177789Y187745D01*
X177783Y187771D01*
X177784Y187797D01*
X177757Y187891D01*
X177736Y187986D01*
X177723Y188008D01*
X177716Y188033D01*
X177660Y188113D01*
X177610Y188197D01*
X177590Y188214D01*
X177575Y188235D01*
X177497Y188294D01*
X177423Y188357D01*
X177399Y188367D01*
X177378Y188382D01*
X177286Y188412D01*
X177195Y188449D01*
X177163Y188452D01*
X177144Y188458D01*
X177111Y188458D01*
X177028Y188467D01*
X166678Y188467D01*
X166588Y188453D01*
X166497Y188445D01*
X166467Y188433D01*
X166435Y188428D01*
X166355Y188385D01*
X166271Y188349D01*
X166239Y188323D01*
X166218Y188312D01*
X166196Y188289D01*
X166140Y188244D01*
X115540Y137644D01*
X115487Y137570D01*
X115427Y137501D01*
X115415Y137471D01*
X115396Y137444D01*
X115369Y137357D01*
X115335Y137273D01*
X115331Y137232D01*
X115324Y137209D01*
X115325Y137177D01*
X115317Y137106D01*
X115317Y87630D01*
X115320Y87610D01*
X115318Y87591D01*
X115340Y87489D01*
X115356Y87387D01*
X115366Y87370D01*
X115370Y87350D01*
X115423Y87261D01*
X115472Y87170D01*
X115486Y87156D01*
X115496Y87139D01*
X115575Y87072D01*
X115650Y87000D01*
X115668Y86992D01*
X115683Y86979D01*
X115779Y86940D01*
X115873Y86897D01*
X115893Y86895D01*
X115911Y86887D01*
X116078Y86869D01*
X118364Y86869D01*
X118384Y86872D01*
X118403Y86870D01*
X118505Y86892D01*
X118607Y86908D01*
X118624Y86918D01*
X118644Y86922D01*
X118733Y86975D01*
X118824Y87024D01*
X118838Y87038D01*
X118855Y87048D01*
X118922Y87127D01*
X118994Y87202D01*
X119002Y87220D01*
X119015Y87235D01*
X119054Y87331D01*
X119097Y87425D01*
X119099Y87445D01*
X119107Y87463D01*
X119123Y87605D01*
X124482Y92965D01*
X132058Y92965D01*
X137415Y87608D01*
X137415Y80032D01*
X132058Y74675D01*
X124482Y74675D01*
X119123Y80035D01*
X119124Y80049D01*
X119102Y80151D01*
X119086Y80253D01*
X119076Y80270D01*
X119072Y80290D01*
X119019Y80379D01*
X118970Y80470D01*
X118956Y80484D01*
X118946Y80501D01*
X118867Y80568D01*
X118792Y80640D01*
X118774Y80648D01*
X118759Y80661D01*
X118663Y80700D01*
X118569Y80743D01*
X118549Y80745D01*
X118531Y80753D01*
X118364Y80771D01*
X116078Y80771D01*
X116058Y80768D01*
X116039Y80770D01*
X115937Y80748D01*
X115835Y80732D01*
X115818Y80722D01*
X115798Y80718D01*
X115709Y80665D01*
X115618Y80616D01*
X115604Y80602D01*
X115587Y80592D01*
X115520Y80513D01*
X115448Y80438D01*
X115440Y80420D01*
X115427Y80405D01*
X115388Y80309D01*
X115345Y80215D01*
X115343Y80195D01*
X115335Y80177D01*
X115317Y80010D01*
X115317Y69044D01*
X113308Y67035D01*
X91045Y44773D01*
X90988Y44694D01*
X90926Y44618D01*
X90917Y44594D01*
X90901Y44573D01*
X90873Y44480D01*
X90838Y44389D01*
X90837Y44363D01*
X90829Y44338D01*
X90832Y44240D01*
X90827Y44143D01*
X90835Y44118D01*
X90835Y44092D01*
X90869Y44000D01*
X90896Y43907D01*
X90911Y43885D01*
X90920Y43861D01*
X90981Y43785D01*
X91036Y43705D01*
X91057Y43689D01*
X91074Y43669D01*
X91155Y43616D01*
X91234Y43558D01*
X91258Y43550D01*
X91280Y43536D01*
X91375Y43512D01*
X91467Y43482D01*
X91494Y43482D01*
X91519Y43476D01*
X91616Y43483D01*
X91713Y43484D01*
X91745Y43493D01*
X91764Y43495D01*
X91794Y43508D01*
X91875Y43531D01*
X93482Y44197D01*
X97120Y44197D01*
X100481Y42805D01*
X103053Y40232D01*
X104446Y36871D01*
X104446Y23422D01*
X104460Y23332D01*
X104467Y23241D01*
X104480Y23211D01*
X104485Y23179D01*
X104528Y23099D01*
X104564Y23015D01*
X104589Y22983D01*
X104600Y22962D01*
X104624Y22940D01*
X104669Y22884D01*
X110311Y17242D01*
X110385Y17189D01*
X110454Y17129D01*
X110484Y17117D01*
X110510Y17098D01*
X110597Y17071D01*
X110682Y17037D01*
X110723Y17033D01*
X110746Y17026D01*
X110778Y17027D01*
X110849Y17019D01*
X247490Y17019D01*
X247510Y17022D01*
X247529Y17020D01*
X247631Y17042D01*
X247733Y17058D01*
X247750Y17068D01*
X247770Y17072D01*
X247859Y17125D01*
X247950Y17174D01*
X247964Y17188D01*
X247981Y17198D01*
X248048Y17277D01*
X248120Y17352D01*
X248128Y17370D01*
X248141Y17385D01*
X248180Y17481D01*
X248223Y17575D01*
X248225Y17595D01*
X248233Y17613D01*
X248251Y17780D01*
X248251Y19618D01*
X248248Y19638D01*
X248250Y19657D01*
X248228Y19759D01*
X248212Y19861D01*
X248202Y19878D01*
X248198Y19898D01*
X248145Y19987D01*
X248096Y20078D01*
X248082Y20092D01*
X248072Y20109D01*
X247993Y20176D01*
X247918Y20248D01*
X247900Y20256D01*
X247885Y20269D01*
X247789Y20308D01*
X247695Y20351D01*
X247675Y20353D01*
X247663Y20358D01*
X242469Y25552D01*
X242469Y32868D01*
X247672Y38071D01*
X247733Y38080D01*
X247750Y38090D01*
X247770Y38094D01*
X247859Y38147D01*
X247950Y38196D01*
X247964Y38210D01*
X247981Y38220D01*
X248048Y38299D01*
X248120Y38374D01*
X248128Y38392D01*
X248141Y38407D01*
X248180Y38503D01*
X248223Y38597D01*
X248225Y38617D01*
X248233Y38635D01*
X248251Y38802D01*
X248251Y80010D01*
X248248Y80030D01*
X248250Y80049D01*
X248228Y80151D01*
X248212Y80253D01*
X248202Y80270D01*
X248198Y80290D01*
X248145Y80379D01*
X248096Y80470D01*
X248082Y80484D01*
X248072Y80501D01*
X247993Y80568D01*
X247918Y80640D01*
X247900Y80648D01*
X247885Y80661D01*
X247789Y80700D01*
X247695Y80743D01*
X247675Y80745D01*
X247657Y80753D01*
X247490Y80771D01*
X239776Y80771D01*
X239756Y80768D01*
X239737Y80770D01*
X239635Y80748D01*
X239533Y80732D01*
X239516Y80722D01*
X239496Y80718D01*
X239407Y80665D01*
X239316Y80616D01*
X239302Y80602D01*
X239285Y80592D01*
X239218Y80513D01*
X239146Y80438D01*
X239138Y80420D01*
X239125Y80405D01*
X239086Y80309D01*
X239043Y80215D01*
X239041Y80195D01*
X239033Y80177D01*
X239017Y80035D01*
X233658Y74675D01*
X226082Y74675D01*
X220725Y80032D01*
X220725Y87608D01*
X226082Y92965D01*
X233658Y92965D01*
X239017Y87605D01*
X239016Y87591D01*
X239038Y87489D01*
X239054Y87387D01*
X239064Y87370D01*
X239068Y87350D01*
X239121Y87261D01*
X239170Y87170D01*
X239184Y87156D01*
X239194Y87139D01*
X239273Y87072D01*
X239348Y87000D01*
X239366Y86992D01*
X239381Y86979D01*
X239477Y86940D01*
X239571Y86897D01*
X239591Y86895D01*
X239609Y86887D01*
X239776Y86869D01*
X251714Y86869D01*
X251734Y86872D01*
X251753Y86870D01*
X251855Y86892D01*
X251957Y86908D01*
X251974Y86918D01*
X251994Y86922D01*
X252083Y86975D01*
X252174Y87024D01*
X252188Y87038D01*
X252205Y87048D01*
X252272Y87127D01*
X252344Y87202D01*
X252352Y87220D01*
X252365Y87235D01*
X252404Y87331D01*
X252447Y87425D01*
X252449Y87445D01*
X252457Y87463D01*
X252473Y87605D01*
X257832Y92965D01*
X265408Y92965D01*
X270765Y87608D01*
X270765Y80032D01*
X265408Y74675D01*
X257832Y74675D01*
X255648Y76859D01*
X255590Y76901D01*
X255538Y76950D01*
X255491Y76972D01*
X255449Y77003D01*
X255380Y77024D01*
X255315Y77054D01*
X255263Y77060D01*
X255213Y77075D01*
X255142Y77073D01*
X255071Y77081D01*
X255020Y77070D01*
X254968Y77069D01*
X254900Y77044D01*
X254830Y77029D01*
X254785Y77002D01*
X254737Y76984D01*
X254681Y76939D01*
X254619Y76903D01*
X254585Y76863D01*
X254545Y76831D01*
X254506Y76770D01*
X254459Y76716D01*
X254440Y76667D01*
X254412Y76624D01*
X254394Y76554D01*
X254367Y76488D01*
X254359Y76416D01*
X254351Y76385D01*
X254353Y76362D01*
X254349Y76321D01*
X254349Y38802D01*
X254352Y38782D01*
X254350Y38763D01*
X254372Y38661D01*
X254388Y38559D01*
X254398Y38542D01*
X254402Y38522D01*
X254455Y38433D01*
X254504Y38342D01*
X254518Y38328D01*
X254528Y38311D01*
X254607Y38244D01*
X254682Y38172D01*
X254700Y38164D01*
X254715Y38151D01*
X254811Y38112D01*
X254905Y38069D01*
X254925Y38067D01*
X254937Y38062D01*
X260131Y32868D01*
X260131Y25552D01*
X254928Y20349D01*
X254867Y20340D01*
X254850Y20330D01*
X254830Y20326D01*
X254741Y20273D01*
X254650Y20224D01*
X254636Y20210D01*
X254619Y20200D01*
X254552Y20121D01*
X254480Y20046D01*
X254472Y20028D01*
X254459Y20013D01*
X254420Y19917D01*
X254377Y19823D01*
X254375Y19803D01*
X254367Y19785D01*
X254349Y19618D01*
X254349Y17780D01*
X254352Y17760D01*
X254350Y17741D01*
X254372Y17639D01*
X254388Y17537D01*
X254398Y17520D01*
X254402Y17500D01*
X254455Y17411D01*
X254504Y17320D01*
X254518Y17306D01*
X254528Y17289D01*
X254607Y17222D01*
X254682Y17150D01*
X254700Y17142D01*
X254715Y17129D01*
X254811Y17090D01*
X254905Y17047D01*
X254925Y17045D01*
X254943Y17037D01*
X255110Y17019D01*
X491998Y17019D01*
X492018Y17022D01*
X492037Y17020D01*
X492139Y17042D01*
X492241Y17058D01*
X492258Y17068D01*
X492278Y17072D01*
X492367Y17125D01*
X492458Y17174D01*
X492472Y17188D01*
X492489Y17198D01*
X492556Y17277D01*
X492628Y17352D01*
X492636Y17370D01*
X492649Y17385D01*
X492688Y17481D01*
X492731Y17575D01*
X492733Y17595D01*
X492741Y17613D01*
X492759Y17780D01*
X492759Y31496D01*
X492758Y31505D01*
X492758Y31508D01*
X492754Y31527D01*
X492740Y31611D01*
X492723Y31727D01*
X492721Y31733D01*
X492720Y31739D01*
X492665Y31841D01*
X492612Y31946D01*
X492607Y31951D01*
X492604Y31956D01*
X492520Y32036D01*
X492436Y32118D01*
X492430Y32122D01*
X492426Y32126D01*
X492409Y32133D01*
X492289Y32199D01*
X490628Y32887D01*
X488055Y35460D01*
X486663Y38821D01*
X486663Y42459D01*
X488055Y45820D01*
X490628Y48393D01*
X493989Y49785D01*
X497627Y49785D01*
X500988Y48393D01*
X503561Y45820D01*
X504953Y42459D01*
X504953Y38821D01*
X503561Y35460D01*
X500988Y32887D01*
X499327Y32199D01*
X499227Y32137D01*
X499127Y32078D01*
X499123Y32073D01*
X499118Y32070D01*
X499042Y31979D01*
X498967Y31891D01*
X498965Y31885D01*
X498961Y31880D01*
X498919Y31772D01*
X498875Y31663D01*
X498874Y31655D01*
X498873Y31651D01*
X498872Y31632D01*
X498857Y31496D01*
X498857Y12707D01*
X498524Y12375D01*
X498482Y12316D01*
X498433Y12264D01*
X498411Y12217D01*
X498381Y12175D01*
X498360Y12106D01*
X498329Y12041D01*
X498324Y11990D01*
X498308Y11940D01*
X498310Y11868D01*
X498302Y11797D01*
X498313Y11746D01*
X498315Y11694D01*
X498339Y11627D01*
X498355Y11557D01*
X498381Y11512D01*
X498399Y11463D01*
X498444Y11407D01*
X498481Y11345D01*
X498520Y11312D01*
X498553Y11271D01*
X498613Y11232D01*
X498668Y11186D01*
X498716Y11166D01*
X498760Y11138D01*
X498829Y11120D01*
X498896Y11094D01*
X498967Y11086D01*
X498998Y11078D01*
X499022Y11080D01*
X499062Y11075D01*
X553275Y11075D01*
X553345Y11087D01*
X553417Y11089D01*
X553466Y11106D01*
X553517Y11115D01*
X553581Y11148D01*
X553648Y11173D01*
X553689Y11206D01*
X553735Y11230D01*
X553784Y11282D01*
X553840Y11327D01*
X553868Y11371D01*
X553904Y11408D01*
X553934Y11473D01*
X553973Y11534D01*
X553986Y11584D01*
X554008Y11631D01*
X554016Y11703D01*
X554033Y11772D01*
X554029Y11824D01*
X554035Y11876D01*
X554020Y11946D01*
X554014Y12017D01*
X553994Y12065D01*
X553982Y12116D01*
X553946Y12178D01*
X553918Y12244D01*
X553873Y12300D01*
X553856Y12327D01*
X553839Y12343D01*
X553813Y12375D01*
X550925Y15262D01*
X550925Y22838D01*
X556282Y28195D01*
X563858Y28195D01*
X569215Y22838D01*
X569215Y15262D01*
X566327Y12375D01*
X566285Y12316D01*
X566236Y12264D01*
X566214Y12217D01*
X566184Y12175D01*
X566163Y12106D01*
X566132Y12041D01*
X566127Y11990D01*
X566111Y11940D01*
X566113Y11868D01*
X566105Y11797D01*
X566116Y11746D01*
X566118Y11694D01*
X566142Y11627D01*
X566158Y11557D01*
X566184Y11512D01*
X566202Y11463D01*
X566247Y11407D01*
X566284Y11345D01*
X566323Y11312D01*
X566356Y11271D01*
X566416Y11232D01*
X566471Y11186D01*
X566519Y11166D01*
X566563Y11138D01*
X566632Y11120D01*
X566699Y11094D01*
X566770Y11086D01*
X566801Y11078D01*
X566825Y11080D01*
X566865Y11075D01*
X621030Y11075D01*
X621050Y11078D01*
X621069Y11076D01*
X621171Y11098D01*
X621273Y11115D01*
X621290Y11124D01*
X621310Y11128D01*
X621399Y11182D01*
X621490Y11230D01*
X621504Y11244D01*
X621521Y11255D01*
X621588Y11333D01*
X621660Y11408D01*
X621668Y11426D01*
X621681Y11441D01*
X621720Y11538D01*
X621763Y11631D01*
X621765Y11651D01*
X621773Y11670D01*
X621791Y11836D01*
X621791Y78740D01*
X621788Y78760D01*
X621790Y78779D01*
X621768Y78881D01*
X621752Y78983D01*
X621742Y79000D01*
X621738Y79020D01*
X621685Y79109D01*
X621636Y79200D01*
X621622Y79214D01*
X621612Y79231D01*
X621533Y79298D01*
X621458Y79370D01*
X621440Y79378D01*
X621425Y79391D01*
X621329Y79430D01*
X621235Y79473D01*
X621215Y79475D01*
X621197Y79483D01*
X621030Y79501D01*
X372149Y79501D01*
X372059Y79487D01*
X371968Y79479D01*
X371938Y79467D01*
X371906Y79462D01*
X371826Y79419D01*
X371742Y79383D01*
X371710Y79357D01*
X371689Y79346D01*
X371667Y79323D01*
X371611Y79278D01*
X367008Y74675D01*
X359432Y74675D01*
X354075Y80032D01*
X354075Y87608D01*
X359432Y92965D01*
X367008Y92965D01*
X372365Y87608D01*
X372365Y86360D01*
X372368Y86340D01*
X372366Y86321D01*
X372388Y86219D01*
X372404Y86117D01*
X372414Y86100D01*
X372418Y86080D01*
X372471Y85991D01*
X372520Y85900D01*
X372534Y85886D01*
X372544Y85869D01*
X372623Y85802D01*
X372698Y85730D01*
X372716Y85722D01*
X372731Y85709D01*
X372827Y85670D01*
X372921Y85627D01*
X372941Y85625D01*
X372959Y85617D01*
X373126Y85599D01*
X590511Y85599D01*
X590582Y85610D01*
X590653Y85612D01*
X590702Y85630D01*
X590754Y85638D01*
X590817Y85672D01*
X590884Y85697D01*
X590925Y85729D01*
X590971Y85754D01*
X591020Y85806D01*
X591076Y85850D01*
X591105Y85894D01*
X591140Y85932D01*
X591171Y85997D01*
X591209Y86057D01*
X591222Y86108D01*
X591244Y86155D01*
X591252Y86226D01*
X591269Y86296D01*
X591265Y86348D01*
X591271Y86399D01*
X591256Y86470D01*
X591250Y86541D01*
X591230Y86589D01*
X591219Y86640D01*
X591182Y86701D01*
X591154Y86767D01*
X591109Y86823D01*
X591093Y86851D01*
X591075Y86866D01*
X591049Y86898D01*
X587755Y90192D01*
X587755Y97768D01*
X593112Y103125D01*
X600688Y103125D01*
X606045Y97768D01*
X606045Y90192D01*
X602751Y86898D01*
X602709Y86840D01*
X602660Y86788D01*
X602638Y86741D01*
X602607Y86699D01*
X602586Y86630D01*
X602556Y86565D01*
X602550Y86513D01*
X602535Y86463D01*
X602537Y86392D01*
X602529Y86321D01*
X602540Y86270D01*
X602541Y86218D01*
X602566Y86150D01*
X602581Y86080D01*
X602608Y86035D01*
X602626Y85987D01*
X602671Y85931D01*
X602707Y85869D01*
X602747Y85835D01*
X602779Y85795D01*
X602840Y85756D01*
X602894Y85709D01*
X602943Y85690D01*
X602986Y85662D01*
X603056Y85644D01*
X603122Y85617D01*
X603194Y85609D01*
X603225Y85601D01*
X603248Y85603D01*
X603289Y85599D01*
X635000Y85599D01*
X635020Y85602D01*
X635039Y85600D01*
X635141Y85622D01*
X635243Y85638D01*
X635260Y85648D01*
X635280Y85652D01*
X635369Y85705D01*
X635460Y85754D01*
X635474Y85768D01*
X635491Y85778D01*
X635558Y85857D01*
X635630Y85932D01*
X635638Y85950D01*
X635651Y85965D01*
X635690Y86061D01*
X635733Y86155D01*
X635735Y86175D01*
X635743Y86193D01*
X635761Y86360D01*
X635761Y90424D01*
X635743Y90537D01*
X635725Y90655D01*
X635723Y90661D01*
X635722Y90667D01*
X635667Y90769D01*
X635614Y90874D01*
X635609Y90879D01*
X635606Y90884D01*
X635522Y90964D01*
X635438Y91046D01*
X635432Y91050D01*
X635428Y91053D01*
X635411Y91061D01*
X635291Y91127D01*
X633630Y91815D01*
X631057Y94388D01*
X629665Y97749D01*
X629665Y115611D01*
X631057Y118972D01*
X633630Y121545D01*
X636991Y122937D01*
X640629Y122937D01*
X643990Y121545D01*
X646563Y118972D01*
X647955Y115611D01*
X647955Y97749D01*
X646563Y94388D01*
X643990Y91815D01*
X642329Y91127D01*
X642229Y91066D01*
X642129Y91006D01*
X642125Y91001D01*
X642120Y90998D01*
X642045Y90908D01*
X641969Y90819D01*
X641967Y90813D01*
X641963Y90808D01*
X641921Y90700D01*
X641877Y90591D01*
X641876Y90583D01*
X641875Y90579D01*
X641874Y90560D01*
X641859Y90424D01*
X641859Y81287D01*
X640073Y79501D01*
X628650Y79501D01*
X628630Y79498D01*
X628611Y79500D01*
X628509Y79478D01*
X628407Y79462D01*
X628390Y79452D01*
X628370Y79448D01*
X628281Y79395D01*
X628190Y79346D01*
X628176Y79332D01*
X628159Y79322D01*
X628092Y79243D01*
X628020Y79168D01*
X628012Y79150D01*
X627999Y79135D01*
X627960Y79039D01*
X627917Y78945D01*
X627915Y78925D01*
X627907Y78907D01*
X627889Y78740D01*
X627889Y6764D01*
X626103Y4978D01*
X36431Y4978D01*
X28701Y12707D01*
X28701Y16282D01*
X28686Y16378D01*
X28676Y16475D01*
X28666Y16499D01*
X28662Y16525D01*
X28616Y16611D01*
X28576Y16700D01*
X28559Y16719D01*
X28546Y16742D01*
X28476Y16809D01*
X28410Y16881D01*
X28387Y16894D01*
X28368Y16912D01*
X28280Y16953D01*
X28194Y17000D01*
X28169Y17004D01*
X28145Y17015D01*
X28048Y17026D01*
X27952Y17043D01*
X27926Y17040D01*
X27901Y17042D01*
X27806Y17022D01*
X27709Y17008D01*
X27686Y16996D01*
X27660Y16990D01*
X27576Y16940D01*
X27490Y16896D01*
X27472Y16877D01*
X27449Y16864D01*
X27386Y16790D01*
X27318Y16720D01*
X27302Y16692D01*
X27289Y16677D01*
X27277Y16646D01*
X27237Y16574D01*
X26853Y15648D01*
X24281Y13075D01*
X20920Y11683D01*
X17282Y11683D01*
X13921Y13075D01*
X11348Y15648D01*
X9956Y19009D01*
X9956Y36871D01*
X11348Y40232D01*
X13921Y42805D01*
X17282Y44197D01*
X20920Y44197D01*
X24281Y42805D01*
X26853Y40232D01*
X27237Y39306D01*
X27288Y39224D01*
X27334Y39138D01*
X27353Y39120D01*
X27366Y39097D01*
X27441Y39035D01*
X27512Y38968D01*
X27536Y38957D01*
X27556Y38941D01*
X27647Y38906D01*
X27735Y38865D01*
X27761Y38862D01*
X27785Y38852D01*
X27883Y38848D01*
X27979Y38838D01*
X28005Y38843D01*
X28031Y38842D01*
X28125Y38869D01*
X28220Y38890D01*
X28242Y38903D01*
X28267Y38911D01*
X28347Y38966D01*
X28431Y39016D01*
X28448Y39036D01*
X28469Y39051D01*
X28528Y39129D01*
X28591Y39203D01*
X28601Y39227D01*
X28616Y39248D01*
X28646Y39341D01*
X28683Y39431D01*
X28686Y39464D01*
X28692Y39482D01*
X28692Y39515D01*
X28701Y39598D01*
X28701Y89913D01*
X28687Y90003D01*
X28679Y90094D01*
X28667Y90124D01*
X28662Y90155D01*
X28619Y90236D01*
X28583Y90320D01*
X28557Y90352D01*
X28546Y90373D01*
X28523Y90395D01*
X28478Y90451D01*
X27506Y91424D01*
X27489Y91435D01*
X27477Y91451D01*
X27390Y91507D01*
X27306Y91567D01*
X27287Y91573D01*
X27270Y91584D01*
X27170Y91609D01*
X27071Y91640D01*
X27051Y91639D01*
X27032Y91644D01*
X26929Y91636D01*
X26825Y91633D01*
X26806Y91626D01*
X26786Y91625D01*
X26691Y91584D01*
X26594Y91549D01*
X26578Y91536D01*
X26560Y91528D01*
X26429Y91424D01*
X24281Y89275D01*
X20920Y87883D01*
X17282Y87883D01*
X13921Y89275D01*
X11348Y91848D01*
X9956Y95209D01*
X9956Y113071D01*
X11348Y116432D01*
X13921Y119005D01*
X17282Y120397D01*
X20920Y120397D01*
X24281Y119005D01*
X26853Y116432D01*
X28246Y113071D01*
X28246Y99622D01*
X28260Y99532D01*
X28267Y99441D01*
X28280Y99411D01*
X28285Y99379D01*
X28328Y99299D01*
X28364Y99215D01*
X28389Y99183D01*
X28400Y99162D01*
X28424Y99140D01*
X28469Y99084D01*
X32790Y94763D01*
X34780Y92772D01*
X34802Y92757D01*
X34799Y92728D01*
X34799Y39352D01*
X34814Y39256D01*
X34824Y39159D01*
X34834Y39135D01*
X34838Y39110D01*
X34884Y39024D01*
X34924Y38935D01*
X34941Y38915D01*
X34954Y38892D01*
X35024Y38825D01*
X35090Y38754D01*
X35113Y38741D01*
X35132Y38723D01*
X35220Y38682D01*
X35306Y38635D01*
X35331Y38630D01*
X35355Y38619D01*
X35452Y38609D01*
X35548Y38591D01*
X35574Y38595D01*
X35599Y38592D01*
X35695Y38613D01*
X35791Y38627D01*
X35814Y38639D01*
X35840Y38644D01*
X35923Y38694D01*
X36010Y38739D01*
X36029Y38757D01*
X36051Y38771D01*
X36114Y38845D01*
X36182Y38914D01*
X36198Y38943D01*
X36211Y38958D01*
X36223Y38988D01*
X36263Y39061D01*
X36748Y40232D01*
X39321Y42805D01*
X42682Y44197D01*
X46320Y44197D01*
X49681Y42805D01*
X51829Y40656D01*
X51845Y40645D01*
X51858Y40629D01*
X51945Y40573D01*
X52029Y40513D01*
X52048Y40507D01*
X52065Y40496D01*
X52165Y40471D01*
X52264Y40440D01*
X52284Y40441D01*
X52303Y40436D01*
X52406Y40444D01*
X52510Y40447D01*
X52529Y40454D01*
X52548Y40455D01*
X52643Y40496D01*
X52741Y40531D01*
X52756Y40544D01*
X52775Y40552D01*
X52906Y40656D01*
X66629Y54380D01*
X66682Y54454D01*
X66742Y54523D01*
X66754Y54553D01*
X66773Y54580D01*
X66799Y54667D01*
X66834Y54751D01*
X66838Y54792D01*
X66845Y54815D01*
X66844Y54847D01*
X66852Y54918D01*
X66852Y87884D01*
X66833Y87999D01*
X66816Y88115D01*
X66813Y88121D01*
X66812Y88127D01*
X66758Y88229D01*
X66705Y88334D01*
X66700Y88339D01*
X66697Y88344D01*
X66613Y88424D01*
X66529Y88506D01*
X66522Y88510D01*
X66519Y88513D01*
X66502Y88521D01*
X66382Y88587D01*
X64721Y89275D01*
X62148Y91848D01*
X60756Y95209D01*
X60756Y113071D01*
X62148Y116432D01*
X64721Y119005D01*
X68082Y120397D01*
X71720Y120397D01*
X72124Y120229D01*
X72237Y120203D01*
X72351Y120174D01*
X72357Y120175D01*
X72363Y120173D01*
X72480Y120184D01*
X72596Y120193D01*
X72602Y120196D01*
X72608Y120196D01*
X72716Y120244D01*
X72823Y120290D01*
X72828Y120294D01*
X72833Y120296D01*
X72847Y120309D01*
X72954Y120394D01*
X151719Y199160D01*
X153597Y201038D01*
X153639Y201096D01*
X153688Y201148D01*
X153710Y201195D01*
X153741Y201237D01*
X153762Y201306D01*
X153792Y201371D01*
X153798Y201423D01*
X153813Y201473D01*
X153811Y201544D01*
X153819Y201615D01*
X153808Y201666D01*
X153807Y201718D01*
X153782Y201786D01*
X153767Y201856D01*
X153740Y201901D01*
X153722Y201949D01*
X153677Y202005D01*
X153640Y202067D01*
X153601Y202101D01*
X153568Y202141D01*
X153508Y202180D01*
X153454Y202227D01*
X153405Y202246D01*
X153361Y202274D01*
X153292Y202292D01*
X153225Y202319D01*
X153154Y202327D01*
X153123Y202335D01*
X153100Y202333D01*
X153059Y202337D01*
X6604Y202337D01*
X6584Y202334D01*
X6565Y202336D01*
X6463Y202314D01*
X6361Y202298D01*
X6344Y202288D01*
X6324Y202284D01*
X6235Y202231D01*
X6144Y202182D01*
X6130Y202168D01*
X6113Y202158D01*
X6046Y202079D01*
X5974Y202004D01*
X5966Y201986D01*
X5953Y201971D01*
X5914Y201875D01*
X5871Y201781D01*
X5869Y201761D01*
X5861Y201743D01*
X5843Y201576D01*
X5843Y4064D01*
X5846Y4044D01*
X5844Y4025D01*
X5866Y3923D01*
X5882Y3821D01*
X5892Y3804D01*
X5896Y3784D01*
X5949Y3695D01*
X5998Y3604D01*
X6012Y3590D01*
X6022Y3573D01*
X6101Y3506D01*
X6176Y3434D01*
X6194Y3426D01*
X6209Y3413D01*
X6305Y3374D01*
X6399Y3331D01*
X6419Y3329D01*
X6437Y3321D01*
X6604Y3303D01*
X1299466Y3303D01*
X1299486Y3306D01*
G37*
%LPC*%
G36*
X751862Y7365D02*
X751862Y7365D01*
X751069Y8158D01*
X750995Y8211D01*
X750926Y8271D01*
X750896Y8283D01*
X750869Y8302D01*
X750782Y8329D01*
X750698Y8363D01*
X750657Y8367D01*
X750634Y8374D01*
X750602Y8373D01*
X750531Y8381D01*
X675647Y8381D01*
X673861Y10167D01*
X673861Y18945D01*
X673846Y19041D01*
X673836Y19138D01*
X673826Y19162D01*
X673822Y19188D01*
X673776Y19273D01*
X673736Y19363D01*
X673719Y19382D01*
X673706Y19405D01*
X673636Y19472D01*
X673570Y19544D01*
X673547Y19556D01*
X673528Y19574D01*
X673440Y19615D01*
X673354Y19662D01*
X673329Y19667D01*
X673305Y19678D01*
X673208Y19689D01*
X673112Y19706D01*
X673086Y19702D01*
X673061Y19705D01*
X672965Y19684D01*
X672869Y19670D01*
X672846Y19658D01*
X672820Y19653D01*
X672737Y19603D01*
X672650Y19559D01*
X672631Y19540D01*
X672609Y19527D01*
X672546Y19453D01*
X672478Y19383D01*
X672462Y19355D01*
X672449Y19340D01*
X672437Y19309D01*
X672397Y19236D01*
X671963Y18188D01*
X669390Y15615D01*
X666029Y14223D01*
X662391Y14223D01*
X659030Y15615D01*
X656457Y18188D01*
X655065Y21549D01*
X655065Y39411D01*
X656457Y42772D01*
X659030Y45345D01*
X662391Y46737D01*
X666029Y46737D01*
X669390Y45345D01*
X671963Y42772D01*
X672397Y41724D01*
X672448Y41641D01*
X672494Y41555D01*
X672512Y41537D01*
X672526Y41515D01*
X672602Y41453D01*
X672672Y41386D01*
X672696Y41375D01*
X672716Y41358D01*
X672807Y41323D01*
X672895Y41282D01*
X672921Y41279D01*
X672945Y41270D01*
X673043Y41266D01*
X673139Y41255D01*
X673165Y41260D01*
X673191Y41259D01*
X673285Y41286D01*
X673380Y41307D01*
X673402Y41321D01*
X673427Y41328D01*
X673507Y41383D01*
X673591Y41433D01*
X673608Y41453D01*
X673629Y41468D01*
X673688Y41546D01*
X673751Y41620D01*
X673761Y41645D01*
X673776Y41666D01*
X673806Y41758D01*
X673843Y41848D01*
X673846Y41881D01*
X673852Y41899D01*
X673852Y41932D01*
X673861Y42015D01*
X673861Y95145D01*
X673846Y95240D01*
X673866Y95260D01*
X673931Y95312D01*
X675870Y97252D01*
X680242Y101624D01*
X680295Y101698D01*
X680355Y101767D01*
X680367Y101797D01*
X680386Y101824D01*
X680413Y101911D01*
X680447Y101995D01*
X680451Y102036D01*
X680458Y102059D01*
X680457Y102091D01*
X680465Y102162D01*
X680465Y115611D01*
X681857Y118972D01*
X684430Y121545D01*
X687791Y122937D01*
X691429Y122937D01*
X694790Y121545D01*
X697363Y118972D01*
X697797Y117924D01*
X697848Y117841D01*
X697894Y117755D01*
X697912Y117737D01*
X697926Y117715D01*
X698002Y117653D01*
X698072Y117586D01*
X698096Y117575D01*
X698116Y117558D01*
X698207Y117523D01*
X698295Y117482D01*
X698321Y117479D01*
X698345Y117470D01*
X698443Y117466D01*
X698539Y117455D01*
X698565Y117460D01*
X698591Y117459D01*
X698685Y117486D01*
X698780Y117507D01*
X698802Y117521D01*
X698827Y117528D01*
X698907Y117583D01*
X698991Y117633D01*
X699008Y117653D01*
X699029Y117668D01*
X699088Y117746D01*
X699151Y117820D01*
X699161Y117845D01*
X699176Y117866D01*
X699206Y117958D01*
X699243Y118048D01*
X699246Y118081D01*
X699252Y118099D01*
X699252Y118132D01*
X699261Y118215D01*
X699261Y140262D01*
X699247Y140352D01*
X699239Y140443D01*
X699227Y140473D01*
X699222Y140505D01*
X699179Y140585D01*
X699143Y140669D01*
X699117Y140701D01*
X699106Y140722D01*
X699083Y140744D01*
X699038Y140800D01*
X689656Y150182D01*
X689619Y150209D01*
X689588Y150243D01*
X689519Y150281D01*
X689456Y150326D01*
X689412Y150339D01*
X689372Y150362D01*
X689295Y150375D01*
X689221Y150398D01*
X689175Y150397D01*
X689130Y150405D01*
X689053Y150394D01*
X688975Y150392D01*
X688932Y150376D01*
X688887Y150370D01*
X688817Y150334D01*
X688744Y150308D01*
X688708Y150279D01*
X688668Y150258D01*
X688613Y150202D01*
X688552Y150154D01*
X688527Y150115D01*
X688495Y150082D01*
X688429Y149963D01*
X688419Y149947D01*
X688418Y149942D01*
X688414Y149935D01*
X687596Y147960D01*
X684760Y145124D01*
X681055Y143589D01*
X677045Y143589D01*
X673340Y145124D01*
X670504Y147960D01*
X669596Y150151D01*
X669534Y150251D01*
X669475Y150351D01*
X669470Y150355D01*
X669467Y150360D01*
X669376Y150435D01*
X669288Y150511D01*
X669282Y150513D01*
X669277Y150517D01*
X669169Y150559D01*
X669060Y150603D01*
X669052Y150604D01*
X669047Y150605D01*
X669029Y150606D01*
X668893Y150621D01*
X664207Y150621D01*
X664092Y150602D01*
X663976Y150585D01*
X663971Y150583D01*
X663964Y150582D01*
X663862Y150527D01*
X663757Y150474D01*
X663752Y150469D01*
X663747Y150466D01*
X663667Y150382D01*
X663585Y150298D01*
X663581Y150292D01*
X663578Y150288D01*
X663570Y150271D01*
X663504Y150151D01*
X662596Y147960D01*
X659760Y145124D01*
X656055Y143589D01*
X652045Y143589D01*
X648340Y145124D01*
X645504Y147960D01*
X643969Y151665D01*
X643969Y155675D01*
X645504Y159380D01*
X648145Y162022D01*
X648187Y162080D01*
X648237Y162132D01*
X648259Y162179D01*
X648289Y162221D01*
X648310Y162290D01*
X648340Y162355D01*
X648346Y162407D01*
X648361Y162457D01*
X648359Y162528D01*
X648367Y162599D01*
X648356Y162650D01*
X648355Y162702D01*
X648330Y162770D01*
X648315Y162840D01*
X648288Y162885D01*
X648271Y162933D01*
X648226Y162989D01*
X648189Y163051D01*
X648149Y163085D01*
X648117Y163125D01*
X648057Y163164D01*
X648002Y163211D01*
X647954Y163230D01*
X647910Y163258D01*
X647840Y163276D01*
X647774Y163303D01*
X647703Y163311D01*
X647671Y163319D01*
X647648Y163317D01*
X647607Y163321D01*
X643328Y163321D01*
X643238Y163307D01*
X643147Y163299D01*
X643117Y163287D01*
X643085Y163282D01*
X643005Y163239D01*
X642921Y163203D01*
X642889Y163177D01*
X642868Y163166D01*
X642846Y163143D01*
X642790Y163098D01*
X638388Y158696D01*
X638320Y158602D01*
X638250Y158508D01*
X638248Y158502D01*
X638244Y158497D01*
X638210Y158386D01*
X638174Y158274D01*
X638174Y158268D01*
X638172Y158262D01*
X638175Y158145D01*
X638176Y158028D01*
X638178Y158021D01*
X638178Y158016D01*
X638185Y157998D01*
X638223Y157867D01*
X639131Y155675D01*
X639131Y151665D01*
X637596Y147960D01*
X634760Y145124D01*
X631055Y143589D01*
X627045Y143589D01*
X623340Y145124D01*
X620504Y147960D01*
X618969Y151665D01*
X618969Y155675D01*
X620504Y159380D01*
X623340Y162216D01*
X627045Y163751D01*
X631055Y163751D01*
X633247Y162843D01*
X633360Y162816D01*
X633474Y162788D01*
X633480Y162788D01*
X633486Y162787D01*
X633603Y162798D01*
X633719Y162807D01*
X633725Y162809D01*
X633731Y162810D01*
X633839Y162858D01*
X633945Y162903D01*
X633951Y162908D01*
X633956Y162910D01*
X633970Y162923D01*
X634076Y163008D01*
X638478Y167410D01*
X640487Y169419D01*
X697223Y169419D01*
X745206Y121436D01*
X745264Y121394D01*
X745316Y121345D01*
X745363Y121323D01*
X745405Y121292D01*
X745474Y121271D01*
X745539Y121241D01*
X745591Y121235D01*
X745641Y121220D01*
X745712Y121222D01*
X745783Y121214D01*
X745834Y121225D01*
X745886Y121226D01*
X745954Y121251D01*
X746024Y121266D01*
X746069Y121293D01*
X746117Y121311D01*
X746173Y121356D01*
X746235Y121392D01*
X746269Y121432D01*
X746309Y121464D01*
X746348Y121525D01*
X746395Y121579D01*
X746414Y121628D01*
X746442Y121671D01*
X746460Y121741D01*
X746487Y121807D01*
X746495Y121879D01*
X746498Y121890D01*
X751862Y127255D01*
X759438Y127255D01*
X764795Y121898D01*
X764795Y114322D01*
X759438Y108965D01*
X751862Y108965D01*
X746503Y114325D01*
X746504Y114339D01*
X746482Y114441D01*
X746466Y114543D01*
X746456Y114560D01*
X746452Y114580D01*
X746399Y114669D01*
X746350Y114760D01*
X746336Y114774D01*
X746326Y114791D01*
X746247Y114858D01*
X746172Y114930D01*
X746154Y114938D01*
X746139Y114951D01*
X746043Y114990D01*
X745949Y115033D01*
X745929Y115035D01*
X745911Y115043D01*
X745744Y115061D01*
X742957Y115061D01*
X694920Y163098D01*
X694846Y163151D01*
X694777Y163211D01*
X694747Y163223D01*
X694720Y163242D01*
X694633Y163269D01*
X694549Y163303D01*
X694508Y163307D01*
X694485Y163314D01*
X694453Y163313D01*
X694382Y163321D01*
X685493Y163321D01*
X685422Y163310D01*
X685350Y163308D01*
X685301Y163290D01*
X685250Y163282D01*
X685187Y163248D01*
X685119Y163223D01*
X685079Y163191D01*
X685033Y163166D01*
X684983Y163114D01*
X684927Y163070D01*
X684899Y163026D01*
X684863Y162988D01*
X684833Y162923D01*
X684794Y162863D01*
X684782Y162812D01*
X684760Y162765D01*
X684752Y162694D01*
X684734Y162624D01*
X684738Y162572D01*
X684733Y162521D01*
X684748Y162450D01*
X684753Y162379D01*
X684774Y162331D01*
X684785Y162280D01*
X684822Y162219D01*
X684850Y162153D01*
X684895Y162097D01*
X684911Y162069D01*
X684929Y162054D01*
X684955Y162022D01*
X687596Y159380D01*
X688504Y157189D01*
X688566Y157089D01*
X688625Y156989D01*
X688630Y156985D01*
X688633Y156980D01*
X688724Y156905D01*
X688812Y156829D01*
X688818Y156827D01*
X688823Y156823D01*
X688931Y156781D01*
X689040Y156737D01*
X689048Y156736D01*
X689053Y156735D01*
X689071Y156734D01*
X689207Y156719D01*
X691743Y156719D01*
X705359Y143103D01*
X705359Y119273D01*
X705360Y119265D01*
X705359Y119257D01*
X705380Y119144D01*
X705398Y119030D01*
X705402Y119023D01*
X705404Y119016D01*
X705460Y118915D01*
X705514Y118813D01*
X705519Y118808D01*
X705523Y118801D01*
X705608Y118723D01*
X705692Y118644D01*
X705699Y118640D01*
X705705Y118635D01*
X705810Y118589D01*
X705915Y118540D01*
X705923Y118539D01*
X705930Y118536D01*
X706045Y118526D01*
X706159Y118513D01*
X706167Y118515D01*
X706175Y118514D01*
X706288Y118541D01*
X706400Y118565D01*
X706407Y118569D01*
X706414Y118571D01*
X706512Y118632D01*
X706611Y118691D01*
X706616Y118698D01*
X706623Y118702D01*
X706736Y118826D01*
X707647Y120080D01*
X708722Y121155D01*
X709951Y122048D01*
X711305Y122738D01*
X712750Y123207D01*
X713487Y123324D01*
X713487Y107442D01*
X713490Y107422D01*
X713488Y107403D01*
X713510Y107301D01*
X713527Y107199D01*
X713536Y107182D01*
X713540Y107162D01*
X713593Y107073D01*
X713642Y106982D01*
X713656Y106968D01*
X713666Y106951D01*
X713745Y106884D01*
X713820Y106813D01*
X713838Y106804D01*
X713853Y106791D01*
X713949Y106753D01*
X714043Y106709D01*
X714063Y106707D01*
X714081Y106699D01*
X714248Y106681D01*
X715011Y106681D01*
X715011Y106679D01*
X714248Y106679D01*
X714228Y106676D01*
X714209Y106678D01*
X714107Y106656D01*
X714005Y106639D01*
X713988Y106630D01*
X713968Y106626D01*
X713879Y106573D01*
X713788Y106524D01*
X713774Y106510D01*
X713757Y106500D01*
X713690Y106421D01*
X713619Y106346D01*
X713610Y106328D01*
X713597Y106313D01*
X713558Y106217D01*
X713515Y106123D01*
X713513Y106103D01*
X713505Y106085D01*
X713487Y105918D01*
X713487Y90036D01*
X712750Y90153D01*
X711305Y90622D01*
X709951Y91312D01*
X708722Y92205D01*
X707647Y93280D01*
X706736Y94534D01*
X706730Y94540D01*
X706726Y94547D01*
X706643Y94626D01*
X706561Y94707D01*
X706554Y94711D01*
X706548Y94716D01*
X706444Y94765D01*
X706340Y94816D01*
X706332Y94817D01*
X706325Y94820D01*
X706211Y94833D01*
X706096Y94848D01*
X706088Y94846D01*
X706081Y94847D01*
X705968Y94823D01*
X705855Y94800D01*
X705848Y94796D01*
X705840Y94795D01*
X705741Y94735D01*
X705641Y94679D01*
X705636Y94673D01*
X705629Y94669D01*
X705554Y94581D01*
X705477Y94495D01*
X705474Y94488D01*
X705469Y94482D01*
X705426Y94375D01*
X705381Y94269D01*
X705380Y94261D01*
X705377Y94254D01*
X705359Y94087D01*
X705359Y58420D01*
X705362Y58400D01*
X705360Y58381D01*
X705382Y58279D01*
X705398Y58177D01*
X705408Y58160D01*
X705412Y58140D01*
X705465Y58051D01*
X705514Y57960D01*
X705528Y57946D01*
X705538Y57929D01*
X705617Y57862D01*
X705692Y57790D01*
X705710Y57782D01*
X705725Y57769D01*
X705821Y57730D01*
X705915Y57687D01*
X705935Y57685D01*
X705953Y57677D01*
X706120Y57659D01*
X758183Y57659D01*
X760192Y55650D01*
X788901Y26940D01*
X788917Y26929D01*
X788930Y26913D01*
X789017Y26857D01*
X789101Y26797D01*
X789120Y26791D01*
X789137Y26780D01*
X789237Y26755D01*
X789336Y26724D01*
X789356Y26725D01*
X789375Y26720D01*
X789478Y26728D01*
X789582Y26731D01*
X789601Y26738D01*
X789620Y26739D01*
X789715Y26780D01*
X789813Y26815D01*
X789829Y26828D01*
X789847Y26836D01*
X789958Y26925D01*
X797538Y26925D01*
X802895Y21568D01*
X802895Y13992D01*
X797538Y8635D01*
X789962Y8635D01*
X784605Y13992D01*
X784605Y21572D01*
X784617Y21581D01*
X784673Y21668D01*
X784733Y21752D01*
X784739Y21771D01*
X784750Y21788D01*
X784775Y21888D01*
X784806Y21987D01*
X784805Y22007D01*
X784810Y22026D01*
X784802Y22129D01*
X784799Y22233D01*
X784792Y22252D01*
X784791Y22272D01*
X784750Y22366D01*
X784715Y22464D01*
X784702Y22480D01*
X784694Y22498D01*
X784590Y22629D01*
X755880Y51338D01*
X755806Y51391D01*
X755737Y51451D01*
X755707Y51463D01*
X755680Y51482D01*
X755593Y51509D01*
X755509Y51543D01*
X755468Y51547D01*
X755445Y51554D01*
X755413Y51553D01*
X755342Y51561D01*
X706120Y51561D01*
X706100Y51558D01*
X706081Y51560D01*
X705979Y51538D01*
X705877Y51522D01*
X705860Y51512D01*
X705840Y51508D01*
X705751Y51455D01*
X705660Y51406D01*
X705646Y51392D01*
X705629Y51382D01*
X705562Y51303D01*
X705490Y51228D01*
X705482Y51210D01*
X705469Y51195D01*
X705430Y51099D01*
X705387Y51005D01*
X705385Y50985D01*
X705377Y50967D01*
X705359Y50800D01*
X705359Y42015D01*
X705374Y41919D01*
X705384Y41822D01*
X705394Y41798D01*
X705398Y41772D01*
X705444Y41687D01*
X705484Y41597D01*
X705501Y41578D01*
X705514Y41555D01*
X705584Y41488D01*
X705650Y41416D01*
X705673Y41404D01*
X705692Y41386D01*
X705780Y41345D01*
X705866Y41298D01*
X705891Y41293D01*
X705915Y41282D01*
X706012Y41271D01*
X706108Y41254D01*
X706134Y41258D01*
X706159Y41255D01*
X706255Y41276D01*
X706351Y41290D01*
X706374Y41302D01*
X706400Y41307D01*
X706483Y41357D01*
X706570Y41401D01*
X706589Y41420D01*
X706611Y41433D01*
X706674Y41507D01*
X706742Y41577D01*
X706758Y41605D01*
X706771Y41620D01*
X706783Y41651D01*
X706823Y41724D01*
X707257Y42772D01*
X709830Y45345D01*
X713191Y46737D01*
X716829Y46737D01*
X720190Y45345D01*
X722763Y42772D01*
X724155Y39411D01*
X724155Y21549D01*
X722763Y18188D01*
X720353Y15778D01*
X720311Y15720D01*
X720262Y15668D01*
X720240Y15621D01*
X720209Y15579D01*
X720188Y15510D01*
X720158Y15445D01*
X720152Y15393D01*
X720137Y15343D01*
X720139Y15272D01*
X720131Y15201D01*
X720142Y15150D01*
X720143Y15098D01*
X720168Y15030D01*
X720183Y14960D01*
X720210Y14915D01*
X720228Y14867D01*
X720273Y14811D01*
X720309Y14749D01*
X720349Y14715D01*
X720381Y14675D01*
X720442Y14636D01*
X720496Y14589D01*
X720545Y14570D01*
X720588Y14542D01*
X720658Y14524D01*
X720724Y14497D01*
X720796Y14489D01*
X720827Y14481D01*
X720850Y14483D01*
X720891Y14479D01*
X745744Y14479D01*
X745764Y14482D01*
X745783Y14480D01*
X745885Y14502D01*
X745987Y14518D01*
X746004Y14528D01*
X746024Y14532D01*
X746113Y14585D01*
X746204Y14634D01*
X746218Y14648D01*
X746235Y14658D01*
X746302Y14737D01*
X746374Y14812D01*
X746382Y14830D01*
X746395Y14845D01*
X746434Y14941D01*
X746477Y15035D01*
X746479Y15055D01*
X746487Y15073D01*
X746505Y15240D01*
X746505Y20298D01*
X751862Y25655D01*
X759438Y25655D01*
X764795Y20298D01*
X764795Y12722D01*
X759438Y7365D01*
X751862Y7365D01*
G37*
%LPD*%
%LPC*%
G36*
X1139911Y68325D02*
X1139911Y68325D01*
X1136550Y69717D01*
X1133977Y72290D01*
X1132585Y75651D01*
X1132585Y79289D01*
X1133273Y80950D01*
X1133300Y81064D01*
X1133329Y81178D01*
X1133328Y81184D01*
X1133330Y81190D01*
X1133319Y81306D01*
X1133310Y81423D01*
X1133307Y81428D01*
X1133307Y81435D01*
X1133259Y81542D01*
X1133213Y81649D01*
X1133209Y81655D01*
X1133207Y81659D01*
X1133194Y81673D01*
X1133108Y81780D01*
X1116560Y98328D01*
X1116486Y98381D01*
X1116417Y98441D01*
X1116387Y98453D01*
X1116360Y98472D01*
X1116273Y98499D01*
X1116189Y98533D01*
X1116148Y98537D01*
X1116125Y98544D01*
X1116093Y98543D01*
X1116022Y98551D01*
X1060450Y98551D01*
X1060430Y98548D01*
X1060411Y98550D01*
X1060309Y98528D01*
X1060207Y98512D01*
X1060190Y98502D01*
X1060170Y98498D01*
X1060081Y98445D01*
X1059990Y98396D01*
X1059976Y98382D01*
X1059959Y98372D01*
X1059892Y98293D01*
X1059820Y98218D01*
X1059812Y98200D01*
X1059799Y98185D01*
X1059760Y98089D01*
X1059717Y97995D01*
X1059715Y97975D01*
X1059707Y97957D01*
X1059689Y97790D01*
X1059689Y97736D01*
X1059708Y97621D01*
X1059725Y97505D01*
X1059727Y97500D01*
X1059728Y97494D01*
X1059783Y97391D01*
X1059836Y97286D01*
X1059841Y97282D01*
X1059844Y97276D01*
X1059928Y97196D01*
X1060012Y97114D01*
X1060018Y97110D01*
X1060022Y97107D01*
X1060039Y97099D01*
X1060159Y97033D01*
X1062324Y96136D01*
X1065146Y93314D01*
X1066674Y89626D01*
X1066674Y85634D01*
X1065146Y81946D01*
X1062324Y79124D01*
X1058636Y77596D01*
X1054644Y77596D01*
X1050956Y79124D01*
X1048134Y81946D01*
X1046606Y85634D01*
X1046606Y89626D01*
X1048134Y93314D01*
X1050956Y96136D01*
X1053121Y97033D01*
X1053221Y97094D01*
X1053321Y97154D01*
X1053325Y97159D01*
X1053330Y97163D01*
X1053405Y97252D01*
X1053481Y97341D01*
X1053483Y97347D01*
X1053487Y97352D01*
X1053529Y97460D01*
X1053573Y97570D01*
X1053574Y97577D01*
X1053575Y97582D01*
X1053576Y97600D01*
X1053591Y97736D01*
X1053591Y101292D01*
X1053577Y101382D01*
X1053569Y101473D01*
X1053557Y101503D01*
X1053552Y101535D01*
X1053509Y101615D01*
X1053473Y101699D01*
X1053447Y101731D01*
X1053436Y101752D01*
X1053413Y101774D01*
X1053368Y101830D01*
X1027660Y127538D01*
X1027586Y127591D01*
X1027517Y127651D01*
X1027487Y127663D01*
X1027460Y127682D01*
X1027373Y127709D01*
X1027289Y127743D01*
X1027248Y127747D01*
X1027225Y127754D01*
X1027193Y127753D01*
X1027122Y127761D01*
X839509Y127761D01*
X839438Y127750D01*
X839367Y127748D01*
X839318Y127730D01*
X839266Y127722D01*
X839203Y127688D01*
X839136Y127663D01*
X839095Y127631D01*
X839049Y127606D01*
X839000Y127554D01*
X838944Y127510D01*
X838915Y127466D01*
X838880Y127428D01*
X838849Y127363D01*
X838811Y127303D01*
X838798Y127252D01*
X838776Y127205D01*
X838768Y127134D01*
X838751Y127064D01*
X838755Y127012D01*
X838749Y126961D01*
X838764Y126890D01*
X838770Y126819D01*
X838790Y126771D01*
X838801Y126720D01*
X838838Y126659D01*
X838866Y126593D01*
X838911Y126537D01*
X838927Y126509D01*
X838945Y126494D01*
X838971Y126462D01*
X842265Y123168D01*
X842265Y115592D01*
X836908Y110235D01*
X829332Y110235D01*
X823975Y115592D01*
X823975Y123168D01*
X827269Y126462D01*
X827311Y126520D01*
X827360Y126572D01*
X827382Y126619D01*
X827413Y126661D01*
X827434Y126730D01*
X827464Y126795D01*
X827470Y126847D01*
X827485Y126897D01*
X827483Y126968D01*
X827491Y127039D01*
X827480Y127090D01*
X827479Y127142D01*
X827454Y127210D01*
X827439Y127280D01*
X827412Y127325D01*
X827394Y127373D01*
X827349Y127429D01*
X827313Y127491D01*
X827273Y127525D01*
X827241Y127565D01*
X827180Y127604D01*
X827126Y127651D01*
X827077Y127670D01*
X827034Y127698D01*
X826964Y127716D01*
X826898Y127743D01*
X826826Y127751D01*
X826795Y127759D01*
X826772Y127757D01*
X826731Y127761D01*
X806758Y127761D01*
X806668Y127747D01*
X806577Y127739D01*
X806547Y127727D01*
X806515Y127722D01*
X806435Y127679D01*
X806351Y127643D01*
X806319Y127617D01*
X806298Y127606D01*
X806276Y127583D01*
X806220Y127538D01*
X802910Y124229D01*
X802899Y124213D01*
X802883Y124200D01*
X802827Y124113D01*
X802767Y124029D01*
X802761Y124010D01*
X802750Y123993D01*
X802725Y123893D01*
X802694Y123794D01*
X802695Y123774D01*
X802690Y123755D01*
X802698Y123652D01*
X802701Y123548D01*
X802708Y123529D01*
X802709Y123510D01*
X802750Y123415D01*
X802785Y123317D01*
X802798Y123301D01*
X802806Y123283D01*
X802895Y123172D01*
X802895Y115592D01*
X797538Y110235D01*
X789962Y110235D01*
X784605Y115592D01*
X784605Y123168D01*
X789962Y128525D01*
X797542Y128525D01*
X797551Y128513D01*
X797638Y128457D01*
X797722Y128397D01*
X797741Y128391D01*
X797758Y128380D01*
X797858Y128355D01*
X797957Y128324D01*
X797977Y128325D01*
X797996Y128320D01*
X798099Y128328D01*
X798203Y128331D01*
X798222Y128338D01*
X798242Y128339D01*
X798336Y128380D01*
X798434Y128415D01*
X798450Y128428D01*
X798468Y128436D01*
X798599Y128540D01*
X803917Y133859D01*
X1029963Y133859D01*
X1044799Y119023D01*
X1044857Y118981D01*
X1044909Y118932D01*
X1044956Y118910D01*
X1044998Y118879D01*
X1045067Y118858D01*
X1045132Y118828D01*
X1045184Y118822D01*
X1045234Y118807D01*
X1045305Y118809D01*
X1045376Y118801D01*
X1045427Y118812D01*
X1045479Y118813D01*
X1045547Y118838D01*
X1045617Y118853D01*
X1045662Y118880D01*
X1045710Y118898D01*
X1045766Y118943D01*
X1045828Y118979D01*
X1045862Y119019D01*
X1045902Y119051D01*
X1045941Y119112D01*
X1045988Y119166D01*
X1046007Y119215D01*
X1046035Y119258D01*
X1046053Y119328D01*
X1046080Y119394D01*
X1046088Y119466D01*
X1046096Y119497D01*
X1046094Y119520D01*
X1046098Y119561D01*
X1046098Y121667D01*
X1055117Y121667D01*
X1055117Y112648D01*
X1053011Y112648D01*
X1052940Y112637D01*
X1052869Y112635D01*
X1052820Y112617D01*
X1052768Y112609D01*
X1052705Y112575D01*
X1052638Y112550D01*
X1052597Y112518D01*
X1052551Y112493D01*
X1052502Y112441D01*
X1052446Y112397D01*
X1052417Y112353D01*
X1052382Y112315D01*
X1052351Y112250D01*
X1052313Y112190D01*
X1052300Y112139D01*
X1052278Y112092D01*
X1052270Y112021D01*
X1052253Y111951D01*
X1052257Y111899D01*
X1052251Y111848D01*
X1052266Y111777D01*
X1052272Y111706D01*
X1052292Y111658D01*
X1052303Y111607D01*
X1052340Y111545D01*
X1052368Y111480D01*
X1052413Y111424D01*
X1052429Y111396D01*
X1052447Y111381D01*
X1052473Y111349D01*
X1058950Y104872D01*
X1059024Y104819D01*
X1059093Y104759D01*
X1059123Y104747D01*
X1059150Y104728D01*
X1059237Y104701D01*
X1059321Y104667D01*
X1059362Y104663D01*
X1059385Y104656D01*
X1059417Y104657D01*
X1059488Y104649D01*
X1118863Y104649D01*
X1137420Y86092D01*
X1137514Y86024D01*
X1137609Y85954D01*
X1137615Y85952D01*
X1137620Y85948D01*
X1137731Y85914D01*
X1137843Y85877D01*
X1137849Y85878D01*
X1137855Y85876D01*
X1137972Y85879D01*
X1138088Y85880D01*
X1138096Y85882D01*
X1138101Y85882D01*
X1138118Y85888D01*
X1138250Y85927D01*
X1139911Y86615D01*
X1143549Y86615D01*
X1146910Y85223D01*
X1149483Y82650D01*
X1150875Y79289D01*
X1150875Y75651D01*
X1149483Y72290D01*
X1146910Y69717D01*
X1143549Y68325D01*
X1139911Y68325D01*
G37*
%LPD*%
G36*
X77806Y40444D02*
X77806Y40444D01*
X77910Y40447D01*
X77929Y40454D01*
X77948Y40455D01*
X78043Y40496D01*
X78141Y40531D01*
X78156Y40544D01*
X78175Y40552D01*
X78306Y40656D01*
X108996Y71347D01*
X109049Y71421D01*
X109109Y71490D01*
X109121Y71521D01*
X109140Y71547D01*
X109167Y71634D01*
X109201Y71719D01*
X109205Y71760D01*
X109212Y71782D01*
X109211Y71814D01*
X109219Y71885D01*
X109219Y139947D01*
X111228Y141956D01*
X163044Y193772D01*
X163086Y193830D01*
X163135Y193882D01*
X163157Y193929D01*
X163188Y193971D01*
X163209Y194040D01*
X163239Y194105D01*
X163245Y194157D01*
X163260Y194207D01*
X163258Y194278D01*
X163266Y194349D01*
X163255Y194400D01*
X163254Y194452D01*
X163229Y194520D01*
X163214Y194590D01*
X163187Y194635D01*
X163169Y194683D01*
X163124Y194739D01*
X163088Y194801D01*
X163048Y194835D01*
X163016Y194875D01*
X162955Y194914D01*
X162901Y194961D01*
X162852Y194980D01*
X162809Y195008D01*
X162739Y195026D01*
X162673Y195053D01*
X162601Y195061D01*
X162570Y195069D01*
X162547Y195067D01*
X162506Y195071D01*
X156569Y195071D01*
X156479Y195057D01*
X156388Y195049D01*
X156358Y195037D01*
X156326Y195032D01*
X156246Y194989D01*
X156162Y194953D01*
X156130Y194927D01*
X156109Y194916D01*
X156087Y194893D01*
X156031Y194848D01*
X78002Y116819D01*
X77934Y116725D01*
X77864Y116631D01*
X77862Y116625D01*
X77858Y116619D01*
X77824Y116509D01*
X77788Y116397D01*
X77788Y116390D01*
X77786Y116384D01*
X77789Y116268D01*
X77790Y116151D01*
X77792Y116144D01*
X77792Y116139D01*
X77799Y116121D01*
X77837Y115990D01*
X79046Y113071D01*
X79046Y95209D01*
X77653Y91848D01*
X75081Y89275D01*
X73419Y88587D01*
X73320Y88526D01*
X73220Y88466D01*
X73216Y88461D01*
X73210Y88458D01*
X73136Y88368D01*
X73060Y88279D01*
X73058Y88273D01*
X73054Y88268D01*
X73012Y88160D01*
X72968Y88051D01*
X72967Y88043D01*
X72965Y88039D01*
X72965Y88020D01*
X72950Y87884D01*
X72950Y52077D01*
X65645Y44773D01*
X65588Y44694D01*
X65526Y44619D01*
X65517Y44594D01*
X65501Y44573D01*
X65473Y44480D01*
X65438Y44389D01*
X65437Y44363D01*
X65429Y44338D01*
X65432Y44240D01*
X65427Y44143D01*
X65435Y44118D01*
X65435Y44092D01*
X65469Y44000D01*
X65496Y43907D01*
X65511Y43885D01*
X65520Y43861D01*
X65581Y43785D01*
X65636Y43705D01*
X65657Y43689D01*
X65674Y43669D01*
X65755Y43616D01*
X65834Y43558D01*
X65858Y43550D01*
X65880Y43536D01*
X65975Y43512D01*
X66067Y43482D01*
X66094Y43482D01*
X66119Y43476D01*
X66216Y43483D01*
X66313Y43484D01*
X66345Y43493D01*
X66364Y43495D01*
X66394Y43508D01*
X66475Y43531D01*
X68082Y44197D01*
X71720Y44197D01*
X75081Y42805D01*
X77229Y40656D01*
X77245Y40645D01*
X77258Y40629D01*
X77345Y40573D01*
X77429Y40513D01*
X77448Y40507D01*
X77465Y40496D01*
X77565Y40471D01*
X77664Y40440D01*
X77684Y40441D01*
X77703Y40436D01*
X77806Y40444D01*
G37*
%LPC*%
G36*
X1216111Y68325D02*
X1216111Y68325D01*
X1212750Y69717D01*
X1210177Y72290D01*
X1208785Y75651D01*
X1208785Y79289D01*
X1210177Y82650D01*
X1212750Y85223D01*
X1216111Y86615D01*
X1219749Y86615D01*
X1221410Y85927D01*
X1221524Y85900D01*
X1221638Y85871D01*
X1221644Y85872D01*
X1221650Y85870D01*
X1221766Y85881D01*
X1221883Y85890D01*
X1221888Y85893D01*
X1221895Y85893D01*
X1222002Y85941D01*
X1222109Y85987D01*
X1222115Y85991D01*
X1222119Y85993D01*
X1222133Y86006D01*
X1222240Y86092D01*
X1226088Y89940D01*
X1226141Y90014D01*
X1226201Y90083D01*
X1226213Y90113D01*
X1226232Y90140D01*
X1226259Y90227D01*
X1226293Y90311D01*
X1226297Y90352D01*
X1226304Y90375D01*
X1226303Y90407D01*
X1226311Y90478D01*
X1226311Y95762D01*
X1226300Y95833D01*
X1226298Y95905D01*
X1226280Y95954D01*
X1226272Y96005D01*
X1226238Y96069D01*
X1226213Y96136D01*
X1226181Y96177D01*
X1226156Y96223D01*
X1226104Y96272D01*
X1226060Y96328D01*
X1226016Y96356D01*
X1225978Y96392D01*
X1225913Y96422D01*
X1225853Y96461D01*
X1225802Y96474D01*
X1225755Y96496D01*
X1225684Y96503D01*
X1225614Y96521D01*
X1225562Y96517D01*
X1225511Y96523D01*
X1225440Y96507D01*
X1225369Y96502D01*
X1225321Y96481D01*
X1225270Y96470D01*
X1225209Y96434D01*
X1225143Y96406D01*
X1225087Y96361D01*
X1225059Y96344D01*
X1225044Y96326D01*
X1225012Y96301D01*
X1224218Y95507D01*
X1222989Y94614D01*
X1221635Y93924D01*
X1220190Y93455D01*
X1219453Y93338D01*
X1219453Y102108D01*
X1219450Y102128D01*
X1219452Y102147D01*
X1219430Y102249D01*
X1219413Y102351D01*
X1219404Y102368D01*
X1219400Y102388D01*
X1219347Y102477D01*
X1219298Y102568D01*
X1219284Y102582D01*
X1219274Y102599D01*
X1219195Y102666D01*
X1219120Y102737D01*
X1219102Y102746D01*
X1219087Y102759D01*
X1218991Y102797D01*
X1218897Y102841D01*
X1218877Y102843D01*
X1218859Y102851D01*
X1218692Y102869D01*
X1217929Y102869D01*
X1217929Y102871D01*
X1218692Y102871D01*
X1218712Y102874D01*
X1218731Y102872D01*
X1218833Y102894D01*
X1218935Y102911D01*
X1218952Y102920D01*
X1218972Y102924D01*
X1219061Y102977D01*
X1219152Y103026D01*
X1219166Y103040D01*
X1219183Y103050D01*
X1219250Y103129D01*
X1219321Y103204D01*
X1219330Y103222D01*
X1219343Y103237D01*
X1219382Y103333D01*
X1219425Y103427D01*
X1219427Y103447D01*
X1219435Y103465D01*
X1219453Y103632D01*
X1219453Y112402D01*
X1220190Y112285D01*
X1221635Y111816D01*
X1222989Y111126D01*
X1224218Y110233D01*
X1225012Y109439D01*
X1225070Y109397D01*
X1225122Y109348D01*
X1225169Y109326D01*
X1225211Y109296D01*
X1225280Y109275D01*
X1225345Y109244D01*
X1225397Y109239D01*
X1225447Y109223D01*
X1225518Y109225D01*
X1225589Y109217D01*
X1225640Y109228D01*
X1225692Y109230D01*
X1225760Y109254D01*
X1225830Y109270D01*
X1225875Y109296D01*
X1225923Y109314D01*
X1225979Y109359D01*
X1226041Y109396D01*
X1226075Y109435D01*
X1226115Y109468D01*
X1226154Y109528D01*
X1226201Y109583D01*
X1226220Y109631D01*
X1226248Y109675D01*
X1226266Y109744D01*
X1226293Y109811D01*
X1226301Y109882D01*
X1226309Y109913D01*
X1226307Y109937D01*
X1226311Y109978D01*
X1226311Y133343D01*
X1228097Y135129D01*
X1249680Y135129D01*
X1249700Y135132D01*
X1249719Y135130D01*
X1249821Y135152D01*
X1249923Y135168D01*
X1249940Y135178D01*
X1249960Y135182D01*
X1250049Y135235D01*
X1250140Y135284D01*
X1250154Y135298D01*
X1250171Y135308D01*
X1250238Y135387D01*
X1250310Y135462D01*
X1250318Y135480D01*
X1250331Y135495D01*
X1250370Y135591D01*
X1250413Y135685D01*
X1250415Y135705D01*
X1250423Y135723D01*
X1250441Y135890D01*
X1250441Y143513D01*
X1250422Y143628D01*
X1250405Y143744D01*
X1250403Y143749D01*
X1250402Y143756D01*
X1250347Y143858D01*
X1250294Y143963D01*
X1250289Y143967D01*
X1250286Y143973D01*
X1250202Y144053D01*
X1250118Y144135D01*
X1250112Y144139D01*
X1250108Y144142D01*
X1250091Y144150D01*
X1249971Y144216D01*
X1247780Y145124D01*
X1244944Y147960D01*
X1243409Y151665D01*
X1243409Y155675D01*
X1244944Y159380D01*
X1247780Y162216D01*
X1251485Y163751D01*
X1255495Y163751D01*
X1259200Y162216D01*
X1262036Y159380D01*
X1263571Y155675D01*
X1263571Y151665D01*
X1262036Y147960D01*
X1259200Y145124D01*
X1257009Y144216D01*
X1256909Y144155D01*
X1256809Y144095D01*
X1256805Y144090D01*
X1256800Y144087D01*
X1256725Y143997D01*
X1256649Y143908D01*
X1256647Y143902D01*
X1256643Y143897D01*
X1256601Y143789D01*
X1256557Y143680D01*
X1256556Y143672D01*
X1256555Y143667D01*
X1256554Y143649D01*
X1256539Y143513D01*
X1256539Y135890D01*
X1256542Y135870D01*
X1256540Y135851D01*
X1256562Y135749D01*
X1256578Y135647D01*
X1256588Y135630D01*
X1256592Y135610D01*
X1256645Y135521D01*
X1256694Y135430D01*
X1256708Y135416D01*
X1256718Y135399D01*
X1256797Y135332D01*
X1256872Y135260D01*
X1256890Y135252D01*
X1256905Y135239D01*
X1257001Y135200D01*
X1257095Y135157D01*
X1257115Y135155D01*
X1257133Y135147D01*
X1257300Y135129D01*
X1273803Y135129D01*
X1280391Y128540D01*
X1280407Y128529D01*
X1280420Y128513D01*
X1280507Y128457D01*
X1280591Y128397D01*
X1280610Y128391D01*
X1280627Y128380D01*
X1280727Y128355D01*
X1280826Y128324D01*
X1280846Y128325D01*
X1280865Y128320D01*
X1280968Y128328D01*
X1281072Y128331D01*
X1281091Y128338D01*
X1281111Y128339D01*
X1281205Y128380D01*
X1281303Y128415D01*
X1281319Y128428D01*
X1281337Y128436D01*
X1281448Y128525D01*
X1289028Y128525D01*
X1294385Y123168D01*
X1294385Y115592D01*
X1289028Y110235D01*
X1281452Y110235D01*
X1276095Y115592D01*
X1276095Y123172D01*
X1276107Y123181D01*
X1276163Y123268D01*
X1276223Y123352D01*
X1276229Y123371D01*
X1276240Y123388D01*
X1276265Y123488D01*
X1276296Y123587D01*
X1276295Y123607D01*
X1276300Y123626D01*
X1276292Y123729D01*
X1276289Y123833D01*
X1276282Y123852D01*
X1276281Y123871D01*
X1276240Y123967D01*
X1276205Y124064D01*
X1276192Y124079D01*
X1276184Y124098D01*
X1276080Y124229D01*
X1271500Y128808D01*
X1271426Y128861D01*
X1271357Y128921D01*
X1271327Y128933D01*
X1271300Y128952D01*
X1271213Y128979D01*
X1271129Y129013D01*
X1271088Y129017D01*
X1271065Y129024D01*
X1271033Y129023D01*
X1270962Y129031D01*
X1233170Y129031D01*
X1233150Y129028D01*
X1233131Y129030D01*
X1233029Y129008D01*
X1232927Y128992D01*
X1232910Y128982D01*
X1232890Y128978D01*
X1232801Y128925D01*
X1232710Y128876D01*
X1232696Y128862D01*
X1232679Y128852D01*
X1232612Y128773D01*
X1232540Y128698D01*
X1232532Y128680D01*
X1232519Y128665D01*
X1232480Y128569D01*
X1232437Y128475D01*
X1232435Y128455D01*
X1232427Y128437D01*
X1232409Y128270D01*
X1232409Y87637D01*
X1226552Y81780D01*
X1226484Y81686D01*
X1226414Y81591D01*
X1226412Y81585D01*
X1226408Y81580D01*
X1226374Y81469D01*
X1226337Y81357D01*
X1226338Y81351D01*
X1226336Y81345D01*
X1226339Y81228D01*
X1226340Y81112D01*
X1226342Y81104D01*
X1226342Y81099D01*
X1226348Y81082D01*
X1226387Y80950D01*
X1227075Y79289D01*
X1227075Y75651D01*
X1225683Y72290D01*
X1223110Y69717D01*
X1219749Y68325D01*
X1216111Y68325D01*
G37*
%LPD*%
%LPC*%
G36*
X1139911Y42925D02*
X1139911Y42925D01*
X1136550Y44317D01*
X1133977Y46890D01*
X1132585Y50251D01*
X1132585Y53889D01*
X1133815Y56859D01*
X1133826Y56903D01*
X1133845Y56945D01*
X1133854Y57022D01*
X1133872Y57098D01*
X1133867Y57144D01*
X1133872Y57189D01*
X1133856Y57266D01*
X1133848Y57343D01*
X1133830Y57385D01*
X1133820Y57430D01*
X1133780Y57497D01*
X1133748Y57568D01*
X1133717Y57602D01*
X1133694Y57641D01*
X1133635Y57692D01*
X1133582Y57749D01*
X1133542Y57771D01*
X1133507Y57801D01*
X1133435Y57830D01*
X1133367Y57867D01*
X1133321Y57876D01*
X1133279Y57893D01*
X1133143Y57908D01*
X1133124Y57911D01*
X1133120Y57910D01*
X1133112Y57911D01*
X1021087Y57911D01*
X987873Y91125D01*
X987779Y91193D01*
X987685Y91263D01*
X987678Y91265D01*
X987673Y91269D01*
X987563Y91303D01*
X987451Y91339D01*
X987444Y91339D01*
X987438Y91341D01*
X987322Y91338D01*
X987205Y91337D01*
X987198Y91335D01*
X987192Y91335D01*
X987175Y91328D01*
X987044Y91290D01*
X984951Y90423D01*
X981009Y90423D01*
X977368Y91931D01*
X974581Y94718D01*
X973073Y98359D01*
X973073Y102301D01*
X974581Y105942D01*
X977368Y108729D01*
X981009Y110237D01*
X984951Y110237D01*
X988592Y108729D01*
X991379Y105942D01*
X992887Y102301D01*
X992887Y98359D01*
X992020Y96266D01*
X991993Y96153D01*
X991965Y96039D01*
X991965Y96033D01*
X991964Y96027D01*
X991975Y95910D01*
X991984Y95794D01*
X991986Y95788D01*
X991987Y95782D01*
X992035Y95675D01*
X992080Y95568D01*
X992085Y95562D01*
X992087Y95557D01*
X992099Y95544D01*
X992185Y95437D01*
X1023390Y64232D01*
X1023464Y64179D01*
X1023533Y64119D01*
X1023563Y64107D01*
X1023590Y64088D01*
X1023677Y64061D01*
X1023761Y64027D01*
X1023802Y64023D01*
X1023825Y64016D01*
X1023857Y64017D01*
X1023928Y64009D01*
X1137097Y64009D01*
X1137168Y64020D01*
X1137239Y64022D01*
X1137308Y64043D01*
X1137340Y64048D01*
X1137360Y64059D01*
X1137399Y64071D01*
X1137835Y64260D01*
X1138333Y64062D01*
X1138391Y64050D01*
X1138446Y64027D01*
X1138541Y64017D01*
X1138573Y64010D01*
X1138588Y64011D01*
X1138613Y64009D01*
X1139149Y64009D01*
X1139484Y63673D01*
X1139542Y63632D01*
X1139594Y63582D01*
X1139647Y63554D01*
X1139650Y63552D01*
X1139656Y63549D01*
X1139657Y63549D01*
X1139684Y63530D01*
X1139706Y63523D01*
X1139742Y63504D01*
X1140183Y63329D01*
X1140395Y62838D01*
X1140428Y62787D01*
X1140451Y62733D01*
X1140511Y62658D01*
X1140528Y62631D01*
X1140540Y62621D01*
X1140556Y62602D01*
X1140934Y62223D01*
X1140934Y61976D01*
X1140938Y61956D01*
X1140935Y61937D01*
X1140957Y61835D01*
X1140974Y61733D01*
X1140983Y61716D01*
X1140988Y61696D01*
X1141041Y61607D01*
X1141089Y61516D01*
X1141104Y61502D01*
X1141114Y61485D01*
X1141193Y61418D01*
X1141268Y61346D01*
X1141286Y61338D01*
X1141301Y61325D01*
X1141397Y61286D01*
X1141491Y61243D01*
X1141510Y61241D01*
X1141529Y61233D01*
X1141696Y61215D01*
X1143549Y61215D01*
X1146910Y59823D01*
X1149483Y57250D01*
X1150875Y53889D01*
X1150875Y50251D01*
X1149483Y46890D01*
X1146910Y44317D01*
X1143549Y42925D01*
X1139911Y42925D01*
G37*
%LPD*%
%LPC*%
G36*
X829332Y8635D02*
X829332Y8635D01*
X823975Y13992D01*
X823975Y21568D01*
X829332Y26925D01*
X836908Y26925D01*
X842265Y21568D01*
X842265Y20320D01*
X842268Y20300D01*
X842266Y20281D01*
X842288Y20179D01*
X842304Y20077D01*
X842314Y20060D01*
X842318Y20040D01*
X842371Y19951D01*
X842420Y19860D01*
X842434Y19846D01*
X842444Y19829D01*
X842523Y19762D01*
X842598Y19690D01*
X842616Y19682D01*
X842631Y19669D01*
X842727Y19630D01*
X842821Y19587D01*
X842841Y19585D01*
X842859Y19577D01*
X843026Y19559D01*
X866413Y19559D01*
X866460Y19566D01*
X866508Y19565D01*
X866581Y19586D01*
X866656Y19598D01*
X866698Y19621D01*
X866744Y19635D01*
X866806Y19678D01*
X866873Y19714D01*
X866906Y19748D01*
X866945Y19776D01*
X866990Y19837D01*
X867042Y19892D01*
X867063Y19935D01*
X867091Y19974D01*
X867114Y20046D01*
X867146Y20115D01*
X867151Y20163D01*
X867166Y20208D01*
X867165Y20284D01*
X867173Y20359D01*
X867163Y20406D01*
X867162Y20454D01*
X867137Y20526D01*
X867121Y20600D01*
X867096Y20641D01*
X867080Y20686D01*
X867034Y20746D01*
X866995Y20811D01*
X866958Y20842D01*
X866929Y20880D01*
X866825Y20956D01*
X866808Y20971D01*
X866802Y20973D01*
X866794Y20979D01*
X866425Y21192D01*
X865952Y21665D01*
X865618Y22244D01*
X865445Y22890D01*
X865445Y28500D01*
X874021Y28500D01*
X874041Y28503D01*
X874061Y28501D01*
X874162Y28523D01*
X874264Y28539D01*
X874282Y28549D01*
X874301Y28553D01*
X874390Y28606D01*
X874482Y28654D01*
X874495Y28669D01*
X874512Y28679D01*
X874580Y28758D01*
X874651Y28833D01*
X874659Y28851D01*
X874672Y28866D01*
X874711Y28962D01*
X874755Y29056D01*
X874757Y29076D01*
X874764Y29094D01*
X874783Y29261D01*
X874783Y30024D01*
X874784Y30024D01*
X874784Y29261D01*
X874788Y29241D01*
X874786Y29221D01*
X874808Y29120D01*
X874824Y29018D01*
X874834Y29001D01*
X874838Y28981D01*
X874891Y28892D01*
X874939Y28801D01*
X874954Y28787D01*
X874964Y28770D01*
X875043Y28703D01*
X875118Y28631D01*
X875136Y28623D01*
X875151Y28610D01*
X875247Y28571D01*
X875341Y28528D01*
X875360Y28526D01*
X875379Y28518D01*
X875546Y28500D01*
X884122Y28500D01*
X884122Y22890D01*
X883949Y22244D01*
X883615Y21665D01*
X883142Y21192D01*
X882774Y20979D01*
X882736Y20949D01*
X882694Y20926D01*
X882642Y20871D01*
X882583Y20823D01*
X882558Y20783D01*
X882525Y20748D01*
X882493Y20679D01*
X882453Y20615D01*
X882441Y20569D01*
X882421Y20525D01*
X882413Y20450D01*
X882395Y20376D01*
X882399Y20328D01*
X882394Y20281D01*
X882410Y20206D01*
X882417Y20131D01*
X882436Y20087D01*
X882446Y20040D01*
X882485Y19975D01*
X882516Y19906D01*
X882548Y19870D01*
X882572Y19829D01*
X882630Y19780D01*
X882681Y19724D01*
X882723Y19700D01*
X882759Y19669D01*
X882830Y19641D01*
X882896Y19604D01*
X882943Y19595D01*
X882987Y19577D01*
X883116Y19563D01*
X883138Y19559D01*
X883144Y19560D01*
X883154Y19559D01*
X928062Y19559D01*
X928152Y19573D01*
X928243Y19581D01*
X928273Y19593D01*
X928305Y19598D01*
X928385Y19641D01*
X928469Y19677D01*
X928501Y19703D01*
X928522Y19714D01*
X928544Y19737D01*
X928600Y19782D01*
X935885Y27066D01*
X935938Y27140D01*
X935997Y27210D01*
X936009Y27240D01*
X936028Y27266D01*
X936055Y27353D01*
X936089Y27438D01*
X936094Y27479D01*
X936101Y27501D01*
X936100Y27533D01*
X936108Y27605D01*
X936108Y37307D01*
X937298Y38498D01*
X952578Y38498D01*
X953769Y37307D01*
X953769Y22027D01*
X952578Y20836D01*
X938593Y20836D01*
X938503Y20822D01*
X938412Y20815D01*
X938383Y20802D01*
X938351Y20797D01*
X938270Y20754D01*
X938186Y20718D01*
X938154Y20693D01*
X938133Y20682D01*
X938111Y20658D01*
X938110Y20658D01*
X938108Y20657D01*
X938106Y20654D01*
X938055Y20613D01*
X932912Y15470D01*
X930903Y13461D01*
X842049Y13461D01*
X841959Y13447D01*
X841868Y13439D01*
X841838Y13427D01*
X841806Y13422D01*
X841726Y13379D01*
X841642Y13343D01*
X841610Y13317D01*
X841589Y13306D01*
X841567Y13283D01*
X841511Y13238D01*
X836908Y8635D01*
X829332Y8635D01*
G37*
%LPD*%
%LPC*%
G36*
X976833Y13461D02*
X976833Y13461D01*
X974824Y15470D01*
X969565Y20729D01*
X969549Y20740D01*
X969537Y20756D01*
X969449Y20812D01*
X969365Y20872D01*
X969346Y20878D01*
X969330Y20889D01*
X969229Y20914D01*
X969130Y20945D01*
X969110Y20944D01*
X969091Y20949D01*
X968988Y20941D01*
X968884Y20938D01*
X968866Y20932D01*
X968846Y20930D01*
X968751Y20890D01*
X968653Y20854D01*
X968638Y20841D01*
X968626Y20836D01*
X961281Y20836D01*
X956108Y26009D01*
X956108Y33325D01*
X961281Y38498D01*
X968596Y38498D01*
X973769Y33325D01*
X973769Y25967D01*
X973733Y25917D01*
X973727Y25898D01*
X973717Y25881D01*
X973691Y25781D01*
X973661Y25682D01*
X973661Y25662D01*
X973656Y25643D01*
X973665Y25540D01*
X973667Y25436D01*
X973674Y25417D01*
X973676Y25398D01*
X973716Y25303D01*
X973752Y25205D01*
X973764Y25190D01*
X973772Y25171D01*
X973877Y25040D01*
X979135Y19782D01*
X979209Y19729D01*
X979279Y19669D01*
X979309Y19657D01*
X979335Y19638D01*
X979422Y19611D01*
X979507Y19577D01*
X979548Y19573D01*
X979570Y19566D01*
X979602Y19567D01*
X979674Y19559D01*
X1022042Y19559D01*
X1022132Y19573D01*
X1022223Y19581D01*
X1022253Y19593D01*
X1022285Y19598D01*
X1022365Y19641D01*
X1022449Y19677D01*
X1022481Y19703D01*
X1022502Y19714D01*
X1022524Y19737D01*
X1022580Y19782D01*
X1022640Y19842D01*
X1022682Y19900D01*
X1022731Y19952D01*
X1022753Y19999D01*
X1022784Y20041D01*
X1022805Y20110D01*
X1022835Y20175D01*
X1022841Y20227D01*
X1022856Y20276D01*
X1022854Y20348D01*
X1022862Y20419D01*
X1022851Y20470D01*
X1022850Y20522D01*
X1022825Y20590D01*
X1022810Y20660D01*
X1022783Y20704D01*
X1022765Y20753D01*
X1022720Y20809D01*
X1022684Y20871D01*
X1022644Y20905D01*
X1022612Y20945D01*
X1022551Y20984D01*
X1022497Y21031D01*
X1022448Y21050D01*
X1022405Y21078D01*
X1022335Y21096D01*
X1022269Y21123D01*
X1022198Y21131D01*
X1022166Y21139D01*
X1022143Y21137D01*
X1022102Y21141D01*
X1016413Y21141D01*
X1016413Y28957D01*
X1024229Y28957D01*
X1024229Y23268D01*
X1024240Y23197D01*
X1024242Y23126D01*
X1024260Y23077D01*
X1024268Y23025D01*
X1024302Y22962D01*
X1024327Y22895D01*
X1024359Y22854D01*
X1024384Y22808D01*
X1024435Y22759D01*
X1024480Y22703D01*
X1024524Y22674D01*
X1024562Y22639D01*
X1024627Y22608D01*
X1024687Y22570D01*
X1024738Y22557D01*
X1024785Y22535D01*
X1024856Y22527D01*
X1024926Y22510D01*
X1024978Y22514D01*
X1025029Y22508D01*
X1025100Y22523D01*
X1025171Y22529D01*
X1025219Y22549D01*
X1025270Y22560D01*
X1025331Y22597D01*
X1025397Y22625D01*
X1025453Y22670D01*
X1025481Y22686D01*
X1025496Y22704D01*
X1025528Y22730D01*
X1027302Y24503D01*
X1027313Y24519D01*
X1027329Y24532D01*
X1027385Y24619D01*
X1027445Y24703D01*
X1027451Y24722D01*
X1027462Y24739D01*
X1027487Y24839D01*
X1027518Y24938D01*
X1027517Y24958D01*
X1027522Y24977D01*
X1027514Y25080D01*
X1027511Y25184D01*
X1027504Y25203D01*
X1027503Y25223D01*
X1027462Y25317D01*
X1027427Y25415D01*
X1027414Y25431D01*
X1027406Y25449D01*
X1027302Y25580D01*
X1026059Y26822D01*
X1026059Y34138D01*
X1031232Y39311D01*
X1038548Y39311D01*
X1043721Y34138D01*
X1043721Y26822D01*
X1038548Y21649D01*
X1033386Y21649D01*
X1033296Y21635D01*
X1033205Y21627D01*
X1033175Y21615D01*
X1033143Y21610D01*
X1033063Y21567D01*
X1032979Y21531D01*
X1032947Y21505D01*
X1032926Y21494D01*
X1032904Y21471D01*
X1032848Y21426D01*
X1024883Y13461D01*
X976833Y13461D01*
G37*
%LPD*%
%LPC*%
G36*
X891126Y21192D02*
X891126Y21192D01*
X885953Y26365D01*
X885953Y33681D01*
X891156Y38883D01*
X891216Y38893D01*
X891234Y38903D01*
X891253Y38907D01*
X891342Y38960D01*
X891434Y39008D01*
X891447Y39023D01*
X891465Y39033D01*
X891532Y39112D01*
X891603Y39187D01*
X891611Y39205D01*
X891624Y39220D01*
X891663Y39316D01*
X891707Y39410D01*
X891709Y39430D01*
X891716Y39448D01*
X891735Y39615D01*
X891735Y78033D01*
X891720Y78123D01*
X891713Y78214D01*
X891700Y78244D01*
X891695Y78276D01*
X891652Y78356D01*
X891617Y78440D01*
X891591Y78472D01*
X891580Y78493D01*
X891557Y78515D01*
X891512Y78571D01*
X883262Y86821D01*
X883246Y86832D01*
X883234Y86848D01*
X883171Y86888D01*
X883123Y86930D01*
X883096Y86941D01*
X883063Y86964D01*
X883044Y86970D01*
X883027Y86981D01*
X882943Y87002D01*
X882894Y87022D01*
X882866Y87025D01*
X882828Y87037D01*
X882808Y87036D01*
X882788Y87041D01*
X882748Y87038D01*
X882728Y87040D01*
X882721Y87040D01*
X882675Y87033D01*
X882582Y87030D01*
X882563Y87023D01*
X882543Y87022D01*
X882502Y87004D01*
X882478Y87000D01*
X882428Y86974D01*
X882351Y86946D01*
X882335Y86933D01*
X882317Y86926D01*
X882279Y86895D01*
X882260Y86885D01*
X882241Y86865D01*
X882186Y86821D01*
X881978Y86613D01*
X873771Y86613D01*
X867968Y92416D01*
X867968Y100624D01*
X873771Y106427D01*
X881978Y106427D01*
X887782Y100624D01*
X887782Y92416D01*
X887574Y92209D01*
X887562Y92193D01*
X887547Y92180D01*
X887491Y92093D01*
X887430Y92009D01*
X887425Y91990D01*
X887414Y91973D01*
X887389Y91873D01*
X887358Y91774D01*
X887359Y91754D01*
X887354Y91735D01*
X887362Y91632D01*
X887364Y91528D01*
X887371Y91509D01*
X887373Y91490D01*
X887413Y91395D01*
X887449Y91297D01*
X887461Y91282D01*
X887469Y91263D01*
X887574Y91132D01*
X897832Y80874D01*
X897832Y39615D01*
X897836Y39595D01*
X897833Y39575D01*
X897855Y39474D01*
X897872Y39372D01*
X897881Y39354D01*
X897886Y39335D01*
X897939Y39246D01*
X897987Y39155D01*
X898002Y39141D01*
X898012Y39124D01*
X898091Y39057D01*
X898166Y38985D01*
X898184Y38977D01*
X898199Y38964D01*
X898295Y38925D01*
X898389Y38882D01*
X898408Y38879D01*
X898420Y38875D01*
X903614Y33681D01*
X903614Y26365D01*
X898441Y21192D01*
X891126Y21192D01*
G37*
%LPD*%
%LPC*%
G36*
X27605Y143589D02*
X27605Y143589D01*
X23900Y145124D01*
X21064Y147960D01*
X19529Y151665D01*
X19529Y155675D01*
X21064Y159380D01*
X23900Y162216D01*
X27605Y163751D01*
X31615Y163751D01*
X35320Y162216D01*
X38156Y159380D01*
X39064Y157189D01*
X39126Y157089D01*
X39185Y156989D01*
X39190Y156985D01*
X39193Y156980D01*
X39284Y156905D01*
X39372Y156829D01*
X39378Y156827D01*
X39383Y156823D01*
X39491Y156781D01*
X39600Y156737D01*
X39608Y156736D01*
X39613Y156735D01*
X39631Y156734D01*
X39767Y156719D01*
X44453Y156719D01*
X44568Y156738D01*
X44684Y156755D01*
X44689Y156757D01*
X44696Y156758D01*
X44798Y156813D01*
X44903Y156866D01*
X44908Y156871D01*
X44913Y156874D01*
X44993Y156958D01*
X45075Y157042D01*
X45079Y157048D01*
X45082Y157052D01*
X45090Y157069D01*
X45156Y157189D01*
X46064Y159380D01*
X48900Y162216D01*
X52605Y163751D01*
X56615Y163751D01*
X60320Y162216D01*
X63156Y159380D01*
X64691Y155675D01*
X64691Y151665D01*
X63156Y147960D01*
X60320Y145124D01*
X56615Y143589D01*
X52605Y143589D01*
X48900Y145124D01*
X46064Y147960D01*
X45156Y150151D01*
X45094Y150251D01*
X45035Y150351D01*
X45030Y150355D01*
X45027Y150360D01*
X44936Y150435D01*
X44848Y150511D01*
X44842Y150513D01*
X44837Y150517D01*
X44729Y150559D01*
X44620Y150603D01*
X44612Y150604D01*
X44607Y150605D01*
X44589Y150606D01*
X44453Y150621D01*
X39767Y150621D01*
X39652Y150602D01*
X39536Y150585D01*
X39531Y150583D01*
X39524Y150582D01*
X39422Y150527D01*
X39317Y150474D01*
X39312Y150469D01*
X39307Y150466D01*
X39227Y150382D01*
X39145Y150298D01*
X39141Y150292D01*
X39138Y150288D01*
X39130Y150271D01*
X39064Y150151D01*
X38156Y147960D01*
X35320Y145124D01*
X31615Y143589D01*
X27605Y143589D01*
G37*
%LPD*%
%LPC*%
G36*
X662391Y90423D02*
X662391Y90423D01*
X659030Y91815D01*
X656457Y94388D01*
X655065Y97749D01*
X655065Y115611D01*
X656457Y118972D01*
X659030Y121545D01*
X662391Y122937D01*
X666029Y122937D01*
X669390Y121545D01*
X671963Y118972D01*
X673355Y115611D01*
X673355Y97749D01*
X672689Y96142D01*
X672667Y96047D01*
X672638Y95954D01*
X672639Y95928D01*
X672633Y95902D01*
X672642Y95805D01*
X672643Y95752D01*
X672631Y95740D01*
X672609Y95727D01*
X672546Y95653D01*
X672478Y95583D01*
X672462Y95555D01*
X672449Y95540D01*
X672437Y95509D01*
X672397Y95436D01*
X671963Y94388D01*
X669390Y91815D01*
X666029Y90423D01*
X662391Y90423D01*
G37*
%LPD*%
%LPC*%
G36*
X42682Y87883D02*
X42682Y87883D01*
X39321Y89275D01*
X36748Y91848D01*
X36263Y93019D01*
X36212Y93102D01*
X36166Y93188D01*
X36147Y93206D01*
X36134Y93228D01*
X36075Y93277D01*
X36070Y93343D01*
X36069Y93441D01*
X36059Y93472D01*
X36058Y93491D01*
X36045Y93522D01*
X36022Y93602D01*
X35356Y95209D01*
X35356Y113071D01*
X36748Y116432D01*
X39321Y119005D01*
X42682Y120397D01*
X46320Y120397D01*
X49681Y119005D01*
X52253Y116432D01*
X53646Y113071D01*
X53646Y95209D01*
X52253Y91848D01*
X49681Y89275D01*
X46320Y87883D01*
X42682Y87883D01*
G37*
%LPD*%
%LPC*%
G36*
X636991Y14223D02*
X636991Y14223D01*
X633630Y15615D01*
X631057Y18188D01*
X629665Y21549D01*
X629665Y39411D01*
X631057Y42772D01*
X633630Y45345D01*
X636991Y46737D01*
X640629Y46737D01*
X643990Y45345D01*
X646563Y42772D01*
X647955Y39411D01*
X647955Y21549D01*
X646563Y18188D01*
X643990Y15615D01*
X640629Y14223D01*
X636991Y14223D01*
G37*
%LPD*%
%LPC*%
G36*
X77605Y143589D02*
X77605Y143589D01*
X73900Y145124D01*
X71064Y147960D01*
X69529Y151665D01*
X69529Y155675D01*
X71064Y159380D01*
X73900Y162216D01*
X77605Y163751D01*
X81615Y163751D01*
X85320Y162216D01*
X88156Y159380D01*
X89691Y155675D01*
X89691Y151665D01*
X88156Y147960D01*
X85320Y145124D01*
X81615Y143589D01*
X77605Y143589D01*
G37*
%LPD*%
%LPC*%
G36*
X1276485Y143589D02*
X1276485Y143589D01*
X1272780Y145124D01*
X1269944Y147960D01*
X1268409Y151665D01*
X1268409Y155675D01*
X1269944Y159380D01*
X1272780Y162216D01*
X1276485Y163751D01*
X1280495Y163751D01*
X1284200Y162216D01*
X1287036Y159380D01*
X1288571Y155675D01*
X1288571Y151665D01*
X1287036Y147960D01*
X1284200Y145124D01*
X1280495Y143589D01*
X1276485Y143589D01*
G37*
%LPD*%
%LPC*%
G36*
X926765Y143589D02*
X926765Y143589D01*
X923060Y145124D01*
X920224Y147960D01*
X918689Y151665D01*
X918689Y155675D01*
X920224Y159380D01*
X923060Y162216D01*
X926765Y163751D01*
X930775Y163751D01*
X934480Y162216D01*
X937316Y159380D01*
X938851Y155675D01*
X938851Y151665D01*
X937316Y147960D01*
X934480Y145124D01*
X930775Y143589D01*
X926765Y143589D01*
G37*
%LPD*%
%LPC*%
G36*
X976765Y143589D02*
X976765Y143589D01*
X973060Y145124D01*
X970224Y147960D01*
X968689Y151665D01*
X968689Y155675D01*
X970224Y159380D01*
X973060Y162216D01*
X976765Y163751D01*
X980775Y163751D01*
X984480Y162216D01*
X987316Y159380D01*
X988851Y155675D01*
X988851Y151665D01*
X987316Y147960D01*
X984480Y145124D01*
X980775Y143589D01*
X976765Y143589D01*
G37*
%LPD*%
%LPC*%
G36*
X951765Y143589D02*
X951765Y143589D01*
X948060Y145124D01*
X945224Y147960D01*
X943689Y151665D01*
X943689Y155675D01*
X945224Y159380D01*
X948060Y162216D01*
X951765Y163751D01*
X955775Y163751D01*
X959480Y162216D01*
X962316Y159380D01*
X963851Y155675D01*
X963851Y151665D01*
X962316Y147960D01*
X959480Y145124D01*
X955775Y143589D01*
X951765Y143589D01*
G37*
%LPD*%
%LPC*%
G36*
X901304Y86613D02*
X901304Y86613D01*
X897663Y88121D01*
X894876Y90908D01*
X893368Y94549D01*
X893368Y98491D01*
X894876Y102132D01*
X897663Y104919D01*
X901304Y106427D01*
X905245Y106427D01*
X908887Y104919D01*
X911673Y102132D01*
X913182Y98491D01*
X913182Y94549D01*
X911673Y90908D01*
X908887Y88121D01*
X905245Y86613D01*
X901304Y86613D01*
G37*
%LPD*%
%LPC*%
G36*
X296609Y20481D02*
X296609Y20481D01*
X295418Y21672D01*
X295418Y36952D01*
X296609Y38142D01*
X311889Y38142D01*
X313080Y36952D01*
X313080Y21672D01*
X311889Y20481D01*
X296609Y20481D01*
G37*
%LPD*%
%LPC*%
G36*
X1074442Y167385D02*
X1074442Y167385D01*
X1069085Y172742D01*
X1069085Y180318D01*
X1074442Y185675D01*
X1082018Y185675D01*
X1087375Y180318D01*
X1087375Y172742D01*
X1082018Y167385D01*
X1074442Y167385D01*
G37*
%LPD*%
%LPC*%
G36*
X1023642Y167385D02*
X1023642Y167385D01*
X1018285Y172742D01*
X1018285Y180318D01*
X1023642Y185675D01*
X1031218Y185675D01*
X1036575Y180318D01*
X1036575Y172742D01*
X1031218Y167385D01*
X1023642Y167385D01*
G37*
%LPD*%
%LPC*%
G36*
X1121026Y166522D02*
X1121026Y166522D01*
X1115669Y171879D01*
X1115669Y179454D01*
X1121026Y184811D01*
X1128601Y184811D01*
X1133958Y179454D01*
X1133958Y171879D01*
X1128601Y166522D01*
X1121026Y166522D01*
G37*
%LPD*%
%LPC*%
G36*
X124482Y107695D02*
X124482Y107695D01*
X119125Y113052D01*
X119125Y120628D01*
X124482Y125985D01*
X132058Y125985D01*
X137415Y120628D01*
X137415Y113052D01*
X132058Y107695D01*
X124482Y107695D01*
G37*
%LPD*%
%LPC*%
G36*
X1245892Y108965D02*
X1245892Y108965D01*
X1240535Y114322D01*
X1240535Y121898D01*
X1245892Y127255D01*
X1253468Y127255D01*
X1258825Y121898D01*
X1258825Y114322D01*
X1253468Y108965D01*
X1245892Y108965D01*
G37*
%LPD*%
%LPC*%
G36*
X257832Y107695D02*
X257832Y107695D01*
X252475Y113052D01*
X252475Y120628D01*
X257832Y125985D01*
X265408Y125985D01*
X270765Y120628D01*
X270765Y113052D01*
X265408Y107695D01*
X257832Y107695D01*
G37*
%LPD*%
%LPC*%
G36*
X441982Y157225D02*
X441982Y157225D01*
X436625Y162582D01*
X436625Y170158D01*
X441982Y175515D01*
X449558Y175515D01*
X454915Y170158D01*
X454915Y162582D01*
X449558Y157225D01*
X441982Y157225D01*
G37*
%LPD*%
%LPC*%
G36*
X359432Y107695D02*
X359432Y107695D01*
X354075Y113052D01*
X354075Y120628D01*
X359432Y125985D01*
X367008Y125985D01*
X372365Y120628D01*
X372365Y113052D01*
X367008Y107695D01*
X359432Y107695D01*
G37*
%LPD*%
%LPC*%
G36*
X493989Y107695D02*
X493989Y107695D01*
X490628Y109087D01*
X488055Y111660D01*
X486663Y115021D01*
X486663Y118659D01*
X488055Y122020D01*
X490628Y124593D01*
X493989Y125985D01*
X497627Y125985D01*
X500988Y124593D01*
X503561Y122020D01*
X504953Y118659D01*
X504953Y115021D01*
X503561Y111660D01*
X500988Y109087D01*
X497627Y107695D01*
X493989Y107695D01*
G37*
%LPD*%
%LPC*%
G36*
X468589Y107695D02*
X468589Y107695D01*
X465228Y109087D01*
X462655Y111660D01*
X461263Y115021D01*
X461263Y118659D01*
X462655Y122020D01*
X465228Y124593D01*
X468589Y125985D01*
X472227Y125985D01*
X475588Y124593D01*
X478161Y122020D01*
X479553Y118659D01*
X479553Y115021D01*
X478161Y111660D01*
X475588Y109087D01*
X472227Y107695D01*
X468589Y107695D01*
G37*
%LPD*%
%LPC*%
G36*
X519389Y31495D02*
X519389Y31495D01*
X516028Y32887D01*
X513455Y35460D01*
X512063Y38821D01*
X512063Y42459D01*
X513455Y45820D01*
X516028Y48393D01*
X519389Y49785D01*
X523027Y49785D01*
X526388Y48393D01*
X528961Y45820D01*
X530353Y42459D01*
X530353Y38821D01*
X528961Y35460D01*
X526388Y32887D01*
X523027Y31495D01*
X519389Y31495D01*
G37*
%LPD*%
%LPC*%
G36*
X519389Y107695D02*
X519389Y107695D01*
X516028Y109087D01*
X513455Y111660D01*
X512063Y115021D01*
X512063Y118659D01*
X513455Y122020D01*
X516028Y124593D01*
X519389Y125985D01*
X523027Y125985D01*
X526388Y124593D01*
X528961Y122020D01*
X530353Y118659D01*
X530353Y115021D01*
X528961Y111660D01*
X526388Y109087D01*
X523027Y107695D01*
X519389Y107695D01*
G37*
%LPD*%
%LPC*%
G36*
X443189Y31495D02*
X443189Y31495D01*
X439828Y32887D01*
X437255Y35460D01*
X435863Y38821D01*
X435863Y42459D01*
X437255Y45820D01*
X439828Y48393D01*
X443189Y49785D01*
X446827Y49785D01*
X450188Y48393D01*
X452761Y45820D01*
X454153Y42459D01*
X454153Y38821D01*
X452761Y35460D01*
X450188Y32887D01*
X446827Y31495D01*
X443189Y31495D01*
G37*
%LPD*%
%LPC*%
G36*
X468589Y31495D02*
X468589Y31495D01*
X465228Y32887D01*
X462655Y35460D01*
X461263Y38821D01*
X461263Y42459D01*
X462655Y45820D01*
X465228Y48393D01*
X468589Y49785D01*
X472227Y49785D01*
X475588Y48393D01*
X478161Y45820D01*
X479553Y42459D01*
X479553Y38821D01*
X478161Y35460D01*
X475588Y32887D01*
X472227Y31495D01*
X468589Y31495D01*
G37*
%LPD*%
%LPC*%
G36*
X1139911Y17525D02*
X1139911Y17525D01*
X1136550Y18917D01*
X1133977Y21490D01*
X1132585Y24851D01*
X1132585Y28489D01*
X1133977Y31850D01*
X1136550Y34423D01*
X1139911Y35815D01*
X1143549Y35815D01*
X1146910Y34423D01*
X1149483Y31850D01*
X1150875Y28489D01*
X1150875Y24851D01*
X1149483Y21490D01*
X1146910Y18917D01*
X1143549Y17525D01*
X1139911Y17525D01*
G37*
%LPD*%
%LPC*%
G36*
X1139911Y93725D02*
X1139911Y93725D01*
X1136550Y95117D01*
X1133977Y97690D01*
X1132585Y101051D01*
X1132585Y104689D01*
X1133977Y108050D01*
X1136550Y110623D01*
X1139911Y112015D01*
X1143549Y112015D01*
X1146910Y110623D01*
X1149483Y108050D01*
X1150875Y104689D01*
X1150875Y101051D01*
X1149483Y97690D01*
X1146910Y95117D01*
X1143549Y93725D01*
X1139911Y93725D01*
G37*
%LPD*%
%LPC*%
G36*
X1216111Y17525D02*
X1216111Y17525D01*
X1212750Y18917D01*
X1210177Y21490D01*
X1208785Y24851D01*
X1208785Y28489D01*
X1210177Y31850D01*
X1212750Y34423D01*
X1216111Y35815D01*
X1219749Y35815D01*
X1223110Y34423D01*
X1225683Y31850D01*
X1227075Y28489D01*
X1227075Y24851D01*
X1225683Y21490D01*
X1223110Y18917D01*
X1219749Y17525D01*
X1216111Y17525D01*
G37*
%LPD*%
%LPC*%
G36*
X1102352Y21649D02*
X1102352Y21649D01*
X1097179Y26822D01*
X1097179Y34138D01*
X1102352Y39311D01*
X1109668Y39311D01*
X1114841Y34138D01*
X1114841Y26822D01*
X1109668Y21649D01*
X1102352Y21649D01*
G37*
%LPD*%
%LPC*%
G36*
X392422Y20379D02*
X392422Y20379D01*
X387249Y25552D01*
X387249Y32868D01*
X392422Y38041D01*
X399738Y38041D01*
X404911Y32868D01*
X404911Y25552D01*
X399738Y20379D01*
X392422Y20379D01*
G37*
%LPD*%
%LPC*%
G36*
X320591Y20481D02*
X320591Y20481D01*
X315418Y25654D01*
X315418Y32969D01*
X320591Y38142D01*
X327907Y38142D01*
X333080Y32969D01*
X333080Y25654D01*
X327907Y20481D01*
X320591Y20481D01*
G37*
%LPD*%
%LPC*%
G36*
X96824Y105663D02*
X96824Y105663D01*
X96824Y120784D01*
X97561Y120667D01*
X99006Y120198D01*
X100360Y119508D01*
X101589Y118615D01*
X102663Y117540D01*
X103557Y116311D01*
X104246Y114957D01*
X104716Y113512D01*
X104954Y112012D01*
X104954Y105663D01*
X96824Y105663D01*
G37*
%LPD*%
%LPC*%
G36*
X716533Y108203D02*
X716533Y108203D01*
X716533Y123324D01*
X717270Y123207D01*
X718715Y122738D01*
X720069Y122048D01*
X721298Y121155D01*
X722373Y120080D01*
X723266Y118851D01*
X723956Y117497D01*
X724425Y116052D01*
X724663Y114552D01*
X724663Y108203D01*
X716533Y108203D01*
G37*
%LPD*%
%LPC*%
G36*
X96824Y102617D02*
X96824Y102617D01*
X104954Y102617D01*
X104954Y96268D01*
X104716Y94768D01*
X104246Y93323D01*
X103557Y91969D01*
X102663Y90740D01*
X101589Y89665D01*
X100360Y88772D01*
X99006Y88082D01*
X97561Y87613D01*
X96824Y87496D01*
X96824Y102617D01*
G37*
%LPD*%
%LPC*%
G36*
X716533Y105157D02*
X716533Y105157D01*
X724663Y105157D01*
X724663Y98808D01*
X724425Y97308D01*
X723956Y95863D01*
X723266Y94509D01*
X722373Y93280D01*
X721298Y92205D01*
X720069Y91312D01*
X718715Y90622D01*
X717270Y90153D01*
X716533Y90036D01*
X716533Y105157D01*
G37*
%LPD*%
%LPC*%
G36*
X85648Y105663D02*
X85648Y105663D01*
X85648Y112012D01*
X85886Y113512D01*
X86355Y114957D01*
X87045Y116311D01*
X87938Y117540D01*
X89012Y118615D01*
X90242Y119508D01*
X91595Y120198D01*
X93041Y120667D01*
X93778Y120784D01*
X93778Y105663D01*
X85648Y105663D01*
G37*
%LPD*%
%LPC*%
G36*
X93041Y87613D02*
X93041Y87613D01*
X91595Y88082D01*
X90242Y88772D01*
X89012Y89665D01*
X87938Y90740D01*
X87045Y91969D01*
X86355Y93323D01*
X85886Y94768D01*
X85648Y96268D01*
X85648Y102617D01*
X93778Y102617D01*
X93778Y87496D01*
X93041Y87613D01*
G37*
%LPD*%
%LPC*%
G36*
X540003Y165353D02*
X540003Y165353D01*
X540003Y174372D01*
X542847Y174372D01*
X549022Y168197D01*
X549022Y165353D01*
X540003Y165353D01*
G37*
%LPD*%
%LPC*%
G36*
X1058163Y124713D02*
X1058163Y124713D01*
X1058163Y133732D01*
X1061007Y133732D01*
X1067182Y127557D01*
X1067182Y124713D01*
X1058163Y124713D01*
G37*
%LPD*%
%LPC*%
G36*
X1046098Y124713D02*
X1046098Y124713D01*
X1046098Y127557D01*
X1052273Y133732D01*
X1055117Y133732D01*
X1055117Y124713D01*
X1046098Y124713D01*
G37*
%LPD*%
%LPC*%
G36*
X527938Y165353D02*
X527938Y165353D01*
X527938Y168197D01*
X534113Y174372D01*
X536957Y174372D01*
X536957Y165353D01*
X527938Y165353D01*
G37*
%LPD*%
%LPC*%
G36*
X540003Y153288D02*
X540003Y153288D01*
X540003Y162307D01*
X549022Y162307D01*
X549022Y159463D01*
X542847Y153288D01*
X540003Y153288D01*
G37*
%LPD*%
%LPC*%
G36*
X1058163Y112648D02*
X1058163Y112648D01*
X1058163Y121667D01*
X1067182Y121667D01*
X1067182Y118823D01*
X1061007Y112648D01*
X1058163Y112648D01*
G37*
%LPD*%
%LPC*%
G36*
X534113Y153288D02*
X534113Y153288D01*
X527938Y159463D01*
X527938Y162307D01*
X536957Y162307D01*
X536957Y153288D01*
X534113Y153288D01*
G37*
%LPD*%
%LPC*%
G36*
X959103Y101853D02*
X959103Y101853D01*
X959103Y110745D01*
X961894Y110745D01*
X967995Y104644D01*
X967995Y101853D01*
X959103Y101853D01*
G37*
%LPD*%
%LPC*%
G36*
X947165Y101853D02*
X947165Y101853D01*
X947165Y104644D01*
X953266Y110745D01*
X956057Y110745D01*
X956057Y101853D01*
X947165Y101853D01*
G37*
%LPD*%
%LPC*%
G36*
X959103Y89915D02*
X959103Y89915D01*
X959103Y98807D01*
X967995Y98807D01*
X967995Y96016D01*
X961894Y89915D01*
X959103Y89915D01*
G37*
%LPD*%
%LPC*%
G36*
X953266Y89915D02*
X953266Y89915D01*
X947165Y96016D01*
X947165Y98807D01*
X956057Y98807D01*
X956057Y89915D01*
X953266Y89915D01*
G37*
%LPD*%
%LPC*%
G36*
X876307Y31546D02*
X876307Y31546D01*
X876307Y39362D01*
X881916Y39362D01*
X882562Y39188D01*
X883142Y38854D01*
X883615Y38381D01*
X883949Y37802D01*
X884122Y37155D01*
X884122Y31546D01*
X876307Y31546D01*
G37*
%LPD*%
%LPC*%
G36*
X159824Y31190D02*
X159824Y31190D01*
X159824Y39006D01*
X165433Y39006D01*
X166079Y38833D01*
X166658Y38498D01*
X167132Y38025D01*
X167466Y37446D01*
X167639Y36800D01*
X167639Y31190D01*
X159824Y31190D01*
G37*
%LPD*%
%LPC*%
G36*
X377603Y30733D02*
X377603Y30733D01*
X377603Y38549D01*
X383212Y38549D01*
X383859Y38376D01*
X384438Y38041D01*
X384911Y37568D01*
X385246Y36989D01*
X385419Y36342D01*
X385419Y30733D01*
X377603Y30733D01*
G37*
%LPD*%
%LPC*%
G36*
X1087533Y32003D02*
X1087533Y32003D01*
X1087533Y39819D01*
X1093142Y39819D01*
X1093789Y39646D01*
X1094368Y39311D01*
X1094841Y38838D01*
X1095176Y38259D01*
X1095349Y37612D01*
X1095349Y32003D01*
X1087533Y32003D01*
G37*
%LPD*%
%LPC*%
G36*
X1016413Y32003D02*
X1016413Y32003D01*
X1016413Y39819D01*
X1022022Y39819D01*
X1022669Y39646D01*
X1023248Y39311D01*
X1023721Y38838D01*
X1024056Y38259D01*
X1024229Y37612D01*
X1024229Y32003D01*
X1016413Y32003D01*
G37*
%LPD*%
%LPC*%
G36*
X1005551Y32003D02*
X1005551Y32003D01*
X1005551Y37612D01*
X1005724Y38259D01*
X1006059Y38838D01*
X1006532Y39311D01*
X1007111Y39646D01*
X1007758Y39819D01*
X1013367Y39819D01*
X1013367Y32003D01*
X1005551Y32003D01*
G37*
%LPD*%
%LPC*%
G36*
X865445Y31546D02*
X865445Y31546D01*
X865445Y37155D01*
X865618Y37802D01*
X865952Y38381D01*
X866426Y38854D01*
X867005Y39188D01*
X867651Y39362D01*
X873260Y39362D01*
X873260Y31546D01*
X865445Y31546D01*
G37*
%LPD*%
%LPC*%
G36*
X148962Y31190D02*
X148962Y31190D01*
X148962Y36800D01*
X149135Y37446D01*
X149469Y38025D01*
X149942Y38498D01*
X150522Y38833D01*
X151168Y39006D01*
X156777Y39006D01*
X156777Y31190D01*
X148962Y31190D01*
G37*
%LPD*%
%LPC*%
G36*
X366741Y30733D02*
X366741Y30733D01*
X366741Y36342D01*
X366914Y36989D01*
X367249Y37568D01*
X367722Y38041D01*
X368301Y38376D01*
X368948Y38549D01*
X374557Y38549D01*
X374557Y30733D01*
X366741Y30733D01*
G37*
%LPD*%
%LPC*%
G36*
X1076671Y32003D02*
X1076671Y32003D01*
X1076671Y37612D01*
X1076844Y38259D01*
X1077179Y38838D01*
X1077652Y39311D01*
X1078231Y39646D01*
X1078878Y39819D01*
X1084487Y39819D01*
X1084487Y32003D01*
X1076671Y32003D01*
G37*
%LPD*%
%LPC*%
G36*
X1087533Y21141D02*
X1087533Y21141D01*
X1087533Y28957D01*
X1095349Y28957D01*
X1095349Y23348D01*
X1095176Y22701D01*
X1094841Y22122D01*
X1094368Y21649D01*
X1093789Y21314D01*
X1093142Y21141D01*
X1087533Y21141D01*
G37*
%LPD*%
%LPC*%
G36*
X159824Y20328D02*
X159824Y20328D01*
X159824Y28144D01*
X167639Y28144D01*
X167639Y22535D01*
X167466Y21888D01*
X167132Y21309D01*
X166658Y20836D01*
X166079Y20502D01*
X165433Y20328D01*
X159824Y20328D01*
G37*
%LPD*%
%LPC*%
G36*
X377603Y19871D02*
X377603Y19871D01*
X377603Y27687D01*
X385419Y27687D01*
X385419Y22078D01*
X385246Y21431D01*
X384911Y20852D01*
X384438Y20379D01*
X383859Y20044D01*
X383212Y19871D01*
X377603Y19871D01*
G37*
%LPD*%
%LPC*%
G36*
X1078878Y21141D02*
X1078878Y21141D01*
X1078231Y21314D01*
X1077652Y21649D01*
X1077179Y22122D01*
X1076844Y22701D01*
X1076671Y23348D01*
X1076671Y28957D01*
X1084487Y28957D01*
X1084487Y21141D01*
X1078878Y21141D01*
G37*
%LPD*%
%LPC*%
G36*
X151168Y20328D02*
X151168Y20328D01*
X150522Y20502D01*
X149942Y20836D01*
X149469Y21309D01*
X149135Y21888D01*
X148962Y22535D01*
X148962Y28144D01*
X156777Y28144D01*
X156777Y20328D01*
X151168Y20328D01*
G37*
%LPD*%
%LPC*%
G36*
X1007758Y21141D02*
X1007758Y21141D01*
X1007111Y21314D01*
X1006532Y21649D01*
X1006059Y22122D01*
X1005724Y22701D01*
X1005551Y23348D01*
X1005551Y28957D01*
X1013367Y28957D01*
X1013367Y21141D01*
X1007758Y21141D01*
G37*
%LPD*%
%LPC*%
G36*
X368948Y19871D02*
X368948Y19871D01*
X368301Y20044D01*
X367722Y20379D01*
X367249Y20852D01*
X366914Y21431D01*
X366741Y22078D01*
X366741Y27687D01*
X374557Y27687D01*
X374557Y19871D01*
X368948Y19871D01*
G37*
%LPD*%
%LPC*%
G36*
X1230013Y155193D02*
X1230013Y155193D01*
X1230013Y164149D01*
X1230969Y163998D01*
X1232555Y163483D01*
X1234040Y162726D01*
X1235388Y161747D01*
X1236567Y160568D01*
X1237546Y159220D01*
X1238303Y157735D01*
X1238818Y156149D01*
X1238969Y155193D01*
X1230013Y155193D01*
G37*
%LPD*%
%LPC*%
G36*
X1230013Y152147D02*
X1230013Y152147D01*
X1238969Y152147D01*
X1238818Y151191D01*
X1238303Y149605D01*
X1237546Y148120D01*
X1236567Y146772D01*
X1235388Y145593D01*
X1234040Y144614D01*
X1232555Y143857D01*
X1230969Y143342D01*
X1230013Y143191D01*
X1230013Y152147D01*
G37*
%LPD*%
%LPC*%
G36*
X1218011Y155193D02*
X1218011Y155193D01*
X1218162Y156149D01*
X1218677Y157735D01*
X1219434Y159220D01*
X1220413Y160568D01*
X1221592Y161747D01*
X1222940Y162726D01*
X1224425Y163483D01*
X1226011Y163998D01*
X1226967Y164149D01*
X1226967Y155193D01*
X1218011Y155193D01*
G37*
%LPD*%
%LPC*%
G36*
X1226011Y143342D02*
X1226011Y143342D01*
X1224425Y143857D01*
X1222940Y144614D01*
X1221592Y145593D01*
X1220413Y146772D01*
X1219434Y148120D01*
X1218677Y149605D01*
X1218162Y151191D01*
X1218011Y152147D01*
X1226967Y152147D01*
X1226967Y143191D01*
X1226011Y143342D01*
G37*
%LPD*%
%LPC*%
G36*
X1251203Y18033D02*
X1251203Y18033D01*
X1251203Y26163D01*
X1253678Y26163D01*
X1259333Y20508D01*
X1259333Y18033D01*
X1251203Y18033D01*
G37*
%LPD*%
%LPC*%
G36*
X1177137Y177190D02*
X1177137Y177190D01*
X1177137Y185319D01*
X1179612Y185319D01*
X1185266Y179665D01*
X1185266Y177190D01*
X1177137Y177190D01*
G37*
%LPD*%
%LPC*%
G36*
X1286763Y19303D02*
X1286763Y19303D01*
X1286763Y27433D01*
X1289238Y27433D01*
X1294893Y21778D01*
X1294893Y19303D01*
X1286763Y19303D01*
G37*
%LPD*%
%LPC*%
G36*
X598423Y44703D02*
X598423Y44703D01*
X598423Y52833D01*
X600898Y52833D01*
X606553Y47178D01*
X606553Y44703D01*
X598423Y44703D01*
G37*
%LPD*%
%LPC*%
G36*
X472693Y167893D02*
X472693Y167893D01*
X472693Y176023D01*
X475168Y176023D01*
X480823Y170368D01*
X480823Y167893D01*
X472693Y167893D01*
G37*
%LPD*%
%LPC*%
G36*
X587247Y44703D02*
X587247Y44703D01*
X587247Y47178D01*
X592902Y52833D01*
X595377Y52833D01*
X595377Y44703D01*
X587247Y44703D01*
G37*
%LPD*%
%LPC*%
G36*
X461517Y167893D02*
X461517Y167893D01*
X461517Y170368D01*
X467172Y176023D01*
X469647Y176023D01*
X469647Y167893D01*
X461517Y167893D01*
G37*
%LPD*%
%LPC*%
G36*
X1177137Y166014D02*
X1177137Y166014D01*
X1177137Y174143D01*
X1185266Y174143D01*
X1185266Y171668D01*
X1179612Y166014D01*
X1177137Y166014D01*
G37*
%LPD*%
%LPC*%
G36*
X1251203Y6857D02*
X1251203Y6857D01*
X1251203Y14987D01*
X1259333Y14987D01*
X1259333Y12512D01*
X1253678Y6857D01*
X1251203Y6857D01*
G37*
%LPD*%
%LPC*%
G36*
X472693Y156717D02*
X472693Y156717D01*
X472693Y164847D01*
X480823Y164847D01*
X480823Y162372D01*
X475168Y156717D01*
X472693Y156717D01*
G37*
%LPD*%
%LPC*%
G36*
X1240027Y18033D02*
X1240027Y18033D01*
X1240027Y20508D01*
X1245682Y26163D01*
X1248157Y26163D01*
X1248157Y18033D01*
X1240027Y18033D01*
G37*
%LPD*%
%LPC*%
G36*
X1275587Y19303D02*
X1275587Y19303D01*
X1275587Y21778D01*
X1281242Y27433D01*
X1283717Y27433D01*
X1283717Y19303D01*
X1275587Y19303D01*
G37*
%LPD*%
%LPC*%
G36*
X1286763Y8127D02*
X1286763Y8127D01*
X1286763Y16257D01*
X1294893Y16257D01*
X1294893Y13782D01*
X1289238Y8127D01*
X1286763Y8127D01*
G37*
%LPD*%
%LPC*%
G36*
X598423Y33527D02*
X598423Y33527D01*
X598423Y41657D01*
X606553Y41657D01*
X606553Y39182D01*
X600898Y33527D01*
X598423Y33527D01*
G37*
%LPD*%
%LPC*%
G36*
X1165961Y177190D02*
X1165961Y177190D01*
X1165961Y179665D01*
X1171615Y185319D01*
X1174090Y185319D01*
X1174090Y177190D01*
X1165961Y177190D01*
G37*
%LPD*%
%LPC*%
G36*
X592902Y33527D02*
X592902Y33527D01*
X587247Y39182D01*
X587247Y41657D01*
X595377Y41657D01*
X595377Y33527D01*
X592902Y33527D01*
G37*
%LPD*%
%LPC*%
G36*
X467172Y156717D02*
X467172Y156717D01*
X461517Y162372D01*
X461517Y164847D01*
X469647Y164847D01*
X469647Y156717D01*
X467172Y156717D01*
G37*
%LPD*%
%LPC*%
G36*
X1171615Y166014D02*
X1171615Y166014D01*
X1165961Y171668D01*
X1165961Y174143D01*
X1174090Y174143D01*
X1174090Y166014D01*
X1171615Y166014D01*
G37*
%LPD*%
%LPC*%
G36*
X1281242Y8127D02*
X1281242Y8127D01*
X1275587Y13782D01*
X1275587Y16257D01*
X1283717Y16257D01*
X1283717Y8127D01*
X1281242Y8127D01*
G37*
%LPD*%
%LPC*%
G36*
X1245682Y6857D02*
X1245682Y6857D01*
X1240027Y12512D01*
X1240027Y14987D01*
X1248157Y14987D01*
X1248157Y6857D01*
X1245682Y6857D01*
G37*
%LPD*%
%LPC*%
G36*
X446531Y118363D02*
X446531Y118363D01*
X446531Y126372D01*
X447268Y126255D01*
X448713Y125786D01*
X450067Y125096D01*
X451296Y124203D01*
X452371Y123128D01*
X453264Y121899D01*
X453954Y120545D01*
X454423Y119100D01*
X454540Y118363D01*
X446531Y118363D01*
G37*
%LPD*%
%LPC*%
G36*
X1219453Y53593D02*
X1219453Y53593D01*
X1219453Y61602D01*
X1220190Y61485D01*
X1221635Y61016D01*
X1222989Y60326D01*
X1224218Y59433D01*
X1225293Y58358D01*
X1226186Y57129D01*
X1226876Y55775D01*
X1227345Y54330D01*
X1227462Y53593D01*
X1219453Y53593D01*
G37*
%LPD*%
%LPC*%
G36*
X1219453Y50547D02*
X1219453Y50547D01*
X1227462Y50547D01*
X1227345Y49810D01*
X1226876Y48365D01*
X1226186Y47011D01*
X1225293Y45782D01*
X1224218Y44707D01*
X1222989Y43814D01*
X1221635Y43124D01*
X1220190Y42655D01*
X1219453Y42538D01*
X1219453Y50547D01*
G37*
%LPD*%
%LPC*%
G36*
X435476Y118363D02*
X435476Y118363D01*
X435593Y119100D01*
X436062Y120545D01*
X436752Y121899D01*
X437645Y123128D01*
X438720Y124203D01*
X439949Y125096D01*
X441303Y125786D01*
X442748Y126255D01*
X443485Y126372D01*
X443485Y118363D01*
X435476Y118363D01*
G37*
%LPD*%
%LPC*%
G36*
X446531Y115317D02*
X446531Y115317D01*
X454540Y115317D01*
X454423Y114580D01*
X453954Y113135D01*
X453264Y111781D01*
X452371Y110552D01*
X451296Y109477D01*
X450067Y108584D01*
X448713Y107894D01*
X447268Y107425D01*
X446531Y107308D01*
X446531Y115317D01*
G37*
%LPD*%
%LPC*%
G36*
X1208398Y104393D02*
X1208398Y104393D01*
X1208515Y105130D01*
X1208984Y106575D01*
X1209674Y107929D01*
X1210567Y109158D01*
X1211642Y110233D01*
X1212871Y111126D01*
X1214225Y111816D01*
X1215670Y112285D01*
X1216407Y112402D01*
X1216407Y104393D01*
X1208398Y104393D01*
G37*
%LPD*%
%LPC*%
G36*
X1208398Y53593D02*
X1208398Y53593D01*
X1208515Y54330D01*
X1208984Y55775D01*
X1209674Y57129D01*
X1210567Y58358D01*
X1211642Y59433D01*
X1212871Y60326D01*
X1214225Y61016D01*
X1215670Y61485D01*
X1216407Y61602D01*
X1216407Y53593D01*
X1208398Y53593D01*
G37*
%LPD*%
%LPC*%
G36*
X1215670Y42655D02*
X1215670Y42655D01*
X1214225Y43124D01*
X1212871Y43814D01*
X1211642Y44707D01*
X1210567Y45782D01*
X1209674Y47011D01*
X1208984Y48365D01*
X1208515Y49810D01*
X1208398Y50547D01*
X1216407Y50547D01*
X1216407Y42538D01*
X1215670Y42655D01*
G37*
%LPD*%
%LPC*%
G36*
X442748Y107425D02*
X442748Y107425D01*
X441303Y107894D01*
X439949Y108584D01*
X438720Y109477D01*
X437645Y110552D01*
X436752Y111781D01*
X436062Y113135D01*
X435593Y114580D01*
X435476Y115317D01*
X443485Y115317D01*
X443485Y107308D01*
X442748Y107425D01*
G37*
%LPD*%
%LPC*%
G36*
X1215670Y93455D02*
X1215670Y93455D01*
X1214225Y93924D01*
X1212871Y94614D01*
X1211642Y95507D01*
X1210567Y96582D01*
X1209674Y97811D01*
X1208984Y99165D01*
X1208515Y100610D01*
X1208398Y101347D01*
X1216407Y101347D01*
X1216407Y93338D01*
X1215670Y93455D01*
G37*
%LPD*%
%LPC*%
G36*
X1217929Y52069D02*
X1217929Y52069D01*
X1217929Y52071D01*
X1217931Y52071D01*
X1217931Y52069D01*
X1217929Y52069D01*
G37*
%LPD*%
%LPC*%
G36*
X1056639Y123189D02*
X1056639Y123189D01*
X1056639Y123191D01*
X1056641Y123191D01*
X1056641Y123189D01*
X1056639Y123189D01*
G37*
%LPD*%
%LPC*%
G36*
X1228489Y153669D02*
X1228489Y153669D01*
X1228489Y153671D01*
X1228491Y153671D01*
X1228491Y153669D01*
X1228489Y153669D01*
G37*
%LPD*%
%LPC*%
G36*
X596899Y43179D02*
X596899Y43179D01*
X596899Y43181D01*
X596901Y43181D01*
X596901Y43179D01*
X596899Y43179D01*
G37*
%LPD*%
%LPC*%
G36*
X538479Y163829D02*
X538479Y163829D01*
X538479Y163831D01*
X538481Y163831D01*
X538481Y163829D01*
X538479Y163829D01*
G37*
%LPD*%
%LPC*%
G36*
X471169Y166369D02*
X471169Y166369D01*
X471169Y166371D01*
X471171Y166371D01*
X471171Y166369D01*
X471169Y166369D01*
G37*
%LPD*%
%LPC*%
G36*
X1086009Y30479D02*
X1086009Y30479D01*
X1086009Y30481D01*
X1086011Y30481D01*
X1086011Y30479D01*
X1086009Y30479D01*
G37*
%LPD*%
%LPC*%
G36*
X1014889Y30479D02*
X1014889Y30479D01*
X1014889Y30481D01*
X1014891Y30481D01*
X1014891Y30479D01*
X1014889Y30479D01*
G37*
%LPD*%
%LPC*%
G36*
X158300Y29666D02*
X158300Y29666D01*
X158300Y29668D01*
X158301Y29668D01*
X158301Y29666D01*
X158300Y29666D01*
G37*
%LPD*%
%LPC*%
G36*
X376079Y29209D02*
X376079Y29209D01*
X376079Y29211D01*
X376081Y29211D01*
X376081Y29209D01*
X376079Y29209D01*
G37*
%LPD*%
%LPC*%
G36*
X957579Y100329D02*
X957579Y100329D01*
X957579Y100331D01*
X957581Y100331D01*
X957581Y100329D01*
X957579Y100329D01*
G37*
%LPD*%
%LPC*%
G36*
X445007Y116839D02*
X445007Y116839D01*
X445007Y116841D01*
X445009Y116841D01*
X445009Y116839D01*
X445007Y116839D01*
G37*
%LPD*%
%LPC*%
G36*
X1175613Y175665D02*
X1175613Y175665D01*
X1175613Y175667D01*
X1175614Y175667D01*
X1175614Y175665D01*
X1175613Y175665D01*
G37*
%LPD*%
%LPC*%
G36*
X95300Y104139D02*
X95300Y104139D01*
X95300Y104141D01*
X95302Y104141D01*
X95302Y104139D01*
X95300Y104139D01*
G37*
%LPD*%
%LPC*%
G36*
X1285239Y17779D02*
X1285239Y17779D01*
X1285239Y17781D01*
X1285241Y17781D01*
X1285241Y17779D01*
X1285239Y17779D01*
G37*
%LPD*%
%LPC*%
G36*
X1249679Y16509D02*
X1249679Y16509D01*
X1249679Y16511D01*
X1249681Y16511D01*
X1249681Y16509D01*
X1249679Y16509D01*
G37*
%LPD*%
D10*
X1027430Y176530D03*
X1078230Y176530D03*
X1124814Y175666D03*
X1175614Y175666D03*
D11*
X957580Y100330D03*
D12*
X982980Y100330D03*
D13*
X538480Y163830D03*
D14*
X563880Y163830D03*
D15*
X596900Y43180D03*
X596900Y93980D03*
D16*
X1056640Y123190D03*
D14*
X1056640Y87630D03*
D11*
X877875Y96520D03*
D12*
X903275Y96520D03*
D17*
X521208Y116840D03*
X495808Y116840D03*
X495808Y40640D03*
X521208Y40640D03*
X470408Y116840D03*
X445008Y116840D03*
X470408Y40640D03*
X445008Y40640D03*
X1217930Y26670D03*
X1217930Y52070D03*
X1141730Y52070D03*
X1141730Y26670D03*
X1217930Y77470D03*
X1217930Y102870D03*
X1141730Y77470D03*
X1141730Y102870D03*
D18*
X95301Y97028D02*
X95301Y111252D01*
X69901Y111252D02*
X69901Y97028D01*
X69901Y35052D02*
X69901Y20828D01*
X95301Y20828D02*
X95301Y35052D01*
X44501Y97028D02*
X44501Y111252D01*
X19101Y111252D02*
X19101Y97028D01*
X44501Y35052D02*
X44501Y20828D01*
X19101Y20828D02*
X19101Y35052D01*
X715010Y99568D02*
X715010Y113792D01*
X689610Y113792D02*
X689610Y99568D01*
X689610Y37592D02*
X689610Y23368D01*
X715010Y23368D02*
X715010Y37592D01*
X664210Y99568D02*
X664210Y113792D01*
X638810Y113792D02*
X638810Y99568D01*
X664210Y37592D02*
X664210Y23368D01*
X638810Y23368D02*
X638810Y37592D01*
D19*
X182880Y162052D02*
X182880Y178308D01*
X208280Y178308D02*
X208280Y162052D01*
D20*
X29610Y153670D03*
X54610Y153670D03*
X79610Y153670D03*
X329330Y153670D03*
X354330Y153670D03*
X379330Y153670D03*
D10*
X128270Y83820D03*
X229870Y83820D03*
D21*
X755650Y118110D03*
X755650Y16510D03*
X793750Y119380D03*
X793750Y17780D03*
X560070Y120650D03*
X560070Y19050D03*
D15*
X1285240Y17780D03*
X1285240Y119380D03*
D22*
X363220Y83820D03*
X261620Y83820D03*
D15*
X1249680Y16510D03*
X1249680Y118110D03*
D21*
X833120Y119380D03*
X833120Y17780D03*
D10*
X261620Y116840D03*
X363220Y116840D03*
X128270Y116840D03*
X229870Y116840D03*
D20*
X629050Y153670D03*
X654050Y153670D03*
X679050Y153670D03*
D22*
X471170Y166370D03*
X458470Y147320D03*
X445770Y166370D03*
D20*
X928770Y153670D03*
X953770Y153670D03*
X978770Y153670D03*
X1228490Y153670D03*
X1253490Y153670D03*
X1278490Y153670D03*
D23*
X158300Y29667D03*
D24*
X178300Y29667D03*
D23*
X304249Y29312D03*
D24*
X324249Y29312D03*
D23*
X944938Y29667D03*
D24*
X964938Y29667D03*
D23*
X874784Y30023D03*
D24*
X894784Y30023D03*
D23*
X376080Y29210D03*
D24*
X396080Y29210D03*
D23*
X1014890Y30480D03*
D24*
X1034890Y30480D03*
D23*
X1086010Y30480D03*
D24*
X1106010Y30480D03*
D23*
X231300Y29210D03*
D24*
X251300Y29210D03*
D25*
X453390Y142240D02*
X458470Y147320D01*
X453390Y142240D02*
X250190Y142240D01*
X229870Y121920D02*
X229870Y116840D01*
X229870Y121920D02*
X250190Y142240D01*
X37694Y8026D02*
X624840Y8026D01*
X624840Y82550D01*
X31750Y91491D02*
X19101Y104140D01*
X31750Y91491D02*
X31750Y13970D01*
X37694Y8026D01*
X624840Y82550D02*
X638810Y82550D01*
X624840Y82550D02*
X364490Y82550D01*
X363220Y83820D01*
X638810Y82550D02*
X638810Y106680D01*
X654050Y153670D02*
X679050Y153670D01*
X690480Y153670D02*
X702310Y141840D01*
X690480Y153670D02*
X679050Y153670D01*
X702310Y141840D02*
X702310Y54610D01*
X702310Y43180D01*
X689610Y30480D01*
X756920Y54610D02*
X793750Y17780D01*
X756920Y54610D02*
X702310Y54610D01*
X750570Y11430D02*
X755650Y16510D01*
X750570Y11430D02*
X676910Y11430D01*
X676910Y93980D02*
X689610Y106680D01*
X676910Y93980D02*
X676910Y29210D01*
X676910Y11430D01*
X675640Y30480D02*
X664210Y30480D01*
X675640Y30480D02*
X676910Y29210D01*
X69901Y53340D02*
X69901Y104140D01*
X69901Y53340D02*
X44501Y27940D01*
X69901Y104140D02*
X69901Y113030D01*
X154991Y198120D01*
X529590Y198120D02*
X563880Y163830D01*
X529590Y198120D02*
X154991Y198120D01*
X563880Y163830D02*
X563880Y124460D01*
X560070Y120650D01*
X629050Y153670D02*
X641750Y166370D01*
X695960Y166370D01*
X744220Y118110D01*
X755650Y118110D01*
X1229360Y132080D02*
X1253490Y132080D01*
X1229360Y132080D02*
X1229360Y88900D01*
X1217930Y77470D01*
X1272540Y132080D02*
X1285240Y119380D01*
X1272540Y132080D02*
X1253490Y132080D01*
X1253490Y153670D01*
X1028700Y130810D02*
X805180Y130810D01*
X793750Y119380D01*
X1056640Y101600D02*
X1117600Y101600D01*
X1056640Y101600D02*
X1056640Y87630D01*
X1117600Y101600D02*
X1141730Y77470D01*
X109271Y13970D02*
X95301Y27940D01*
X495808Y40640D02*
X495808Y13970D01*
X1056640Y87630D02*
X1056640Y102870D01*
X1028700Y130810D01*
X495808Y13970D02*
X251460Y13970D01*
X109271Y13970D01*
X251300Y29210D02*
X251300Y83406D01*
X251300Y29210D02*
X251300Y14130D01*
X251460Y13970D01*
X251300Y83406D02*
X250886Y83820D01*
X229870Y83820D01*
X251300Y83406D02*
X251714Y83820D01*
X261620Y83820D01*
X1022350Y60960D02*
X1137886Y60960D01*
X1022350Y60960D02*
X982980Y100330D01*
X1137886Y60960D02*
X1141730Y52070D01*
X894784Y30023D02*
X894784Y79611D01*
X877875Y96520D01*
X833120Y17780D02*
X834390Y16510D01*
X929640Y16510D01*
X942797Y29667D01*
X944938Y29667D01*
X964938Y29667D02*
X978096Y16510D01*
X1023620Y16510D01*
X1034890Y27780D01*
X1034890Y30480D01*
X181610Y29667D02*
X178300Y29667D01*
X181610Y29667D02*
X230843Y29667D01*
X231300Y29210D01*
X182880Y30937D02*
X182880Y170180D01*
X182880Y30937D02*
X181610Y29667D01*
X54610Y153670D02*
X29610Y153670D01*
X112268Y83820D02*
X128270Y83820D01*
X291484Y191516D02*
X329330Y153670D01*
X291484Y191516D02*
X165100Y191516D01*
X112268Y138684D01*
X112268Y83820D01*
X112268Y70307D02*
X69901Y27940D01*
X112268Y70307D02*
X112268Y83820D01*
M02*
