G04 EAGLE Gerber RS-274X export*
G75*
%MOMM*%
%FSLAX34Y34*%
%LPD*%
%INSilkscreen Bottom*%
%IPPOS*%
%AMOC8*
5,1,8,0,0,1.08239X$1,22.5*%
G01*
%ADD10C,0.127000*%


D10*
X431165Y21209D02*
X431165Y8297D01*
X431163Y8198D01*
X431157Y8099D01*
X431148Y8001D01*
X431135Y7903D01*
X431118Y7805D01*
X431097Y7709D01*
X431073Y7613D01*
X431045Y7518D01*
X431013Y7424D01*
X430978Y7332D01*
X430939Y7241D01*
X430897Y7151D01*
X430851Y7064D01*
X430802Y6978D01*
X430750Y6894D01*
X430695Y6812D01*
X430636Y6732D01*
X430575Y6654D01*
X430511Y6579D01*
X430443Y6507D01*
X430373Y6437D01*
X430301Y6369D01*
X430226Y6305D01*
X430148Y6244D01*
X430068Y6185D01*
X429986Y6130D01*
X429902Y6078D01*
X429816Y6029D01*
X429729Y5983D01*
X429639Y5941D01*
X429548Y5902D01*
X429456Y5867D01*
X429362Y5835D01*
X429267Y5807D01*
X429171Y5783D01*
X429075Y5762D01*
X428977Y5745D01*
X428879Y5732D01*
X428781Y5723D01*
X428682Y5717D01*
X428583Y5715D01*
X423466Y9158D02*
X423466Y12601D01*
X423465Y12601D02*
X423463Y12717D01*
X423457Y12833D01*
X423447Y12949D01*
X423434Y13065D01*
X423416Y13180D01*
X423395Y13294D01*
X423369Y13408D01*
X423340Y13520D01*
X423307Y13632D01*
X423270Y13742D01*
X423230Y13851D01*
X423186Y13959D01*
X423138Y14065D01*
X423087Y14169D01*
X423032Y14272D01*
X422974Y14373D01*
X422913Y14471D01*
X422848Y14568D01*
X422780Y14662D01*
X422709Y14754D01*
X422634Y14844D01*
X422557Y14931D01*
X422477Y15015D01*
X422394Y15096D01*
X422308Y15175D01*
X422220Y15251D01*
X422129Y15324D01*
X422036Y15393D01*
X421941Y15460D01*
X421843Y15523D01*
X421744Y15583D01*
X421642Y15639D01*
X421538Y15692D01*
X421433Y15742D01*
X421326Y15787D01*
X421218Y15830D01*
X421108Y15868D01*
X420997Y15903D01*
X420885Y15934D01*
X420772Y15961D01*
X420658Y15985D01*
X420543Y16004D01*
X420428Y16020D01*
X420312Y16032D01*
X420196Y16040D01*
X420080Y16044D01*
X419964Y16044D01*
X419848Y16040D01*
X419732Y16032D01*
X419616Y16020D01*
X419501Y16004D01*
X419386Y15985D01*
X419272Y15961D01*
X419159Y15934D01*
X419047Y15903D01*
X418936Y15868D01*
X418826Y15830D01*
X418718Y15787D01*
X418611Y15742D01*
X418506Y15692D01*
X418402Y15639D01*
X418301Y15583D01*
X418201Y15523D01*
X418103Y15460D01*
X418008Y15393D01*
X417915Y15324D01*
X417824Y15251D01*
X417736Y15175D01*
X417650Y15096D01*
X417567Y15015D01*
X417487Y14931D01*
X417410Y14844D01*
X417335Y14754D01*
X417264Y14662D01*
X417196Y14568D01*
X417131Y14471D01*
X417070Y14373D01*
X417012Y14272D01*
X416957Y14169D01*
X416906Y14065D01*
X416858Y13959D01*
X416814Y13851D01*
X416774Y13742D01*
X416737Y13632D01*
X416704Y13520D01*
X416675Y13408D01*
X416649Y13294D01*
X416628Y13180D01*
X416610Y13065D01*
X416597Y12949D01*
X416587Y12833D01*
X416581Y12717D01*
X416579Y12601D01*
X416579Y9158D01*
X416581Y9042D01*
X416587Y8926D01*
X416597Y8810D01*
X416610Y8694D01*
X416628Y8579D01*
X416649Y8465D01*
X416675Y8351D01*
X416704Y8239D01*
X416737Y8127D01*
X416774Y8017D01*
X416814Y7908D01*
X416858Y7800D01*
X416906Y7694D01*
X416957Y7590D01*
X417012Y7487D01*
X417070Y7386D01*
X417131Y7288D01*
X417196Y7191D01*
X417264Y7097D01*
X417335Y7005D01*
X417410Y6915D01*
X417487Y6828D01*
X417567Y6744D01*
X417650Y6663D01*
X417736Y6584D01*
X417824Y6508D01*
X417915Y6435D01*
X418008Y6366D01*
X418103Y6299D01*
X418201Y6236D01*
X418301Y6176D01*
X418402Y6120D01*
X418506Y6067D01*
X418611Y6017D01*
X418718Y5972D01*
X418826Y5929D01*
X418936Y5891D01*
X419047Y5856D01*
X419159Y5825D01*
X419272Y5798D01*
X419386Y5774D01*
X419501Y5755D01*
X419616Y5739D01*
X419732Y5727D01*
X419848Y5719D01*
X419964Y5715D01*
X420080Y5715D01*
X420196Y5719D01*
X420312Y5727D01*
X420428Y5739D01*
X420543Y5755D01*
X420658Y5774D01*
X420772Y5798D01*
X420885Y5825D01*
X420997Y5856D01*
X421108Y5891D01*
X421218Y5929D01*
X421326Y5972D01*
X421433Y6017D01*
X421538Y6067D01*
X421642Y6120D01*
X421744Y6176D01*
X421843Y6236D01*
X421941Y6299D01*
X422036Y6366D01*
X422129Y6435D01*
X422220Y6508D01*
X422308Y6584D01*
X422394Y6663D01*
X422477Y6744D01*
X422557Y6828D01*
X422634Y6915D01*
X422709Y7005D01*
X422780Y7097D01*
X422848Y7191D01*
X422913Y7288D01*
X422974Y7386D01*
X423032Y7487D01*
X423087Y7590D01*
X423138Y7694D01*
X423186Y7800D01*
X423230Y7908D01*
X423270Y8017D01*
X423307Y8127D01*
X423340Y8239D01*
X423369Y8351D01*
X423395Y8465D01*
X423416Y8579D01*
X423434Y8694D01*
X423447Y8810D01*
X423457Y8926D01*
X423463Y9042D01*
X423465Y9158D01*
X410086Y5715D02*
X410086Y16044D01*
X405782Y16044D01*
X405681Y16042D01*
X405579Y16036D01*
X405479Y16026D01*
X405378Y16012D01*
X405278Y15994D01*
X405179Y15973D01*
X405081Y15947D01*
X404984Y15918D01*
X404888Y15884D01*
X404794Y15847D01*
X404701Y15807D01*
X404610Y15763D01*
X404520Y15715D01*
X404433Y15664D01*
X404348Y15609D01*
X404264Y15551D01*
X404184Y15490D01*
X404105Y15425D01*
X404029Y15358D01*
X403956Y15288D01*
X403886Y15215D01*
X403819Y15139D01*
X403754Y15061D01*
X403693Y14980D01*
X403635Y14897D01*
X403581Y14811D01*
X403529Y14724D01*
X403481Y14634D01*
X403437Y14543D01*
X403397Y14450D01*
X403360Y14356D01*
X403326Y14260D01*
X403297Y14163D01*
X403271Y14065D01*
X403250Y13966D01*
X403232Y13866D01*
X403218Y13766D01*
X403208Y13665D01*
X403202Y13563D01*
X403200Y13462D01*
X403200Y5715D01*
X394125Y5715D02*
X389821Y5715D01*
X394125Y5715D02*
X394224Y5717D01*
X394323Y5723D01*
X394421Y5732D01*
X394519Y5745D01*
X394617Y5762D01*
X394713Y5783D01*
X394809Y5807D01*
X394904Y5835D01*
X394998Y5867D01*
X395090Y5902D01*
X395181Y5941D01*
X395271Y5983D01*
X395358Y6029D01*
X395444Y6078D01*
X395528Y6130D01*
X395610Y6185D01*
X395690Y6244D01*
X395768Y6305D01*
X395843Y6369D01*
X395915Y6437D01*
X395985Y6507D01*
X396053Y6579D01*
X396117Y6654D01*
X396178Y6732D01*
X396237Y6812D01*
X396292Y6894D01*
X396344Y6978D01*
X396393Y7064D01*
X396439Y7151D01*
X396481Y7241D01*
X396520Y7332D01*
X396555Y7424D01*
X396587Y7518D01*
X396615Y7613D01*
X396639Y7709D01*
X396660Y7805D01*
X396677Y7903D01*
X396690Y8001D01*
X396699Y8099D01*
X396705Y8198D01*
X396707Y8297D01*
X396707Y12601D01*
X396705Y12717D01*
X396699Y12833D01*
X396689Y12949D01*
X396676Y13065D01*
X396658Y13180D01*
X396637Y13294D01*
X396611Y13408D01*
X396582Y13520D01*
X396549Y13632D01*
X396512Y13742D01*
X396472Y13851D01*
X396428Y13959D01*
X396380Y14065D01*
X396329Y14169D01*
X396274Y14272D01*
X396216Y14373D01*
X396155Y14471D01*
X396090Y14568D01*
X396022Y14662D01*
X395951Y14754D01*
X395876Y14844D01*
X395799Y14931D01*
X395719Y15015D01*
X395636Y15096D01*
X395550Y15175D01*
X395462Y15251D01*
X395371Y15324D01*
X395278Y15393D01*
X395183Y15460D01*
X395085Y15523D01*
X394986Y15583D01*
X394884Y15639D01*
X394780Y15692D01*
X394675Y15742D01*
X394568Y15787D01*
X394460Y15830D01*
X394350Y15868D01*
X394239Y15903D01*
X394127Y15934D01*
X394014Y15961D01*
X393900Y15985D01*
X393785Y16004D01*
X393670Y16020D01*
X393554Y16032D01*
X393438Y16040D01*
X393322Y16044D01*
X393206Y16044D01*
X393090Y16040D01*
X392974Y16032D01*
X392858Y16020D01*
X392743Y16004D01*
X392628Y15985D01*
X392514Y15961D01*
X392401Y15934D01*
X392289Y15903D01*
X392178Y15868D01*
X392068Y15830D01*
X391960Y15787D01*
X391853Y15742D01*
X391748Y15692D01*
X391644Y15639D01*
X391543Y15583D01*
X391443Y15523D01*
X391345Y15460D01*
X391250Y15393D01*
X391157Y15324D01*
X391066Y15251D01*
X390978Y15175D01*
X390892Y15096D01*
X390809Y15015D01*
X390729Y14931D01*
X390652Y14844D01*
X390577Y14754D01*
X390506Y14662D01*
X390438Y14568D01*
X390373Y14471D01*
X390312Y14373D01*
X390254Y14272D01*
X390199Y14169D01*
X390148Y14065D01*
X390100Y13959D01*
X390056Y13851D01*
X390016Y13742D01*
X389979Y13632D01*
X389946Y13520D01*
X389917Y13408D01*
X389891Y13294D01*
X389870Y13180D01*
X389852Y13065D01*
X389839Y12949D01*
X389829Y12833D01*
X389823Y12717D01*
X389821Y12601D01*
X389821Y10880D01*
X396707Y10880D01*
X382532Y11740D02*
X378228Y10019D01*
X382532Y11741D02*
X382618Y11777D01*
X382703Y11818D01*
X382786Y11861D01*
X382867Y11909D01*
X382946Y11959D01*
X383023Y12013D01*
X383098Y12070D01*
X383170Y12130D01*
X383239Y12194D01*
X383306Y12260D01*
X383370Y12328D01*
X383431Y12400D01*
X383488Y12474D01*
X383543Y12550D01*
X383595Y12628D01*
X383643Y12709D01*
X383687Y12791D01*
X383729Y12876D01*
X383766Y12962D01*
X383800Y13049D01*
X383830Y13138D01*
X383857Y13228D01*
X383880Y13319D01*
X383899Y13411D01*
X383913Y13504D01*
X383925Y13597D01*
X383932Y13691D01*
X383935Y13784D01*
X383934Y13878D01*
X383929Y13972D01*
X383921Y14065D01*
X383908Y14158D01*
X383892Y14251D01*
X383871Y14342D01*
X383847Y14433D01*
X383819Y14523D01*
X383787Y14611D01*
X383752Y14698D01*
X383713Y14783D01*
X383671Y14867D01*
X383624Y14949D01*
X383575Y15028D01*
X383522Y15106D01*
X383466Y15181D01*
X383407Y15254D01*
X383345Y15325D01*
X383280Y15392D01*
X383212Y15457D01*
X383142Y15519D01*
X383069Y15578D01*
X382993Y15634D01*
X382916Y15687D01*
X382836Y15736D01*
X382754Y15782D01*
X382670Y15824D01*
X382585Y15863D01*
X382498Y15899D01*
X382410Y15930D01*
X382320Y15958D01*
X382229Y15982D01*
X382138Y16002D01*
X382045Y16019D01*
X381952Y16031D01*
X381859Y16040D01*
X381765Y16044D01*
X381671Y16045D01*
X381671Y16044D02*
X381436Y16038D01*
X381202Y16026D01*
X380967Y16009D01*
X380733Y15985D01*
X380500Y15957D01*
X380268Y15922D01*
X380036Y15882D01*
X379805Y15837D01*
X379576Y15786D01*
X379348Y15730D01*
X379121Y15668D01*
X378896Y15600D01*
X378672Y15527D01*
X378451Y15449D01*
X378231Y15366D01*
X378013Y15277D01*
X377798Y15183D01*
X378228Y10019D02*
X378142Y9983D01*
X378057Y9942D01*
X377974Y9899D01*
X377893Y9851D01*
X377814Y9801D01*
X377737Y9747D01*
X377662Y9690D01*
X377590Y9630D01*
X377521Y9566D01*
X377454Y9500D01*
X377390Y9432D01*
X377329Y9360D01*
X377272Y9286D01*
X377217Y9210D01*
X377165Y9132D01*
X377117Y9051D01*
X377073Y8969D01*
X377031Y8884D01*
X376994Y8798D01*
X376960Y8711D01*
X376930Y8622D01*
X376903Y8532D01*
X376880Y8441D01*
X376861Y8349D01*
X376847Y8256D01*
X376835Y8163D01*
X376828Y8069D01*
X376825Y7976D01*
X376826Y7882D01*
X376831Y7788D01*
X376839Y7695D01*
X376852Y7602D01*
X376868Y7509D01*
X376889Y7418D01*
X376913Y7327D01*
X376941Y7237D01*
X376973Y7149D01*
X377008Y7062D01*
X377047Y6977D01*
X377089Y6893D01*
X377136Y6811D01*
X377185Y6732D01*
X377238Y6654D01*
X377294Y6579D01*
X377353Y6506D01*
X377415Y6435D01*
X377480Y6368D01*
X377548Y6303D01*
X377618Y6241D01*
X377691Y6182D01*
X377767Y6126D01*
X377844Y6073D01*
X377924Y6024D01*
X378006Y5978D01*
X378090Y5936D01*
X378175Y5897D01*
X378262Y5861D01*
X378350Y5830D01*
X378440Y5802D01*
X378531Y5778D01*
X378622Y5758D01*
X378715Y5741D01*
X378808Y5729D01*
X378901Y5720D01*
X378995Y5716D01*
X379089Y5715D01*
X379435Y5725D01*
X379779Y5742D01*
X380124Y5767D01*
X380467Y5800D01*
X380810Y5842D01*
X381152Y5892D01*
X381492Y5949D01*
X381831Y6015D01*
X382169Y6089D01*
X382504Y6171D01*
X382837Y6260D01*
X383169Y6358D01*
X383497Y6463D01*
X383824Y6576D01*
X370940Y9158D02*
X370940Y12601D01*
X370938Y12717D01*
X370932Y12833D01*
X370922Y12949D01*
X370909Y13065D01*
X370891Y13180D01*
X370870Y13294D01*
X370844Y13408D01*
X370815Y13520D01*
X370782Y13632D01*
X370745Y13742D01*
X370705Y13851D01*
X370661Y13959D01*
X370613Y14065D01*
X370562Y14169D01*
X370507Y14272D01*
X370449Y14373D01*
X370388Y14471D01*
X370323Y14568D01*
X370255Y14662D01*
X370184Y14754D01*
X370109Y14844D01*
X370032Y14931D01*
X369952Y15015D01*
X369869Y15096D01*
X369783Y15175D01*
X369695Y15251D01*
X369604Y15324D01*
X369511Y15393D01*
X369416Y15460D01*
X369318Y15523D01*
X369219Y15583D01*
X369117Y15639D01*
X369013Y15692D01*
X368908Y15742D01*
X368801Y15787D01*
X368693Y15830D01*
X368583Y15868D01*
X368472Y15903D01*
X368360Y15934D01*
X368247Y15961D01*
X368133Y15985D01*
X368018Y16004D01*
X367903Y16020D01*
X367787Y16032D01*
X367671Y16040D01*
X367555Y16044D01*
X367439Y16044D01*
X367323Y16040D01*
X367207Y16032D01*
X367091Y16020D01*
X366976Y16004D01*
X366861Y15985D01*
X366747Y15961D01*
X366634Y15934D01*
X366522Y15903D01*
X366411Y15868D01*
X366301Y15830D01*
X366193Y15787D01*
X366086Y15742D01*
X365981Y15692D01*
X365877Y15639D01*
X365776Y15583D01*
X365676Y15523D01*
X365578Y15460D01*
X365483Y15393D01*
X365390Y15324D01*
X365299Y15251D01*
X365211Y15175D01*
X365125Y15096D01*
X365042Y15015D01*
X364962Y14931D01*
X364885Y14844D01*
X364810Y14754D01*
X364739Y14662D01*
X364671Y14568D01*
X364606Y14471D01*
X364545Y14373D01*
X364487Y14272D01*
X364432Y14169D01*
X364381Y14065D01*
X364333Y13959D01*
X364289Y13851D01*
X364249Y13742D01*
X364212Y13632D01*
X364179Y13520D01*
X364150Y13408D01*
X364124Y13294D01*
X364103Y13180D01*
X364085Y13065D01*
X364072Y12949D01*
X364062Y12833D01*
X364056Y12717D01*
X364054Y12601D01*
X364054Y9158D01*
X364056Y9042D01*
X364062Y8926D01*
X364072Y8810D01*
X364085Y8694D01*
X364103Y8579D01*
X364124Y8465D01*
X364150Y8351D01*
X364179Y8239D01*
X364212Y8127D01*
X364249Y8017D01*
X364289Y7908D01*
X364333Y7800D01*
X364381Y7694D01*
X364432Y7590D01*
X364487Y7487D01*
X364545Y7386D01*
X364606Y7288D01*
X364671Y7191D01*
X364739Y7097D01*
X364810Y7005D01*
X364885Y6915D01*
X364962Y6828D01*
X365042Y6744D01*
X365125Y6663D01*
X365211Y6584D01*
X365299Y6508D01*
X365390Y6435D01*
X365483Y6366D01*
X365578Y6299D01*
X365676Y6236D01*
X365776Y6176D01*
X365877Y6120D01*
X365981Y6067D01*
X366086Y6017D01*
X366193Y5972D01*
X366301Y5929D01*
X366411Y5891D01*
X366522Y5856D01*
X366634Y5825D01*
X366747Y5798D01*
X366861Y5774D01*
X366976Y5755D01*
X367091Y5739D01*
X367207Y5727D01*
X367323Y5719D01*
X367439Y5715D01*
X367555Y5715D01*
X367671Y5719D01*
X367787Y5727D01*
X367903Y5739D01*
X368018Y5755D01*
X368133Y5774D01*
X368247Y5798D01*
X368360Y5825D01*
X368472Y5856D01*
X368583Y5891D01*
X368693Y5929D01*
X368801Y5972D01*
X368908Y6017D01*
X369013Y6067D01*
X369117Y6120D01*
X369219Y6176D01*
X369318Y6236D01*
X369416Y6299D01*
X369511Y6366D01*
X369604Y6435D01*
X369695Y6508D01*
X369783Y6584D01*
X369869Y6663D01*
X369952Y6744D01*
X370032Y6828D01*
X370109Y6915D01*
X370184Y7005D01*
X370255Y7097D01*
X370323Y7191D01*
X370388Y7288D01*
X370449Y7386D01*
X370507Y7487D01*
X370562Y7590D01*
X370613Y7694D01*
X370661Y7800D01*
X370705Y7908D01*
X370745Y8017D01*
X370782Y8127D01*
X370815Y8239D01*
X370844Y8351D01*
X370870Y8465D01*
X370891Y8579D01*
X370909Y8694D01*
X370922Y8810D01*
X370932Y8926D01*
X370938Y9042D01*
X370940Y9158D01*
X357561Y8297D02*
X357561Y16044D01*
X357560Y8297D02*
X357558Y8198D01*
X357552Y8099D01*
X357543Y8001D01*
X357530Y7903D01*
X357513Y7805D01*
X357492Y7709D01*
X357468Y7613D01*
X357440Y7518D01*
X357408Y7424D01*
X357373Y7332D01*
X357334Y7241D01*
X357292Y7151D01*
X357246Y7064D01*
X357197Y6978D01*
X357145Y6894D01*
X357090Y6812D01*
X357031Y6732D01*
X356970Y6654D01*
X356906Y6579D01*
X356838Y6507D01*
X356768Y6437D01*
X356696Y6369D01*
X356621Y6305D01*
X356543Y6244D01*
X356463Y6185D01*
X356381Y6130D01*
X356297Y6078D01*
X356211Y6029D01*
X356124Y5983D01*
X356034Y5941D01*
X355943Y5902D01*
X355851Y5867D01*
X355757Y5835D01*
X355662Y5807D01*
X355566Y5783D01*
X355470Y5762D01*
X355372Y5745D01*
X355274Y5732D01*
X355176Y5723D01*
X355077Y5717D01*
X354978Y5715D01*
X350674Y5715D01*
X350674Y16044D01*
X343953Y21209D02*
X343953Y8297D01*
X343952Y8297D02*
X343950Y8198D01*
X343944Y8099D01*
X343935Y8001D01*
X343922Y7903D01*
X343905Y7805D01*
X343884Y7709D01*
X343860Y7613D01*
X343832Y7518D01*
X343800Y7424D01*
X343765Y7332D01*
X343726Y7241D01*
X343684Y7151D01*
X343638Y7064D01*
X343589Y6978D01*
X343537Y6894D01*
X343482Y6812D01*
X343423Y6732D01*
X343362Y6654D01*
X343298Y6579D01*
X343230Y6507D01*
X343160Y6437D01*
X343088Y6369D01*
X343013Y6305D01*
X342935Y6244D01*
X342855Y6185D01*
X342773Y6130D01*
X342689Y6078D01*
X342603Y6029D01*
X342516Y5983D01*
X342426Y5941D01*
X342335Y5902D01*
X342243Y5867D01*
X342149Y5835D01*
X342054Y5807D01*
X341958Y5783D01*
X341862Y5762D01*
X341764Y5745D01*
X341666Y5732D01*
X341568Y5723D01*
X341469Y5717D01*
X341370Y5715D01*
X334962Y11740D02*
X330658Y10019D01*
X334962Y11741D02*
X335048Y11777D01*
X335133Y11818D01*
X335216Y11861D01*
X335297Y11909D01*
X335376Y11959D01*
X335453Y12013D01*
X335528Y12070D01*
X335600Y12130D01*
X335669Y12194D01*
X335736Y12260D01*
X335800Y12328D01*
X335861Y12400D01*
X335918Y12474D01*
X335973Y12550D01*
X336025Y12628D01*
X336073Y12709D01*
X336117Y12791D01*
X336159Y12876D01*
X336196Y12962D01*
X336230Y13049D01*
X336260Y13138D01*
X336287Y13228D01*
X336310Y13319D01*
X336329Y13411D01*
X336343Y13504D01*
X336355Y13597D01*
X336362Y13691D01*
X336365Y13784D01*
X336364Y13878D01*
X336359Y13972D01*
X336351Y14065D01*
X336338Y14158D01*
X336322Y14251D01*
X336301Y14342D01*
X336277Y14433D01*
X336249Y14523D01*
X336217Y14611D01*
X336182Y14698D01*
X336143Y14783D01*
X336101Y14867D01*
X336054Y14949D01*
X336005Y15028D01*
X335952Y15106D01*
X335896Y15181D01*
X335837Y15254D01*
X335775Y15325D01*
X335710Y15392D01*
X335642Y15457D01*
X335572Y15519D01*
X335499Y15578D01*
X335423Y15634D01*
X335346Y15687D01*
X335266Y15736D01*
X335184Y15782D01*
X335100Y15824D01*
X335015Y15863D01*
X334928Y15899D01*
X334840Y15930D01*
X334750Y15958D01*
X334659Y15982D01*
X334568Y16002D01*
X334475Y16019D01*
X334382Y16031D01*
X334289Y16040D01*
X334195Y16044D01*
X334101Y16045D01*
X334101Y16044D02*
X333866Y16038D01*
X333632Y16026D01*
X333397Y16009D01*
X333163Y15985D01*
X332930Y15957D01*
X332698Y15922D01*
X332466Y15882D01*
X332235Y15837D01*
X332006Y15786D01*
X331778Y15730D01*
X331551Y15668D01*
X331326Y15600D01*
X331102Y15527D01*
X330881Y15449D01*
X330661Y15366D01*
X330443Y15277D01*
X330228Y15183D01*
X330658Y10019D02*
X330572Y9983D01*
X330487Y9942D01*
X330404Y9899D01*
X330323Y9851D01*
X330244Y9801D01*
X330167Y9747D01*
X330092Y9690D01*
X330020Y9630D01*
X329951Y9566D01*
X329884Y9500D01*
X329820Y9432D01*
X329759Y9360D01*
X329702Y9286D01*
X329647Y9210D01*
X329595Y9132D01*
X329547Y9051D01*
X329503Y8969D01*
X329461Y8884D01*
X329424Y8798D01*
X329390Y8711D01*
X329360Y8622D01*
X329333Y8532D01*
X329310Y8441D01*
X329291Y8349D01*
X329277Y8256D01*
X329265Y8163D01*
X329258Y8069D01*
X329255Y7976D01*
X329256Y7882D01*
X329261Y7788D01*
X329269Y7695D01*
X329282Y7602D01*
X329298Y7509D01*
X329319Y7418D01*
X329343Y7327D01*
X329371Y7237D01*
X329403Y7149D01*
X329438Y7062D01*
X329477Y6977D01*
X329519Y6893D01*
X329566Y6811D01*
X329615Y6732D01*
X329668Y6654D01*
X329724Y6579D01*
X329783Y6506D01*
X329845Y6435D01*
X329910Y6368D01*
X329978Y6303D01*
X330048Y6241D01*
X330121Y6182D01*
X330197Y6126D01*
X330274Y6073D01*
X330354Y6024D01*
X330436Y5978D01*
X330520Y5936D01*
X330605Y5897D01*
X330692Y5861D01*
X330780Y5830D01*
X330870Y5802D01*
X330961Y5778D01*
X331052Y5758D01*
X331145Y5741D01*
X331238Y5729D01*
X331331Y5720D01*
X331425Y5716D01*
X331519Y5715D01*
X331518Y5715D02*
X331864Y5725D01*
X332208Y5742D01*
X332553Y5767D01*
X332896Y5800D01*
X333239Y5842D01*
X333581Y5892D01*
X333921Y5949D01*
X334260Y6015D01*
X334598Y6089D01*
X334933Y6171D01*
X335266Y6260D01*
X335598Y6358D01*
X335926Y6463D01*
X336253Y6576D01*
X322874Y8297D02*
X322874Y16044D01*
X322874Y8297D02*
X322872Y8198D01*
X322866Y8099D01*
X322857Y8001D01*
X322844Y7903D01*
X322827Y7805D01*
X322806Y7709D01*
X322782Y7613D01*
X322754Y7518D01*
X322722Y7424D01*
X322687Y7332D01*
X322648Y7241D01*
X322606Y7151D01*
X322560Y7064D01*
X322511Y6978D01*
X322459Y6894D01*
X322404Y6812D01*
X322345Y6732D01*
X322284Y6654D01*
X322220Y6579D01*
X322152Y6507D01*
X322082Y6437D01*
X322010Y6369D01*
X321935Y6305D01*
X321857Y6244D01*
X321777Y6185D01*
X321695Y6130D01*
X321611Y6078D01*
X321525Y6029D01*
X321438Y5983D01*
X321348Y5941D01*
X321257Y5902D01*
X321165Y5867D01*
X321071Y5835D01*
X320976Y5807D01*
X320880Y5783D01*
X320784Y5762D01*
X320686Y5745D01*
X320588Y5732D01*
X320490Y5723D01*
X320391Y5717D01*
X320292Y5715D01*
X315988Y5715D01*
X315988Y16044D01*
X308921Y16044D02*
X308921Y5715D01*
X308921Y16044D02*
X303756Y16044D01*
X303756Y14323D01*
X298247Y18627D02*
X298247Y5715D01*
X298246Y18627D02*
X298244Y18726D01*
X298238Y18825D01*
X298229Y18923D01*
X298216Y19021D01*
X298199Y19119D01*
X298178Y19215D01*
X298154Y19311D01*
X298126Y19406D01*
X298094Y19500D01*
X298059Y19592D01*
X298020Y19683D01*
X297978Y19773D01*
X297932Y19860D01*
X297883Y19946D01*
X297831Y20030D01*
X297776Y20112D01*
X297717Y20192D01*
X297656Y20270D01*
X297592Y20345D01*
X297524Y20417D01*
X297454Y20487D01*
X297382Y20555D01*
X297307Y20619D01*
X297229Y20680D01*
X297149Y20739D01*
X297067Y20794D01*
X296983Y20846D01*
X296897Y20895D01*
X296810Y20941D01*
X296720Y20983D01*
X296629Y21022D01*
X296537Y21057D01*
X296443Y21089D01*
X296348Y21117D01*
X296252Y21141D01*
X296156Y21162D01*
X296058Y21179D01*
X295960Y21192D01*
X295862Y21201D01*
X295763Y21207D01*
X295664Y21209D01*
X294804Y21209D01*
X294804Y16044D02*
X299968Y16044D01*
X288082Y5715D02*
X283778Y5715D01*
X288082Y5715D02*
X288181Y5717D01*
X288280Y5723D01*
X288378Y5732D01*
X288476Y5745D01*
X288574Y5762D01*
X288670Y5783D01*
X288766Y5807D01*
X288861Y5835D01*
X288955Y5867D01*
X289047Y5902D01*
X289138Y5941D01*
X289228Y5983D01*
X289315Y6029D01*
X289401Y6078D01*
X289485Y6130D01*
X289567Y6185D01*
X289647Y6244D01*
X289725Y6305D01*
X289800Y6369D01*
X289872Y6437D01*
X289942Y6507D01*
X290010Y6579D01*
X290074Y6654D01*
X290135Y6732D01*
X290194Y6812D01*
X290249Y6894D01*
X290301Y6978D01*
X290350Y7064D01*
X290396Y7151D01*
X290438Y7241D01*
X290477Y7332D01*
X290512Y7424D01*
X290544Y7518D01*
X290572Y7613D01*
X290596Y7709D01*
X290617Y7805D01*
X290634Y7903D01*
X290647Y8001D01*
X290656Y8099D01*
X290662Y8198D01*
X290664Y8297D01*
X290665Y8297D02*
X290665Y12601D01*
X290663Y12717D01*
X290657Y12833D01*
X290647Y12949D01*
X290634Y13065D01*
X290616Y13180D01*
X290595Y13294D01*
X290569Y13408D01*
X290540Y13520D01*
X290507Y13632D01*
X290470Y13742D01*
X290430Y13851D01*
X290386Y13959D01*
X290338Y14065D01*
X290287Y14169D01*
X290232Y14272D01*
X290174Y14373D01*
X290113Y14471D01*
X290048Y14568D01*
X289980Y14662D01*
X289909Y14754D01*
X289834Y14844D01*
X289757Y14931D01*
X289677Y15015D01*
X289594Y15096D01*
X289508Y15175D01*
X289420Y15251D01*
X289329Y15324D01*
X289236Y15393D01*
X289141Y15460D01*
X289043Y15523D01*
X288944Y15583D01*
X288842Y15639D01*
X288738Y15692D01*
X288633Y15742D01*
X288526Y15787D01*
X288418Y15830D01*
X288308Y15868D01*
X288197Y15903D01*
X288085Y15934D01*
X287972Y15961D01*
X287858Y15985D01*
X287743Y16004D01*
X287628Y16020D01*
X287512Y16032D01*
X287396Y16040D01*
X287280Y16044D01*
X287164Y16044D01*
X287048Y16040D01*
X286932Y16032D01*
X286816Y16020D01*
X286701Y16004D01*
X286586Y15985D01*
X286472Y15961D01*
X286359Y15934D01*
X286247Y15903D01*
X286136Y15868D01*
X286026Y15830D01*
X285918Y15787D01*
X285811Y15742D01*
X285706Y15692D01*
X285602Y15639D01*
X285501Y15583D01*
X285401Y15523D01*
X285303Y15460D01*
X285208Y15393D01*
X285115Y15324D01*
X285024Y15251D01*
X284936Y15175D01*
X284850Y15096D01*
X284767Y15015D01*
X284687Y14931D01*
X284610Y14844D01*
X284535Y14754D01*
X284464Y14662D01*
X284396Y14568D01*
X284331Y14471D01*
X284270Y14373D01*
X284212Y14272D01*
X284157Y14169D01*
X284106Y14065D01*
X284058Y13959D01*
X284014Y13851D01*
X283974Y13742D01*
X283937Y13632D01*
X283904Y13520D01*
X283875Y13408D01*
X283849Y13294D01*
X283828Y13180D01*
X283810Y13065D01*
X283797Y12949D01*
X283787Y12833D01*
X283781Y12717D01*
X283779Y12601D01*
X283778Y12601D02*
X283778Y10880D01*
X290665Y10880D01*
X277207Y16044D02*
X277207Y5715D01*
X277207Y16044D02*
X272042Y16044D01*
X272042Y14323D01*
X259472Y18627D02*
X256890Y18627D01*
X259472Y18626D02*
X259571Y18624D01*
X259670Y18618D01*
X259768Y18609D01*
X259866Y18596D01*
X259964Y18579D01*
X260060Y18558D01*
X260156Y18534D01*
X260251Y18506D01*
X260345Y18474D01*
X260437Y18439D01*
X260528Y18400D01*
X260618Y18358D01*
X260705Y18312D01*
X260791Y18263D01*
X260875Y18211D01*
X260957Y18156D01*
X261037Y18097D01*
X261115Y18036D01*
X261190Y17972D01*
X261262Y17904D01*
X261332Y17834D01*
X261400Y17762D01*
X261464Y17687D01*
X261525Y17609D01*
X261584Y17529D01*
X261639Y17447D01*
X261691Y17363D01*
X261740Y17277D01*
X261786Y17190D01*
X261828Y17100D01*
X261867Y17009D01*
X261902Y16917D01*
X261934Y16823D01*
X261962Y16728D01*
X261986Y16632D01*
X262007Y16536D01*
X262024Y16438D01*
X262037Y16340D01*
X262046Y16242D01*
X262052Y16143D01*
X262054Y16044D01*
X262054Y10880D01*
X262052Y10780D01*
X262046Y10680D01*
X262037Y10580D01*
X262023Y10481D01*
X262006Y10382D01*
X261984Y10285D01*
X261959Y10188D01*
X261931Y10092D01*
X261898Y9997D01*
X261862Y9903D01*
X261823Y9812D01*
X261779Y9721D01*
X261733Y9633D01*
X261683Y9546D01*
X261629Y9461D01*
X261573Y9379D01*
X261513Y9298D01*
X261450Y9220D01*
X261384Y9145D01*
X261315Y9072D01*
X261244Y9002D01*
X261170Y8935D01*
X261093Y8870D01*
X261014Y8809D01*
X260932Y8751D01*
X260849Y8696D01*
X260763Y8644D01*
X260675Y8596D01*
X260586Y8551D01*
X260495Y8509D01*
X260402Y8471D01*
X260308Y8437D01*
X260213Y8406D01*
X260116Y8380D01*
X260019Y8357D01*
X259920Y8337D01*
X259821Y8322D01*
X259722Y8310D01*
X259622Y8302D01*
X259522Y8298D01*
X259422Y8298D01*
X259322Y8302D01*
X259222Y8310D01*
X259123Y8322D01*
X259024Y8337D01*
X258925Y8357D01*
X258828Y8380D01*
X258731Y8406D01*
X258636Y8437D01*
X258542Y8471D01*
X258449Y8509D01*
X258358Y8551D01*
X258269Y8596D01*
X258181Y8644D01*
X258095Y8696D01*
X258012Y8751D01*
X257930Y8809D01*
X257851Y8870D01*
X257774Y8935D01*
X257700Y9002D01*
X257629Y9072D01*
X257560Y9145D01*
X257494Y9220D01*
X257431Y9298D01*
X257371Y9379D01*
X257315Y9461D01*
X257261Y9546D01*
X257211Y9633D01*
X257165Y9721D01*
X257121Y9812D01*
X257082Y9903D01*
X257046Y9997D01*
X257013Y10092D01*
X256985Y10188D01*
X256960Y10285D01*
X256938Y10382D01*
X256921Y10481D01*
X256907Y10580D01*
X256898Y10680D01*
X256892Y10780D01*
X256890Y10880D01*
X256890Y10449D02*
X256890Y18627D01*
X256890Y10449D02*
X256888Y10358D01*
X256882Y10266D01*
X256873Y10176D01*
X256859Y10085D01*
X256842Y9996D01*
X256821Y9907D01*
X256796Y9819D01*
X256767Y9732D01*
X256735Y9647D01*
X256699Y9563D01*
X256660Y9480D01*
X256617Y9399D01*
X256570Y9321D01*
X256521Y9244D01*
X256468Y9169D01*
X256412Y9097D01*
X256353Y9027D01*
X256292Y8960D01*
X256227Y8895D01*
X256160Y8834D01*
X256090Y8775D01*
X256018Y8719D01*
X255943Y8666D01*
X255866Y8617D01*
X255788Y8570D01*
X255707Y8527D01*
X255624Y8488D01*
X255540Y8452D01*
X255455Y8420D01*
X255368Y8391D01*
X255280Y8366D01*
X255191Y8345D01*
X255102Y8328D01*
X255011Y8314D01*
X254921Y8305D01*
X254829Y8299D01*
X254738Y8297D01*
X254647Y8299D01*
X254555Y8305D01*
X254465Y8314D01*
X254374Y8328D01*
X254285Y8345D01*
X254196Y8366D01*
X254108Y8391D01*
X254021Y8420D01*
X253936Y8452D01*
X253852Y8488D01*
X253769Y8527D01*
X253688Y8570D01*
X253610Y8617D01*
X253533Y8666D01*
X253458Y8719D01*
X253386Y8775D01*
X253316Y8834D01*
X253249Y8895D01*
X253184Y8960D01*
X253123Y9027D01*
X253064Y9097D01*
X253008Y9169D01*
X252955Y9244D01*
X252906Y9321D01*
X252859Y9399D01*
X252816Y9480D01*
X252777Y9563D01*
X252741Y9647D01*
X252709Y9732D01*
X252680Y9819D01*
X252655Y9907D01*
X252634Y9996D01*
X252617Y10085D01*
X252603Y10176D01*
X252594Y10266D01*
X252588Y10358D01*
X252586Y10449D01*
X252586Y16905D01*
X252588Y17073D01*
X252594Y17240D01*
X252604Y17408D01*
X252619Y17575D01*
X252637Y17741D01*
X252659Y17908D01*
X252686Y18073D01*
X252716Y18238D01*
X252751Y18402D01*
X252789Y18565D01*
X252832Y18728D01*
X252878Y18889D01*
X252928Y19049D01*
X252982Y19208D01*
X253040Y19365D01*
X253102Y19521D01*
X253168Y19675D01*
X253237Y19828D01*
X253310Y19979D01*
X253387Y20128D01*
X253467Y20275D01*
X253551Y20420D01*
X253638Y20564D01*
X253729Y20704D01*
X253823Y20843D01*
X253921Y20980D01*
X254022Y21114D01*
X254126Y21245D01*
X254233Y21374D01*
X254343Y21500D01*
X254457Y21624D01*
X254573Y21744D01*
X254693Y21862D01*
X254815Y21977D01*
X254940Y22089D01*
X255067Y22198D01*
X255197Y22304D01*
X255330Y22406D01*
X255465Y22505D01*
X255603Y22601D01*
X255743Y22694D01*
X255885Y22783D01*
X256029Y22868D01*
X256175Y22951D01*
X256323Y23029D01*
X256473Y23104D01*
X256625Y23175D01*
X256779Y23243D01*
X256934Y23306D01*
X257091Y23366D01*
X257249Y23422D01*
X257408Y23474D01*
X257569Y23523D01*
X257730Y23567D01*
X257893Y23608D01*
X258057Y23644D01*
X258221Y23676D01*
X258387Y23705D01*
X258552Y23729D01*
X258719Y23750D01*
X258886Y23766D01*
X259053Y23778D01*
X259221Y23786D01*
X259388Y23790D01*
X259556Y23790D01*
X259723Y23786D01*
X259891Y23778D01*
X260058Y23766D01*
X260225Y23750D01*
X260392Y23729D01*
X260557Y23705D01*
X260723Y23676D01*
X260887Y23644D01*
X261051Y23608D01*
X261214Y23567D01*
X261375Y23523D01*
X261536Y23474D01*
X261695Y23422D01*
X261853Y23366D01*
X262010Y23306D01*
X262165Y23243D01*
X262319Y23175D01*
X262471Y23104D01*
X262621Y23029D01*
X262769Y22951D01*
X262915Y22868D01*
X263059Y22783D01*
X263201Y22694D01*
X263341Y22601D01*
X263479Y22505D01*
X263614Y22406D01*
X263747Y22304D01*
X263877Y22198D01*
X264004Y22089D01*
X264129Y21977D01*
X264251Y21862D01*
X264371Y21744D01*
X264487Y21624D01*
X264601Y21500D01*
X264711Y21374D01*
X264818Y21245D01*
X264922Y21114D01*
X265023Y20980D01*
X265121Y20843D01*
X265215Y20704D01*
X265306Y20564D01*
X265393Y20420D01*
X265477Y20275D01*
X265557Y20128D01*
X265634Y19979D01*
X265707Y19828D01*
X265776Y19675D01*
X265842Y19521D01*
X265904Y19365D01*
X265962Y19208D01*
X266016Y19049D01*
X266066Y18889D01*
X266112Y18728D01*
X266155Y18565D01*
X266193Y18402D01*
X266228Y18238D01*
X266258Y18073D01*
X266285Y17908D01*
X266307Y17741D01*
X266325Y17575D01*
X266340Y17408D01*
X266350Y17240D01*
X266356Y17073D01*
X266358Y16905D01*
X266358Y9589D01*
X266356Y9430D01*
X266350Y9270D01*
X266340Y9111D01*
X266327Y8953D01*
X266309Y8794D01*
X266288Y8637D01*
X266262Y8479D01*
X266233Y8323D01*
X266200Y8167D01*
X266163Y8012D01*
X266122Y7858D01*
X266078Y7705D01*
X266029Y7553D01*
X265977Y7402D01*
X265922Y7253D01*
X265862Y7105D01*
X265799Y6959D01*
X265733Y6814D01*
X265663Y6671D01*
X265589Y6530D01*
X265512Y6390D01*
X265432Y6253D01*
X265348Y6117D01*
X265261Y5984D01*
X265170Y5853D01*
X265077Y5724D01*
X264980Y5597D01*
X264880Y5473D01*
X264777Y5351D01*
X264672Y5232D01*
X264563Y5116D01*
X264451Y5002D01*
X264337Y4891D01*
X264220Y4783D01*
X264100Y4678D01*
X263978Y4575D01*
X263854Y4476D01*
X263727Y4380D01*
X263597Y4287D01*
X263466Y4198D01*
X263332Y4111D01*
X263196Y4028D01*
X263058Y3948D01*
X262918Y3872D01*
X262776Y3799D01*
X262633Y3730D01*
X262488Y3664D01*
X262341Y3601D01*
X262193Y3543D01*
X262044Y3488D01*
X261893Y3437D01*
X261741Y3389D01*
X261587Y3345D01*
X261433Y3305D01*
X261278Y3269D01*
X261122Y3237D01*
X260965Y3208D01*
X260808Y3184D01*
X260650Y3163D01*
X260492Y3146D01*
X260333Y3133D01*
X245076Y5715D02*
X245076Y21209D01*
X245076Y16044D02*
X240772Y16044D01*
X240671Y16042D01*
X240569Y16036D01*
X240469Y16026D01*
X240368Y16012D01*
X240268Y15994D01*
X240169Y15973D01*
X240071Y15947D01*
X239974Y15918D01*
X239878Y15884D01*
X239784Y15847D01*
X239691Y15807D01*
X239600Y15763D01*
X239510Y15715D01*
X239423Y15664D01*
X239338Y15609D01*
X239254Y15551D01*
X239174Y15490D01*
X239095Y15425D01*
X239019Y15358D01*
X238946Y15288D01*
X238876Y15215D01*
X238809Y15139D01*
X238744Y15061D01*
X238683Y14980D01*
X238625Y14897D01*
X238571Y14811D01*
X238519Y14724D01*
X238471Y14634D01*
X238427Y14543D01*
X238387Y14450D01*
X238350Y14356D01*
X238316Y14260D01*
X238287Y14163D01*
X238261Y14065D01*
X238240Y13966D01*
X238222Y13866D01*
X238208Y13766D01*
X238198Y13665D01*
X238192Y13563D01*
X238190Y13462D01*
X238190Y5715D01*
X231697Y9158D02*
X231697Y12601D01*
X231695Y12717D01*
X231689Y12833D01*
X231679Y12949D01*
X231666Y13065D01*
X231648Y13180D01*
X231627Y13294D01*
X231601Y13408D01*
X231572Y13520D01*
X231539Y13632D01*
X231502Y13742D01*
X231462Y13851D01*
X231418Y13959D01*
X231370Y14065D01*
X231319Y14169D01*
X231264Y14272D01*
X231206Y14373D01*
X231145Y14471D01*
X231080Y14568D01*
X231012Y14662D01*
X230941Y14754D01*
X230866Y14844D01*
X230789Y14931D01*
X230709Y15015D01*
X230626Y15096D01*
X230540Y15175D01*
X230452Y15251D01*
X230361Y15324D01*
X230268Y15393D01*
X230173Y15460D01*
X230075Y15523D01*
X229976Y15583D01*
X229874Y15639D01*
X229770Y15692D01*
X229665Y15742D01*
X229558Y15787D01*
X229450Y15830D01*
X229340Y15868D01*
X229229Y15903D01*
X229117Y15934D01*
X229004Y15961D01*
X228890Y15985D01*
X228775Y16004D01*
X228660Y16020D01*
X228544Y16032D01*
X228428Y16040D01*
X228312Y16044D01*
X228196Y16044D01*
X228080Y16040D01*
X227964Y16032D01*
X227848Y16020D01*
X227733Y16004D01*
X227618Y15985D01*
X227504Y15961D01*
X227391Y15934D01*
X227279Y15903D01*
X227168Y15868D01*
X227058Y15830D01*
X226950Y15787D01*
X226843Y15742D01*
X226738Y15692D01*
X226634Y15639D01*
X226533Y15583D01*
X226433Y15523D01*
X226335Y15460D01*
X226240Y15393D01*
X226147Y15324D01*
X226056Y15251D01*
X225968Y15175D01*
X225882Y15096D01*
X225799Y15015D01*
X225719Y14931D01*
X225642Y14844D01*
X225567Y14754D01*
X225496Y14662D01*
X225428Y14568D01*
X225363Y14471D01*
X225302Y14373D01*
X225244Y14272D01*
X225189Y14169D01*
X225138Y14065D01*
X225090Y13959D01*
X225046Y13851D01*
X225006Y13742D01*
X224969Y13632D01*
X224936Y13520D01*
X224907Y13408D01*
X224881Y13294D01*
X224860Y13180D01*
X224842Y13065D01*
X224829Y12949D01*
X224819Y12833D01*
X224813Y12717D01*
X224811Y12601D01*
X224811Y9158D01*
X224813Y9042D01*
X224819Y8926D01*
X224829Y8810D01*
X224842Y8694D01*
X224860Y8579D01*
X224881Y8465D01*
X224907Y8351D01*
X224936Y8239D01*
X224969Y8127D01*
X225006Y8017D01*
X225046Y7908D01*
X225090Y7800D01*
X225138Y7694D01*
X225189Y7590D01*
X225244Y7487D01*
X225302Y7386D01*
X225363Y7288D01*
X225428Y7191D01*
X225496Y7097D01*
X225567Y7005D01*
X225642Y6915D01*
X225719Y6828D01*
X225799Y6744D01*
X225882Y6663D01*
X225968Y6584D01*
X226056Y6508D01*
X226147Y6435D01*
X226240Y6366D01*
X226335Y6299D01*
X226433Y6236D01*
X226533Y6176D01*
X226634Y6120D01*
X226738Y6067D01*
X226843Y6017D01*
X226950Y5972D01*
X227058Y5929D01*
X227168Y5891D01*
X227279Y5856D01*
X227391Y5825D01*
X227504Y5798D01*
X227618Y5774D01*
X227733Y5755D01*
X227848Y5739D01*
X227964Y5727D01*
X228080Y5719D01*
X228196Y5715D01*
X228312Y5715D01*
X228428Y5719D01*
X228544Y5727D01*
X228660Y5739D01*
X228775Y5755D01*
X228890Y5774D01*
X229004Y5798D01*
X229117Y5825D01*
X229229Y5856D01*
X229340Y5891D01*
X229450Y5929D01*
X229558Y5972D01*
X229665Y6017D01*
X229770Y6067D01*
X229874Y6120D01*
X229975Y6176D01*
X230075Y6236D01*
X230173Y6299D01*
X230268Y6366D01*
X230361Y6435D01*
X230452Y6508D01*
X230540Y6584D01*
X230626Y6663D01*
X230709Y6744D01*
X230789Y6828D01*
X230866Y6915D01*
X230941Y7005D01*
X231012Y7097D01*
X231080Y7191D01*
X231145Y7288D01*
X231206Y7386D01*
X231264Y7487D01*
X231319Y7590D01*
X231370Y7694D01*
X231418Y7800D01*
X231462Y7908D01*
X231502Y8017D01*
X231539Y8127D01*
X231572Y8239D01*
X231601Y8351D01*
X231627Y8465D01*
X231648Y8579D01*
X231666Y8694D01*
X231679Y8810D01*
X231689Y8926D01*
X231695Y9042D01*
X231697Y9158D01*
X220043Y16044D02*
X214878Y16044D01*
X218321Y21209D02*
X218321Y8297D01*
X218319Y8198D01*
X218313Y8099D01*
X218304Y8001D01*
X218291Y7903D01*
X218274Y7805D01*
X218253Y7709D01*
X218229Y7613D01*
X218201Y7518D01*
X218169Y7424D01*
X218134Y7332D01*
X218095Y7241D01*
X218053Y7151D01*
X218007Y7064D01*
X217958Y6978D01*
X217906Y6894D01*
X217851Y6812D01*
X217792Y6732D01*
X217731Y6654D01*
X217667Y6579D01*
X217599Y6507D01*
X217529Y6437D01*
X217457Y6369D01*
X217382Y6305D01*
X217304Y6244D01*
X217224Y6185D01*
X217142Y6130D01*
X217058Y6078D01*
X216972Y6029D01*
X216885Y5983D01*
X216795Y5941D01*
X216704Y5902D01*
X216612Y5867D01*
X216518Y5835D01*
X216423Y5807D01*
X216327Y5783D01*
X216231Y5762D01*
X216133Y5745D01*
X216035Y5732D01*
X215937Y5723D01*
X215838Y5717D01*
X215739Y5715D01*
X214878Y5715D01*
X208642Y5715D02*
X208642Y16044D01*
X200895Y16044D01*
X200796Y16042D01*
X200697Y16036D01*
X200599Y16027D01*
X200501Y16014D01*
X200403Y15997D01*
X200307Y15976D01*
X200211Y15952D01*
X200116Y15924D01*
X200022Y15892D01*
X199930Y15857D01*
X199839Y15818D01*
X199749Y15776D01*
X199662Y15730D01*
X199576Y15681D01*
X199492Y15629D01*
X199410Y15574D01*
X199330Y15515D01*
X199252Y15454D01*
X199177Y15390D01*
X199105Y15322D01*
X199035Y15252D01*
X198967Y15180D01*
X198903Y15105D01*
X198842Y15027D01*
X198783Y14947D01*
X198728Y14865D01*
X198676Y14781D01*
X198627Y14695D01*
X198581Y14608D01*
X198539Y14518D01*
X198500Y14427D01*
X198465Y14335D01*
X198433Y14241D01*
X198405Y14146D01*
X198381Y14050D01*
X198360Y13954D01*
X198343Y13856D01*
X198330Y13758D01*
X198321Y13660D01*
X198315Y13561D01*
X198313Y13462D01*
X198313Y5715D01*
X203478Y5715D02*
X203478Y16044D01*
X188615Y11740D02*
X184742Y11740D01*
X188615Y11741D02*
X188724Y11739D01*
X188832Y11733D01*
X188941Y11723D01*
X189049Y11710D01*
X189156Y11692D01*
X189263Y11671D01*
X189369Y11645D01*
X189473Y11616D01*
X189577Y11583D01*
X189680Y11547D01*
X189781Y11506D01*
X189880Y11463D01*
X189978Y11415D01*
X190074Y11364D01*
X190168Y11310D01*
X190261Y11252D01*
X190351Y11191D01*
X190438Y11127D01*
X190524Y11059D01*
X190607Y10989D01*
X190687Y10915D01*
X190765Y10839D01*
X190839Y10760D01*
X190911Y10679D01*
X190980Y10594D01*
X191046Y10508D01*
X191109Y10419D01*
X191168Y10328D01*
X191224Y10234D01*
X191277Y10139D01*
X191326Y10042D01*
X191372Y9944D01*
X191414Y9843D01*
X191452Y9741D01*
X191487Y9638D01*
X191518Y9534D01*
X191545Y9429D01*
X191569Y9322D01*
X191588Y9215D01*
X191604Y9108D01*
X191616Y9000D01*
X191624Y8891D01*
X191628Y8782D01*
X191628Y8674D01*
X191624Y8565D01*
X191616Y8456D01*
X191604Y8348D01*
X191588Y8241D01*
X191569Y8134D01*
X191545Y8027D01*
X191518Y7922D01*
X191487Y7818D01*
X191452Y7715D01*
X191414Y7613D01*
X191372Y7512D01*
X191326Y7414D01*
X191277Y7317D01*
X191224Y7221D01*
X191168Y7128D01*
X191109Y7037D01*
X191046Y6948D01*
X190980Y6862D01*
X190911Y6777D01*
X190839Y6696D01*
X190765Y6617D01*
X190687Y6541D01*
X190607Y6467D01*
X190524Y6397D01*
X190438Y6329D01*
X190351Y6265D01*
X190261Y6204D01*
X190168Y6146D01*
X190074Y6092D01*
X189978Y6041D01*
X189880Y5993D01*
X189781Y5950D01*
X189680Y5909D01*
X189577Y5873D01*
X189473Y5840D01*
X189369Y5811D01*
X189263Y5785D01*
X189156Y5764D01*
X189049Y5746D01*
X188941Y5733D01*
X188832Y5723D01*
X188724Y5717D01*
X188615Y5715D01*
X184742Y5715D01*
X184742Y13462D01*
X184744Y13561D01*
X184750Y13660D01*
X184759Y13758D01*
X184772Y13856D01*
X184789Y13954D01*
X184810Y14050D01*
X184834Y14146D01*
X184862Y14241D01*
X184894Y14335D01*
X184929Y14427D01*
X184968Y14518D01*
X185010Y14608D01*
X185056Y14695D01*
X185105Y14781D01*
X185157Y14866D01*
X185212Y14947D01*
X185271Y15027D01*
X185332Y15105D01*
X185396Y15180D01*
X185464Y15252D01*
X185534Y15322D01*
X185606Y15390D01*
X185681Y15454D01*
X185759Y15515D01*
X185839Y15574D01*
X185921Y15629D01*
X186005Y15681D01*
X186091Y15730D01*
X186178Y15776D01*
X186268Y15818D01*
X186359Y15857D01*
X186451Y15892D01*
X186545Y15924D01*
X186640Y15952D01*
X186736Y15976D01*
X186832Y15997D01*
X186930Y16014D01*
X187028Y16027D01*
X187126Y16036D01*
X187225Y16042D01*
X187324Y16044D01*
X190767Y16044D01*
X178206Y16044D02*
X178206Y5715D01*
X178636Y20348D02*
X178636Y21209D01*
X177776Y21209D01*
X177776Y20348D01*
X178636Y20348D01*
X172005Y21209D02*
X172005Y8297D01*
X172003Y8198D01*
X171997Y8099D01*
X171988Y8001D01*
X171975Y7903D01*
X171958Y7805D01*
X171937Y7709D01*
X171913Y7613D01*
X171885Y7518D01*
X171853Y7424D01*
X171818Y7332D01*
X171779Y7241D01*
X171737Y7151D01*
X171691Y7064D01*
X171642Y6978D01*
X171590Y6894D01*
X171535Y6812D01*
X171476Y6732D01*
X171415Y6654D01*
X171351Y6579D01*
X171283Y6507D01*
X171213Y6437D01*
X171141Y6369D01*
X171066Y6305D01*
X170988Y6244D01*
X170908Y6185D01*
X170826Y6130D01*
X170742Y6078D01*
X170656Y6029D01*
X170569Y5983D01*
X170479Y5941D01*
X170388Y5902D01*
X170296Y5867D01*
X170202Y5835D01*
X170107Y5807D01*
X170011Y5783D01*
X169915Y5762D01*
X169817Y5745D01*
X169719Y5732D01*
X169621Y5723D01*
X169522Y5717D01*
X169423Y5715D01*
X164762Y5715D02*
X164762Y6576D01*
X163901Y6576D01*
X163901Y5715D01*
X164762Y5715D01*
X155761Y5715D02*
X152318Y5715D01*
X155761Y5715D02*
X155860Y5717D01*
X155959Y5723D01*
X156057Y5732D01*
X156155Y5745D01*
X156253Y5762D01*
X156349Y5783D01*
X156445Y5807D01*
X156540Y5835D01*
X156634Y5867D01*
X156726Y5902D01*
X156817Y5941D01*
X156907Y5983D01*
X156994Y6029D01*
X157080Y6078D01*
X157164Y6130D01*
X157246Y6185D01*
X157326Y6244D01*
X157404Y6305D01*
X157479Y6369D01*
X157551Y6437D01*
X157621Y6507D01*
X157689Y6579D01*
X157753Y6654D01*
X157814Y6732D01*
X157873Y6812D01*
X157928Y6894D01*
X157980Y6978D01*
X158029Y7064D01*
X158075Y7151D01*
X158117Y7241D01*
X158156Y7332D01*
X158191Y7424D01*
X158223Y7518D01*
X158251Y7613D01*
X158275Y7709D01*
X158296Y7805D01*
X158313Y7903D01*
X158326Y8001D01*
X158335Y8099D01*
X158341Y8198D01*
X158343Y8297D01*
X158343Y13462D01*
X158341Y13561D01*
X158335Y13660D01*
X158326Y13758D01*
X158313Y13856D01*
X158296Y13954D01*
X158275Y14050D01*
X158251Y14146D01*
X158223Y14241D01*
X158191Y14335D01*
X158156Y14427D01*
X158117Y14518D01*
X158075Y14608D01*
X158029Y14695D01*
X157980Y14781D01*
X157928Y14865D01*
X157873Y14947D01*
X157814Y15027D01*
X157753Y15105D01*
X157689Y15180D01*
X157621Y15252D01*
X157551Y15322D01*
X157479Y15390D01*
X157404Y15454D01*
X157326Y15515D01*
X157246Y15574D01*
X157164Y15629D01*
X157080Y15681D01*
X156994Y15730D01*
X156907Y15776D01*
X156817Y15818D01*
X156726Y15857D01*
X156634Y15892D01*
X156540Y15924D01*
X156445Y15952D01*
X156349Y15976D01*
X156253Y15997D01*
X156155Y16014D01*
X156057Y16027D01*
X155959Y16036D01*
X155860Y16042D01*
X155761Y16044D01*
X152318Y16044D01*
X146962Y12601D02*
X146962Y9158D01*
X146962Y12601D02*
X146960Y12717D01*
X146954Y12833D01*
X146944Y12949D01*
X146931Y13065D01*
X146913Y13180D01*
X146892Y13294D01*
X146866Y13408D01*
X146837Y13520D01*
X146804Y13632D01*
X146767Y13742D01*
X146727Y13851D01*
X146683Y13959D01*
X146635Y14065D01*
X146584Y14169D01*
X146529Y14272D01*
X146471Y14373D01*
X146410Y14471D01*
X146345Y14568D01*
X146277Y14662D01*
X146206Y14754D01*
X146131Y14844D01*
X146054Y14931D01*
X145974Y15015D01*
X145891Y15096D01*
X145805Y15175D01*
X145717Y15251D01*
X145626Y15324D01*
X145533Y15393D01*
X145438Y15460D01*
X145340Y15523D01*
X145241Y15583D01*
X145139Y15639D01*
X145035Y15692D01*
X144930Y15742D01*
X144823Y15787D01*
X144715Y15830D01*
X144605Y15868D01*
X144494Y15903D01*
X144382Y15934D01*
X144269Y15961D01*
X144155Y15985D01*
X144040Y16004D01*
X143925Y16020D01*
X143809Y16032D01*
X143693Y16040D01*
X143577Y16044D01*
X143461Y16044D01*
X143345Y16040D01*
X143229Y16032D01*
X143113Y16020D01*
X142998Y16004D01*
X142883Y15985D01*
X142769Y15961D01*
X142656Y15934D01*
X142544Y15903D01*
X142433Y15868D01*
X142323Y15830D01*
X142215Y15787D01*
X142108Y15742D01*
X142003Y15692D01*
X141899Y15639D01*
X141798Y15583D01*
X141698Y15523D01*
X141600Y15460D01*
X141505Y15393D01*
X141412Y15324D01*
X141321Y15251D01*
X141233Y15175D01*
X141147Y15096D01*
X141064Y15015D01*
X140984Y14931D01*
X140907Y14844D01*
X140832Y14754D01*
X140761Y14662D01*
X140693Y14568D01*
X140628Y14471D01*
X140567Y14373D01*
X140509Y14272D01*
X140454Y14169D01*
X140403Y14065D01*
X140355Y13959D01*
X140311Y13851D01*
X140271Y13742D01*
X140234Y13632D01*
X140201Y13520D01*
X140172Y13408D01*
X140146Y13294D01*
X140125Y13180D01*
X140107Y13065D01*
X140094Y12949D01*
X140084Y12833D01*
X140078Y12717D01*
X140076Y12601D01*
X140076Y9158D01*
X140078Y9042D01*
X140084Y8926D01*
X140094Y8810D01*
X140107Y8694D01*
X140125Y8579D01*
X140146Y8465D01*
X140172Y8351D01*
X140201Y8239D01*
X140234Y8127D01*
X140271Y8017D01*
X140311Y7908D01*
X140355Y7800D01*
X140403Y7694D01*
X140454Y7590D01*
X140509Y7487D01*
X140567Y7386D01*
X140628Y7288D01*
X140693Y7191D01*
X140761Y7097D01*
X140832Y7005D01*
X140907Y6915D01*
X140984Y6828D01*
X141064Y6744D01*
X141147Y6663D01*
X141233Y6584D01*
X141321Y6508D01*
X141412Y6435D01*
X141505Y6366D01*
X141600Y6299D01*
X141698Y6236D01*
X141798Y6176D01*
X141899Y6120D01*
X142003Y6067D01*
X142108Y6017D01*
X142215Y5972D01*
X142323Y5929D01*
X142433Y5891D01*
X142544Y5856D01*
X142656Y5825D01*
X142769Y5798D01*
X142883Y5774D01*
X142998Y5755D01*
X143113Y5739D01*
X143229Y5727D01*
X143345Y5719D01*
X143461Y5715D01*
X143577Y5715D01*
X143693Y5719D01*
X143809Y5727D01*
X143925Y5739D01*
X144040Y5755D01*
X144155Y5774D01*
X144269Y5798D01*
X144382Y5825D01*
X144494Y5856D01*
X144605Y5891D01*
X144715Y5929D01*
X144823Y5972D01*
X144930Y6017D01*
X145035Y6067D01*
X145139Y6120D01*
X145240Y6176D01*
X145340Y6236D01*
X145438Y6299D01*
X145533Y6366D01*
X145626Y6435D01*
X145717Y6508D01*
X145805Y6584D01*
X145891Y6663D01*
X145974Y6744D01*
X146054Y6828D01*
X146131Y6915D01*
X146206Y7005D01*
X146277Y7097D01*
X146345Y7191D01*
X146410Y7288D01*
X146471Y7386D01*
X146529Y7487D01*
X146584Y7590D01*
X146635Y7694D01*
X146683Y7800D01*
X146727Y7908D01*
X146767Y8017D01*
X146804Y8127D01*
X146837Y8239D01*
X146866Y8351D01*
X146892Y8465D01*
X146913Y8579D01*
X146931Y8694D01*
X146944Y8810D01*
X146954Y8926D01*
X146960Y9042D01*
X146962Y9158D01*
X133323Y5715D02*
X133323Y16044D01*
X125576Y16044D01*
X125477Y16042D01*
X125378Y16036D01*
X125280Y16027D01*
X125182Y16014D01*
X125084Y15997D01*
X124988Y15976D01*
X124892Y15952D01*
X124797Y15924D01*
X124703Y15892D01*
X124611Y15857D01*
X124520Y15818D01*
X124430Y15776D01*
X124343Y15730D01*
X124257Y15681D01*
X124173Y15629D01*
X124091Y15574D01*
X124011Y15515D01*
X123933Y15454D01*
X123858Y15390D01*
X123786Y15322D01*
X123716Y15252D01*
X123648Y15180D01*
X123584Y15105D01*
X123523Y15027D01*
X123464Y14947D01*
X123409Y14865D01*
X123357Y14781D01*
X123308Y14695D01*
X123262Y14608D01*
X123220Y14518D01*
X123181Y14427D01*
X123146Y14335D01*
X123114Y14241D01*
X123086Y14146D01*
X123062Y14050D01*
X123041Y13954D01*
X123024Y13856D01*
X123011Y13758D01*
X123002Y13660D01*
X122996Y13561D01*
X122994Y13462D01*
X122993Y13462D02*
X122993Y5715D01*
X128158Y5715D02*
X128158Y16044D01*
M02*
