G04 EAGLE Gerber RS-274X export*
G75*
%MOMM*%
%FSLAX34Y34*%
%LPD*%
%INSoldermask Top*%
%IPPOS*%
%AMOC8*
5,1,8,0,0,1.08239X$1,22.5*%
G01*
%ADD10P,1.759533X8X22.500000*%
%ADD11P,1.924489X8X202.500000*%
%ADD12C,1.778000*%
%ADD13P,1.951982X8X202.500000*%
%ADD14C,1.803400*%
%ADD15P,1.759533X8X112.500000*%
%ADD16P,1.951982X8X112.500000*%
%ADD17C,1.625600*%
%ADD18C,1.625600*%
%ADD19C,1.828800*%
%ADD20C,1.812800*%
%ADD21P,1.759533X8X292.500000*%
%ADD22P,1.759533X8X202.500000*%
%ADD23R,1.562800X1.562800*%
%ADD24P,1.691559X8X202.500000*%


D10*
X1027430Y176530D03*
X1078230Y176530D03*
X1124814Y175666D03*
X1175614Y175666D03*
D11*
X957580Y100330D03*
D12*
X982980Y100330D03*
D13*
X538480Y163830D03*
D14*
X563880Y163830D03*
D15*
X596900Y43180D03*
X596900Y93980D03*
D16*
X1056640Y123190D03*
D14*
X1056640Y87630D03*
D11*
X877875Y96520D03*
D12*
X903275Y96520D03*
D17*
X521208Y116840D03*
X495808Y116840D03*
X495808Y40640D03*
X521208Y40640D03*
X470408Y116840D03*
X445008Y116840D03*
X470408Y40640D03*
X445008Y40640D03*
X1217930Y26670D03*
X1217930Y52070D03*
X1141730Y52070D03*
X1141730Y26670D03*
X1217930Y77470D03*
X1217930Y102870D03*
X1141730Y77470D03*
X1141730Y102870D03*
D18*
X95301Y97028D02*
X95301Y111252D01*
X69901Y111252D02*
X69901Y97028D01*
X69901Y35052D02*
X69901Y20828D01*
X95301Y20828D02*
X95301Y35052D01*
X44501Y97028D02*
X44501Y111252D01*
X19101Y111252D02*
X19101Y97028D01*
X44501Y35052D02*
X44501Y20828D01*
X19101Y20828D02*
X19101Y35052D01*
X715010Y99568D02*
X715010Y113792D01*
X689610Y113792D02*
X689610Y99568D01*
X689610Y37592D02*
X689610Y23368D01*
X715010Y23368D02*
X715010Y37592D01*
X664210Y99568D02*
X664210Y113792D01*
X638810Y113792D02*
X638810Y99568D01*
X664210Y37592D02*
X664210Y23368D01*
X638810Y23368D02*
X638810Y37592D01*
D19*
X182880Y162052D02*
X182880Y178308D01*
X208280Y178308D02*
X208280Y162052D01*
D20*
X29610Y153670D03*
X54610Y153670D03*
X79610Y153670D03*
X329330Y153670D03*
X354330Y153670D03*
X379330Y153670D03*
D10*
X128270Y83820D03*
X229870Y83820D03*
D21*
X755650Y118110D03*
X755650Y16510D03*
X793750Y119380D03*
X793750Y17780D03*
X560070Y120650D03*
X560070Y19050D03*
D15*
X1285240Y17780D03*
X1285240Y119380D03*
D22*
X363220Y83820D03*
X261620Y83820D03*
D15*
X1249680Y16510D03*
X1249680Y118110D03*
D21*
X833120Y119380D03*
X833120Y17780D03*
D10*
X261620Y116840D03*
X363220Y116840D03*
X128270Y116840D03*
X229870Y116840D03*
D20*
X629050Y153670D03*
X654050Y153670D03*
X679050Y153670D03*
D22*
X471170Y166370D03*
X458470Y147320D03*
X445770Y166370D03*
D20*
X928770Y153670D03*
X953770Y153670D03*
X978770Y153670D03*
X1228490Y153670D03*
X1253490Y153670D03*
X1278490Y153670D03*
D23*
X158300Y29667D03*
D24*
X178300Y29667D03*
D23*
X304249Y29312D03*
D24*
X324249Y29312D03*
D23*
X944938Y29667D03*
D24*
X964938Y29667D03*
D23*
X874784Y30023D03*
D24*
X894784Y30023D03*
D23*
X376080Y29210D03*
D24*
X396080Y29210D03*
D23*
X1014890Y30480D03*
D24*
X1034890Y30480D03*
D23*
X1086010Y30480D03*
D24*
X1106010Y30480D03*
D23*
X231300Y29210D03*
D24*
X251300Y29210D03*
M02*
