<svg xmlns="http://www.w3.org/2000/svg" role="img" width="608" height="496" viewBox="-44 0 608 496" preserveAspectRatio="xMidYMid meet" overflow="visible">
  <title>V02Gallery breadboard diagram</title>
  <desc>20 rows, 5 terminal columns, 12 components, 1 wires, 3 annotations.</desc>
  <g data-layer="board">
    <rect x="18" y="10" width="484" height="472" rx="12" fill="#F5F2EB" stroke="#B9AD8D" stroke-width="3"/>
    <rect x="250" y="24" width="20" height="444" rx="8" fill="#DFD5B9"/>
  </g>
  <g data-layer="rails">
    <line x1="62" y1="32" x2="62" y2="460" stroke="#D64545" stroke-width="3"/>
    <line x1="94" y1="32" x2="94" y2="460" stroke="#252525" stroke-width="3"/>
    <line x1="426" y1="32" x2="426" y2="460" stroke="#D64545" stroke-width="3"/>
    <line x1="458" y1="32" x2="458" y2="460" stroke="#252525" stroke-width="3"/>
  </g>
  <g data-layer="holes">
    <circle cx="62" cy="42" r="4.25" fill="#D1CCC3"/>
    <circle cx="94" cy="42" r="4.25" fill="#D1CCC3"/>
    <circle cx="120" cy="42" r="4.25" fill="#D1CCC3"/>
    <circle cx="142" cy="42" r="4.25" fill="#D1CCC3"/>
    <circle cx="164" cy="42" r="4.25" fill="#D1CCC3"/>
    <circle cx="186" cy="42" r="4.25" fill="#D1CCC3"/>
    <circle cx="208" cy="42" r="4.25" fill="#D1CCC3"/>
    <circle cx="312" cy="42" r="4.25" fill="#D1CCC3"/>
    <circle cx="334" cy="42" r="4.25" fill="#D1CCC3"/>
    <circle cx="356" cy="42" r="4.25" fill="#D1CCC3"/>
    <circle cx="378" cy="42" r="4.25" fill="#D1CCC3"/>
    <circle cx="400" cy="42" r="4.25" fill="#D1CCC3"/>
    <circle cx="426" cy="42" r="4.25" fill="#D1CCC3"/>
    <circle cx="458" cy="42" r="4.25" fill="#D1CCC3"/>
    <circle cx="62" cy="64" r="4.25" fill="#D1CCC3"/>
    <circle cx="94" cy="64" r="4.25" fill="#D1CCC3"/>
    <circle cx="120" cy="64" r="4.25" fill="#D1CCC3"/>
    <circle cx="142" cy="64" r="4.25" fill="#D1CCC3"/>
    <circle cx="164" cy="64" r="4.25" fill="#D1CCC3"/>
    <circle cx="186" cy="64" r="4.25" fill="#D1CCC3"/>
    <circle cx="208" cy="64" r="4.25" fill="#D1CCC3"/>
    <circle cx="312" cy="64" r="4.25" fill="#D1CCC3"/>
    <circle cx="334" cy="64" r="4.25" fill="#D1CCC3"/>
    <circle cx="356" cy="64" r="4.25" fill="#D1CCC3"/>
    <circle cx="378" cy="64" r="4.25" fill="#D1CCC3"/>
    <circle cx="400" cy="64" r="4.25" fill="#D1CCC3"/>
    <circle cx="426" cy="64" r="4.25" fill="#D1CCC3"/>
    <circle cx="458" cy="64" r="4.25" fill="#D1CCC3"/>
    <circle cx="62" cy="86" r="4.25" fill="#D1CCC3"/>
    <circle cx="94" cy="86" r="4.25" fill="#D1CCC3"/>
    <circle cx="120" cy="86" r="4.25" fill="#D1CCC3"/>
    <circle cx="142" cy="86" r="4.25" fill="#D1CCC3"/>
    <circle cx="164" cy="86" r="4.25" fill="#D1CCC3"/>
    <circle cx="186" cy="86" r="4.25" fill="#D1CCC3"/>
    <circle cx="208" cy="86" r="4.25" fill="#D1CCC3"/>
    <circle cx="312" cy="86" r="4.25" fill="#D1CCC3"/>
    <circle cx="334" cy="86" r="4.25" fill="#D1CCC3"/>
    <circle cx="356" cy="86" r="4.25" fill="#D1CCC3"/>
    <circle cx="378" cy="86" r="4.25" fill="#D1CCC3"/>
    <circle cx="400" cy="86" r="4.25" fill="#D1CCC3"/>
    <circle cx="426" cy="86" r="4.25" fill="#D1CCC3"/>
    <circle cx="458" cy="86" r="4.25" fill="#D1CCC3"/>
    <circle cx="62" cy="108" r="4.25" fill="#D1CCC3"/>
    <circle cx="94" cy="108" r="4.25" fill="#D1CCC3"/>
    <circle cx="120" cy="108" r="4.25" fill="#D1CCC3"/>
    <circle cx="142" cy="108" r="4.25" fill="#D1CCC3"/>
    <circle cx="164" cy="108" r="4.25" fill="#D1CCC3"/>
    <circle cx="186" cy="108" r="4.25" fill="#D1CCC3"/>
    <circle cx="208" cy="108" r="4.25" fill="#D1CCC3"/>
    <circle cx="312" cy="108" r="4.25" fill="#D1CCC3"/>
    <circle cx="334" cy="108" r="4.25" fill="#D1CCC3"/>
    <circle cx="356" cy="108" r="4.25" fill="#D1CCC3"/>
    <circle cx="378" cy="108" r="4.25" fill="#D1CCC3"/>
    <circle cx="400" cy="108" r="4.25" fill="#D1CCC3"/>
    <circle cx="426" cy="108" r="4.25" fill="#D1CCC3"/>
    <circle cx="458" cy="108" r="4.25" fill="#D1CCC3"/>
    <circle cx="62" cy="130" r="4.25" fill="#D1CCC3"/>
    <circle cx="94" cy="130" r="4.25" fill="#D1CCC3"/>
    <circle cx="120" cy="130" r="4.25" fill="#D1CCC3"/>
    <circle cx="142" cy="130" r="4.25" fill="#D1CCC3"/>
    <circle cx="164" cy="130" r="4.25" fill="#D1CCC3"/>
    <circle cx="186" cy="130" r="4.25" fill="#D1CCC3"/>
    <circle cx="208" cy="130" r="4.25" fill="#D1CCC3"/>
    <circle cx="312" cy="130" r="4.25" fill="#D1CCC3"/>
    <circle cx="334" cy="130" r="4.25" fill="#D1CCC3"/>
    <circle cx="356" cy="130" r="4.25" fill="#D1CCC3"/>
    <circle cx="378" cy="130" r="4.25" fill="#D1CCC3"/>
    <circle cx="400" cy="130" r="4.25" fill="#D1CCC3"/>
    <circle cx="426" cy="130" r="4.25" fill="#D1CCC3"/>
    <circle cx="458" cy="130" r="4.25" fill="#D1CCC3"/>
    <circle cx="62" cy="152" r="4.25" fill="#D1CCC3"/>
    <circle cx="94" cy="152" r="4.25" fill="#D1CCC3"/>
    <circle cx="120" cy="152" r="4.25" fill="#D1CCC3"/>
    <circle cx="142" cy="152" r="4.25" fill="#D1CCC3"/>
    <circle cx="164" cy="152" r="4.25" fill="#D1CCC3"/>
    <circle cx="186" cy="152" r="4.25" fill="#D1CCC3"/>
    <circle cx="208" cy="152" r="4.25" fill="#D1CCC3"/>
    <circle cx="312" cy="152" r="4.25" fill="#D1CCC3"/>
    <circle cx="334" cy="152" r="4.25" fill="#D1CCC3"/>
    <circle cx="356" cy="152" r="4.25" fill="#D1CCC3"/>
    <circle cx="378" cy="152" r="4.25" fill="#D1CCC3"/>
    <circle cx="400" cy="152" r="4.25" fill="#D1CCC3"/>
    <circle cx="426" cy="152" r="4.25" fill="#D1CCC3"/>
    <circle cx="458" cy="152" r="4.25" fill="#D1CCC3"/>
    <circle cx="62" cy="174" r="4.25" fill="#D1CCC3"/>
    <circle cx="94" cy="174" r="4.25" fill="#D1CCC3"/>
    <circle cx="120" cy="174" r="4.25" fill="#D1CCC3"/>
    <circle cx="142" cy="174" r="4.25" fill="#D1CCC3"/>
    <circle cx="164" cy="174" r="4.25" fill="#D1CCC3"/>
    <circle cx="186" cy="174" r="4.25" fill="#D1CCC3"/>
    <circle cx="208" cy="174" r="4.25" fill="#D1CCC3"/>
    <circle cx="312" cy="174" r="4.25" fill="#D1CCC3"/>
    <circle cx="334" cy="174" r="4.25" fill="#D1CCC3"/>
    <circle cx="356" cy="174" r="4.25" fill="#D1CCC3"/>
    <circle cx="378" cy="174" r="4.25" fill="#D1CCC3"/>
    <circle cx="400" cy="174" r="4.25" fill="#D1CCC3"/>
    <circle cx="426" cy="174" r="4.25" fill="#D1CCC3"/>
    <circle cx="458" cy="174" r="4.25" fill="#D1CCC3"/>
    <circle cx="62" cy="196" r="4.25" fill="#D1CCC3"/>
    <circle cx="94" cy="196" r="4.25" fill="#D1CCC3"/>
    <circle cx="120" cy="196" r="4.25" fill="#D1CCC3"/>
    <circle cx="142" cy="196" r="4.25" fill="#D1CCC3"/>
    <circle cx="164" cy="196" r="4.25" fill="#D1CCC3"/>
    <circle cx="186" cy="196" r="4.25" fill="#D1CCC3"/>
    <circle cx="208" cy="196" r="4.25" fill="#D1CCC3"/>
    <circle cx="312" cy="196" r="4.25" fill="#D1CCC3"/>
    <circle cx="334" cy="196" r="4.25" fill="#D1CCC3"/>
    <circle cx="356" cy="196" r="4.25" fill="#D1CCC3"/>
    <circle cx="378" cy="196" r="4.25" fill="#D1CCC3"/>
    <circle cx="400" cy="196" r="4.25" fill="#D1CCC3"/>
    <circle cx="426" cy="196" r="4.25" fill="#D1CCC3"/>
    <circle cx="458" cy="196" r="4.25" fill="#D1CCC3"/>
    <circle cx="62" cy="218" r="4.25" fill="#D1CCC3"/>
    <circle cx="94" cy="218" r="4.25" fill="#D1CCC3"/>
    <circle cx="120" cy="218" r="4.25" fill="#D1CCC3"/>
    <circle cx="142" cy="218" r="4.25" fill="#D1CCC3"/>
    <circle cx="164" cy="218" r="4.25" fill="#D1CCC3"/>
    <circle cx="186" cy="218" r="4.25" fill="#D1CCC3"/>
    <circle cx="208" cy="218" r="4.25" fill="#D1CCC3"/>
    <circle cx="312" cy="218" r="4.25" fill="#D1CCC3"/>
    <circle cx="334" cy="218" r="4.25" fill="#D1CCC3"/>
    <circle cx="356" cy="218" r="4.25" fill="#D1CCC3"/>
    <circle cx="378" cy="218" r="4.25" fill="#D1CCC3"/>
    <circle cx="400" cy="218" r="4.25" fill="#D1CCC3"/>
    <circle cx="426" cy="218" r="4.25" fill="#D1CCC3"/>
    <circle cx="458" cy="218" r="4.25" fill="#D1CCC3"/>
    <circle cx="62" cy="240" r="4.25" fill="#D1CCC3"/>
    <circle cx="94" cy="240" r="4.25" fill="#D1CCC3"/>
    <circle cx="120" cy="240" r="4.25" fill="#D1CCC3"/>
    <circle cx="142" cy="240" r="4.25" fill="#D1CCC3"/>
    <circle cx="164" cy="240" r="4.25" fill="#D1CCC3"/>
    <circle cx="186" cy="240" r="4.25" fill="#D1CCC3"/>
    <circle cx="208" cy="240" r="4.25" fill="#D1CCC3"/>
    <circle cx="312" cy="240" r="4.25" fill="#D1CCC3"/>
    <circle cx="334" cy="240" r="4.25" fill="#D1CCC3"/>
    <circle cx="356" cy="240" r="4.25" fill="#D1CCC3"/>
    <circle cx="378" cy="240" r="4.25" fill="#D1CCC3"/>
    <circle cx="400" cy="240" r="4.25" fill="#D1CCC3"/>
    <circle cx="426" cy="240" r="4.25" fill="#D1CCC3"/>
    <circle cx="458" cy="240" r="4.25" fill="#D1CCC3"/>
    <circle cx="62" cy="262" r="4.25" fill="#D1CCC3"/>
    <circle cx="94" cy="262" r="4.25" fill="#D1CCC3"/>
    <circle cx="120" cy="262" r="4.25" fill="#D1CCC3"/>
    <circle cx="142" cy="262" r="4.25" fill="#D1CCC3"/>
    <circle cx="164" cy="262" r="4.25" fill="#D1CCC3"/>
    <circle cx="186" cy="262" r="4.25" fill="#D1CCC3"/>
    <circle cx="208" cy="262" r="4.25" fill="#D1CCC3"/>
    <circle cx="312" cy="262" r="4.25" fill="#D1CCC3"/>
    <circle cx="334" cy="262" r="4.25" fill="#D1CCC3"/>
    <circle cx="356" cy="262" r="4.25" fill="#D1CCC3"/>
    <circle cx="378" cy="262" r="4.25" fill="#D1CCC3"/>
    <circle cx="400" cy="262" r="4.25" fill="#D1CCC3"/>
    <circle cx="426" cy="262" r="4.25" fill="#D1CCC3"/>
    <circle cx="458" cy="262" r="4.25" fill="#D1CCC3"/>
    <circle cx="62" cy="284" r="4.25" fill="#D1CCC3"/>
    <circle cx="94" cy="284" r="4.25" fill="#D1CCC3"/>
    <circle cx="120" cy="284" r="4.25" fill="#D1CCC3"/>
    <circle cx="142" cy="284" r="4.25" fill="#D1CCC3"/>
    <circle cx="164" cy="284" r="4.25" fill="#D1CCC3"/>
    <circle cx="186" cy="284" r="4.25" fill="#D1CCC3"/>
    <circle cx="208" cy="284" r="4.25" fill="#D1CCC3"/>
    <circle cx="312" cy="284" r="4.25" fill="#D1CCC3"/>
    <circle cx="334" cy="284" r="4.25" fill="#D1CCC3"/>
    <circle cx="356" cy="284" r="4.25" fill="#D1CCC3"/>
    <circle cx="378" cy="284" r="4.25" fill="#D1CCC3"/>
    <circle cx="400" cy="284" r="4.25" fill="#D1CCC3"/>
    <circle cx="426" cy="284" r="4.25" fill="#D1CCC3"/>
    <circle cx="458" cy="284" r="4.25" fill="#D1CCC3"/>
    <circle cx="62" cy="306" r="4.25" fill="#D1CCC3"/>
    <circle cx="94" cy="306" r="4.25" fill="#D1CCC3"/>
    <circle cx="120" cy="306" r="4.25" fill="#D1CCC3"/>
    <circle cx="142" cy="306" r="4.25" fill="#D1CCC3"/>
    <circle cx="164" cy="306" r="4.25" fill="#D1CCC3"/>
    <circle cx="186" cy="306" r="4.25" fill="#D1CCC3"/>
    <circle cx="208" cy="306" r="4.25" fill="#D1CCC3"/>
    <circle cx="312" cy="306" r="4.25" fill="#D1CCC3"/>
    <circle cx="334" cy="306" r="4.25" fill="#D1CCC3"/>
    <circle cx="356" cy="306" r="4.25" fill="#D1CCC3"/>
    <circle cx="378" cy="306" r="4.25" fill="#D1CCC3"/>
    <circle cx="400" cy="306" r="4.25" fill="#D1CCC3"/>
    <circle cx="426" cy="306" r="4.25" fill="#D1CCC3"/>
    <circle cx="458" cy="306" r="4.25" fill="#D1CCC3"/>
    <circle cx="62" cy="328" r="4.25" fill="#D1CCC3"/>
    <circle cx="94" cy="328" r="4.25" fill="#D1CCC3"/>
    <circle cx="120" cy="328" r="4.25" fill="#D1CCC3"/>
    <circle cx="142" cy="328" r="4.25" fill="#D1CCC3"/>
    <circle cx="164" cy="328" r="4.25" fill="#D1CCC3"/>
    <circle cx="186" cy="328" r="4.25" fill="#D1CCC3"/>
    <circle cx="208" cy="328" r="4.25" fill="#D1CCC3"/>
    <circle cx="312" cy="328" r="4.25" fill="#D1CCC3"/>
    <circle cx="334" cy="328" r="4.25" fill="#D1CCC3"/>
    <circle cx="356" cy="328" r="4.25" fill="#D1CCC3"/>
    <circle cx="378" cy="328" r="4.25" fill="#D1CCC3"/>
    <circle cx="400" cy="328" r="4.25" fill="#D1CCC3"/>
    <circle cx="426" cy="328" r="4.25" fill="#D1CCC3"/>
    <circle cx="458" cy="328" r="4.25" fill="#D1CCC3"/>
    <circle cx="62" cy="350" r="4.25" fill="#D1CCC3"/>
    <circle cx="94" cy="350" r="4.25" fill="#D1CCC3"/>
    <circle cx="120" cy="350" r="4.25" fill="#D1CCC3"/>
    <circle cx="142" cy="350" r="4.25" fill="#D1CCC3"/>
    <circle cx="164" cy="350" r="4.25" fill="#D1CCC3"/>
    <circle cx="186" cy="350" r="4.25" fill="#D1CCC3"/>
    <circle cx="208" cy="350" r="4.25" fill="#D1CCC3"/>
    <circle cx="312" cy="350" r="4.25" fill="#D1CCC3"/>
    <circle cx="334" cy="350" r="4.25" fill="#D1CCC3"/>
    <circle cx="356" cy="350" r="4.25" fill="#D1CCC3"/>
    <circle cx="378" cy="350" r="4.25" fill="#D1CCC3"/>
    <circle cx="400" cy="350" r="4.25" fill="#D1CCC3"/>
    <circle cx="426" cy="350" r="4.25" fill="#D1CCC3"/>
    <circle cx="458" cy="350" r="4.25" fill="#D1CCC3"/>
    <circle cx="62" cy="372" r="4.25" fill="#D1CCC3"/>
    <circle cx="94" cy="372" r="4.25" fill="#D1CCC3"/>
    <circle cx="120" cy="372" r="4.25" fill="#D1CCC3"/>
    <circle cx="142" cy="372" r="4.25" fill="#D1CCC3"/>
    <circle cx="164" cy="372" r="4.25" fill="#D1CCC3"/>
    <circle cx="186" cy="372" r="4.25" fill="#D1CCC3"/>
    <circle cx="208" cy="372" r="4.25" fill="#D1CCC3"/>
    <circle cx="312" cy="372" r="4.25" fill="#D1CCC3"/>
    <circle cx="334" cy="372" r="4.25" fill="#D1CCC3"/>
    <circle cx="356" cy="372" r="4.25" fill="#D1CCC3"/>
    <circle cx="378" cy="372" r="4.25" fill="#D1CCC3"/>
    <circle cx="400" cy="372" r="4.25" fill="#D1CCC3"/>
    <circle cx="426" cy="372" r="4.25" fill="#D1CCC3"/>
    <circle cx="458" cy="372" r="4.25" fill="#D1CCC3"/>
    <circle cx="62" cy="394" r="4.25" fill="#D1CCC3"/>
    <circle cx="94" cy="394" r="4.25" fill="#D1CCC3"/>
    <circle cx="120" cy="394" r="4.25" fill="#D1CCC3"/>
    <circle cx="142" cy="394" r="4.25" fill="#D1CCC3"/>
    <circle cx="164" cy="394" r="4.25" fill="#D1CCC3"/>
    <circle cx="186" cy="394" r="4.25" fill="#D1CCC3"/>
    <circle cx="208" cy="394" r="4.25" fill="#D1CCC3"/>
    <circle cx="312" cy="394" r="4.25" fill="#D1CCC3"/>
    <circle cx="334" cy="394" r="4.25" fill="#D1CCC3"/>
    <circle cx="356" cy="394" r="4.25" fill="#D1CCC3"/>
    <circle cx="378" cy="394" r="4.25" fill="#D1CCC3"/>
    <circle cx="400" cy="394" r="4.25" fill="#D1CCC3"/>
    <circle cx="426" cy="394" r="4.25" fill="#D1CCC3"/>
    <circle cx="458" cy="394" r="4.25" fill="#D1CCC3"/>
    <circle cx="62" cy="416" r="4.25" fill="#D1CCC3"/>
    <circle cx="94" cy="416" r="4.25" fill="#D1CCC3"/>
    <circle cx="120" cy="416" r="4.25" fill="#D1CCC3"/>
    <circle cx="142" cy="416" r="4.25" fill="#D1CCC3"/>
    <circle cx="164" cy="416" r="4.25" fill="#D1CCC3"/>
    <circle cx="186" cy="416" r="4.25" fill="#D1CCC3"/>
    <circle cx="208" cy="416" r="4.25" fill="#D1CCC3"/>
    <circle cx="312" cy="416" r="4.25" fill="#D1CCC3"/>
    <circle cx="334" cy="416" r="4.25" fill="#D1CCC3"/>
    <circle cx="356" cy="416" r="4.25" fill="#D1CCC3"/>
    <circle cx="378" cy="416" r="4.25" fill="#D1CCC3"/>
    <circle cx="400" cy="416" r="4.25" fill="#D1CCC3"/>
    <circle cx="426" cy="416" r="4.25" fill="#D1CCC3"/>
    <circle cx="458" cy="416" r="4.25" fill="#D1CCC3"/>
    <circle cx="62" cy="438" r="4.25" fill="#D1CCC3"/>
    <circle cx="94" cy="438" r="4.25" fill="#D1CCC3"/>
    <circle cx="120" cy="438" r="4.25" fill="#D1CCC3"/>
    <circle cx="142" cy="438" r="4.25" fill="#D1CCC3"/>
    <circle cx="164" cy="438" r="4.25" fill="#D1CCC3"/>
    <circle cx="186" cy="438" r="4.25" fill="#D1CCC3"/>
    <circle cx="208" cy="438" r="4.25" fill="#D1CCC3"/>
    <circle cx="312" cy="438" r="4.25" fill="#D1CCC3"/>
    <circle cx="334" cy="438" r="4.25" fill="#D1CCC3"/>
    <circle cx="356" cy="438" r="4.25" fill="#D1CCC3"/>
    <circle cx="378" cy="438" r="4.25" fill="#D1CCC3"/>
    <circle cx="400" cy="438" r="4.25" fill="#D1CCC3"/>
    <circle cx="426" cy="438" r="4.25" fill="#D1CCC3"/>
    <circle cx="458" cy="438" r="4.25" fill="#D1CCC3"/>
    <circle cx="62" cy="460" r="4.25" fill="#D1CCC3"/>
    <circle cx="94" cy="460" r="4.25" fill="#D1CCC3"/>
    <circle cx="120" cy="460" r="4.25" fill="#D1CCC3"/>
    <circle cx="142" cy="460" r="4.25" fill="#D1CCC3"/>
    <circle cx="164" cy="460" r="4.25" fill="#D1CCC3"/>
    <circle cx="186" cy="460" r="4.25" fill="#D1CCC3"/>
    <circle cx="208" cy="460" r="4.25" fill="#D1CCC3"/>
    <circle cx="312" cy="460" r="4.25" fill="#D1CCC3"/>
    <circle cx="334" cy="460" r="4.25" fill="#D1CCC3"/>
    <circle cx="356" cy="460" r="4.25" fill="#D1CCC3"/>
    <circle cx="378" cy="460" r="4.25" fill="#D1CCC3"/>
    <circle cx="400" cy="460" r="4.25" fill="#D1CCC3"/>
    <circle cx="426" cy="460" r="4.25" fill="#D1CCC3"/>
    <circle cx="458" cy="460" r="4.25" fill="#D1CCC3"/>
  </g>
  <g data-layer="wires">
    <g data-wire="1">
      <path d="M 62 460 H 120 V 438 V 460" fill="none" stroke="#D64545" stroke-width="6" stroke-linecap="round" stroke-linejoin="round"/>
    </g>
  </g>
  <g data-layer="components">
    <g data-wire-markers="1">
      <g>
        <circle cx="62" cy="460" r="8" fill="#F5F2EB" stroke="#3B382F" stroke-width="1.5"/>
        <circle cx="62" cy="460" r="5" fill="#D64545"/>
        <circle cx="62" cy="460" r="1.75" fill="#3B382F"/>
      </g>
      <g>
        <circle cx="120" cy="460" r="8" fill="#F5F2EB" stroke="#3B382F" stroke-width="1.5"/>
        <circle cx="120" cy="460" r="5" fill="#D64545"/>
        <circle cx="120" cy="460" r="1.75" fill="#3B382F"/>
      </g>
    </g>
    <g data-component="D1" data-kind="led" data-state="on">
      <path d="M 62 42 L 117.5 50.25" fill="none" stroke="#746F67" stroke-width="4" stroke-linecap="round"/>
      <path d="M 152.5 55.75 L 208 64" fill="none" stroke="#746F67" stroke-width="4" stroke-linecap="round"/>
      <circle cx="135" cy="53" r="7" fill="#D64545" stroke="#3B382F" stroke-width="1.5"/>
      <circle cx="62" cy="42" r="4" fill="#F5F2EB" stroke="#D64545" stroke-width="2.5"/>
      <circle cx="208" cy="64" r="4" fill="#F5F2EB" stroke="#252525" stroke-width="2.5"/>
    </g>
    <g data-component="D2" data-kind="led" data-state="off">
      <circle cx="140" cy="64" r="7" fill="#46617C" stroke="#3B382F" stroke-width="1.5"/>
      <circle cx="94" cy="64" r="4" fill="#F5F2EB" stroke="#D64545" stroke-width="2.5"/>
      <circle cx="186" cy="64" r="4" fill="#F5F2EB" stroke="#252525" stroke-width="2.5"/>
    </g>
    <g data-component="C1" data-kind="capacitor" data-capacitor-type="ceramic">
      <path d="M 186 86 L 186 101.75" fill="none" stroke="#746F67" stroke-width="4" stroke-linecap="round"/>
      <path d="M 186 114.25 L 186 130" fill="none" stroke="#746F67" stroke-width="4" stroke-linecap="round"/>
      <path d="M 179 106.25 L 179 109.75 L 193 109.75 L 193 106.25 Z" fill="#D97A24" stroke="#3B382F" stroke-width="1.5" stroke-linejoin="round"/>
      <circle cx="186" cy="86" r="4" fill="#F5F2EB" stroke="#746F67" stroke-width="2.5"/>
      <circle cx="186" cy="130" r="4" fill="#F5F2EB" stroke="#746F67" stroke-width="2.5"/>
    </g>
    <g data-component="C2" data-kind="capacitor" data-capacitor-type="electrolytic">
      <path d="M 186 152 L 186 167.75" fill="none" stroke="#746F67" stroke-width="4" stroke-linecap="round"/>
      <path d="M 186 180.25 L 186 196" fill="none" stroke="#746F67" stroke-width="4" stroke-linecap="round"/>
      <path d="M 179 167.75 L 179 180.25 L 193 180.25 L 193 167.75 Z" fill="#26619C" stroke="#3B382F" stroke-width="1.5" stroke-linejoin="round"/>
      <circle cx="186" cy="152" r="4" fill="#F5F2EB" stroke="#D64545" stroke-width="2.5"/>
      <circle cx="186" cy="196" r="4" fill="#F5F2EB" stroke="#252525" stroke-width="2.5"/>
    </g>
    <g data-component="C3" data-kind="capacitor" data-capacitor-type="film">
      <path d="M 186 218 L 186 233.75" fill="none" stroke="#746F67" stroke-width="4" stroke-linecap="round"/>
      <path d="M 186 246.25 L 186 262" fill="none" stroke="#746F67" stroke-width="4" stroke-linecap="round"/>
      <path d="M 181 233.75 L 181 246.25 L 191 246.25 L 191 233.75 Z" fill="#D64545" stroke="#3B382F" stroke-width="1.5" stroke-linejoin="round"/>
      <circle cx="186" cy="218" r="4" fill="#F5F2EB" stroke="#746F67" stroke-width="2.5"/>
      <circle cx="186" cy="262" r="4" fill="#F5F2EB" stroke="#746F67" stroke-width="2.5"/>
    </g>
    <g data-component="C4" data-kind="capacitor" data-capacitor-type="tantalum">
      <path d="M 334 86 L 334 101.75" fill="none" stroke="#746F67" stroke-width="4" stroke-linecap="round"/>
      <path d="M 334 114.25 L 334 130" fill="none" stroke="#746F67" stroke-width="4" stroke-linecap="round"/>
      <circle cx="334" cy="108" r="7" fill="#E0B929" stroke="#3B382F" stroke-width="1.5"/>
      <circle cx="334" cy="86" r="4" fill="#F5F2EB" stroke="#D64545" stroke-width="2.5"/>
      <circle cx="334" cy="130" r="4" fill="#F5F2EB" stroke="#252525" stroke-width="2.5"/>
    </g>
    <g data-component="C5" data-kind="capacitor" data-capacitor-type="supercapacitor">
      <path d="M 334 152 L 334 167.75" fill="none" stroke="#746F67" stroke-width="4" stroke-linecap="round"/>
      <path d="M 334 180.25 L 334 196" fill="none" stroke="#746F67" stroke-width="4" stroke-linecap="round"/>
      <path d="M 326 167.75 L 326 180.25 L 342 180.25 L 342 167.75 Z" fill="#252525" stroke="#3B382F" stroke-width="1.5" stroke-linejoin="round"/>
      <path d="M 327 169.5 L 341 169.5" fill="none" stroke="#FFFFFF" stroke-width="1"/>
      <path d="M 327 178.5 L 341 178.5" fill="none" stroke="#FFFFFF" stroke-width="1"/>
      <circle cx="334" cy="152" r="4" fill="#F5F2EB" stroke="#D64545" stroke-width="2.5"/>
      <circle cx="334" cy="196" r="4" fill="#F5F2EB" stroke="#252525" stroke-width="2.5"/>
    </g>
    <g data-component="R1" data-kind="resistor" data-bands="4">
      <path d="M 208 284 L 239.25 284" fill="none" stroke="#746F67" stroke-width="4" stroke-linecap="round"/>
      <path d="M 280.75 284 L 312 284" fill="none" stroke="#746F67" stroke-width="4" stroke-linecap="round"/>
      <path d="M 239.25 290 L 280.75 290 L 280.75 278 L 239.25 278 Z" fill="#D8B47E" stroke="#8D704A" stroke-width="1.5" stroke-linejoin="round"/>
      <path d="M 245.5 289.5 L 245.5 278.5" fill="none" stroke="#E0B929" stroke-width="2.5"/>
      <path d="M 255.25 289.5 L 255.25 278.5" fill="none" stroke="#6F3D86" stroke-width="2.5"/>
      <path d="M 264.75 289.5 L 264.75 278.5" fill="none" stroke="#D64545" stroke-width="2.5"/>
      <path d="M 274.5 289.5 L 274.5 278.5" fill="none" stroke="#D4AF37" stroke-width="2.5"/>
      <circle cx="208" cy="284" r="4" fill="#F5F2EB" stroke="#746F67" stroke-width="2.5"/>
      <circle cx="312" cy="284" r="4" fill="#F5F2EB" stroke="#746F67" stroke-width="2.5"/>
    </g>
    <g data-component="R2" data-kind="resistor" data-bands="6">
      <path d="M 208 306 L 239.25 306" fill="none" stroke="#746F67" stroke-width="4" stroke-linecap="round"/>
      <path d="M 280.75 306 L 312 306" fill="none" stroke="#746F67" stroke-width="4" stroke-linecap="round"/>
      <path d="M 239.25 312 L 280.75 312 L 280.75 300 L 239.25 300 Z" fill="#D8B47E" stroke="#8D704A" stroke-width="1.5" stroke-linejoin="round"/>
      <path d="M 245.5 311.5 L 245.5 300.5" fill="none" stroke="#79502D" stroke-width="2.5"/>
      <path d="M 251.25 311.5 L 251.25 300.5" fill="none" stroke="#252525" stroke-width="2.5"/>
      <path d="M 257 311.5 L 257 300.5" fill="none" stroke="#252525" stroke-width="2.5"/>
      <path d="M 263 311.5 L 263 300.5" fill="none" stroke="#D97A24" stroke-width="2.5"/>
      <path d="M 268.75 311.5 L 268.75 300.5" fill="none" stroke="#D4AF37" stroke-width="2.5"/>
      <path d="M 274.5 311.5 L 274.5 300.5" fill="none" stroke="#79502D" stroke-width="2.5"/>
      <circle cx="208" cy="306" r="4" fill="#F5F2EB" stroke="#746F67" stroke-width="2.5"/>
      <circle cx="312" cy="306" r="4" fill="#F5F2EB" stroke="#746F67" stroke-width="2.5"/>
    </g>
    <g data-component="S1" data-kind="button" data-state="on" data-outside="false">
      <circle cx="208" cy="328" r="4" fill="#F5F2EB" stroke="#746F67" stroke-width="2.5"/>
      <circle cx="208" cy="350" r="4" fill="#F5F2EB" stroke="#746F67" stroke-width="2.5"/>
      <circle cx="312" cy="328" r="4" fill="#F5F2EB" stroke="#746F67" stroke-width="2.5"/>
      <circle cx="312" cy="350" r="4" fill="#F5F2EB" stroke="#746F67" stroke-width="2.5"/>
      <path d="M 208 328 L 246 328" fill="none" stroke="#746F67" stroke-width="4" stroke-linecap="round"/>
      <path d="M 208 350 L 246 350" fill="none" stroke="#746F67" stroke-width="4" stroke-linecap="round"/>
      <path d="M 312 328 L 274 328" fill="none" stroke="#746F67" stroke-width="4" stroke-linecap="round"/>
      <path d="M 312 350 L 274 350" fill="none" stroke="#746F67" stroke-width="4" stroke-linecap="round"/>
      <rect x="246" y="321" width="28" height="36" rx="5" fill="#454F5A" stroke="#242A31" stroke-width="1.5"/>
      <circle cx="260" cy="341" r="6" fill="#F3EEE4" stroke="#B9AD8D" stroke-width="1.5"/>
    </g>
    <g data-component="P1" data-kind="potentiometer" data-value="0.25" data-outside="true">
      <rect x="-44" y="362" width="36" height="64" rx="8" fill="#F5F2EB" stroke="#B9AD8D" stroke-width="2"/>
      <path d="M 208 372 L -15 378" fill="none" stroke="#746F67" stroke-width="4" stroke-linecap="round"/>
      <circle cx="-15" cy="378" r="4" fill="#D1CCC3"/>
      <path d="M 208 394 L -15 394" fill="none" stroke="#746F67" stroke-width="4" stroke-linecap="round"/>
      <circle cx="-15" cy="394" r="4" fill="#D1CCC3"/>
      <path d="M 208 416 L -15 410" fill="none" stroke="#746F67" stroke-width="4" stroke-linecap="round"/>
      <circle cx="-15" cy="410" r="4" fill="#D1CCC3"/>
      <circle cx="208" cy="372" r="4" fill="#F5F2EB" stroke="#746F67" stroke-width="2.5"/>
      <circle cx="208" cy="394" r="4" fill="#F5F2EB" stroke="#746F67" stroke-width="2.5"/>
      <circle cx="208" cy="416" r="4" fill="#F5F2EB" stroke="#746F67" stroke-width="2.5"/>
      <rect x="-39" y="375" width="26" height="38" rx="5" fill="#347CA0" stroke="#1D526B" stroke-width="1.5"/>
      <circle cx="-26" cy="394" r="9" fill="#D8E4E8" stroke="#2D5769" stroke-width="1.5"/>
      <path d="M -26 394 L -23.25 387.5" fill="none" stroke="#2D5769" stroke-width="2" stroke-linecap="round"/>
    </g>
    <g data-component="SW1" data-kind="switch" data-value="2" data-options="3" data-outside="true">
      <rect x="528" y="362" width="36" height="86" rx="8" fill="#F5F2EB" stroke="#B9AD8D" stroke-width="2"/>
      <path d="M 312 372 L 535 379.25" fill="none" stroke="#746F67" stroke-width="4" stroke-linecap="round"/>
      <circle cx="535" cy="379.25" r="4" fill="#D1CCC3"/>
      <path d="M 312 394 L 535 396.5" fill="none" stroke="#746F67" stroke-width="4" stroke-linecap="round"/>
      <circle cx="535" cy="396.5" r="4" fill="#D1CCC3"/>
      <path d="M 312 416 L 535 413.5" fill="none" stroke="#746F67" stroke-width="4" stroke-linecap="round"/>
      <circle cx="535" cy="413.5" r="4" fill="#D1CCC3"/>
      <path d="M 312 438 L 535 430.75" fill="none" stroke="#746F67" stroke-width="4" stroke-linecap="round"/>
      <circle cx="535" cy="430.75" r="4" fill="#D1CCC3"/>
      <circle cx="312" cy="372" r="4" fill="#F5F2EB" stroke="#746F67" stroke-width="2.5"/>
      <circle cx="312" cy="394" r="4" fill="#F5F2EB" stroke="#746F67" stroke-width="2.5"/>
      <circle cx="312" cy="416" r="4" fill="#F5F2EB" stroke="#746F67" stroke-width="2.5"/>
      <circle cx="312" cy="438" r="4" fill="#F5F2EB" stroke="#746F67" stroke-width="2.5"/>
      <rect x="535" y="365" width="22" height="80" rx="5" fill="#3F4852" stroke="#242A31" stroke-width="1.5"/>
      <line x1="546" y1="369" x2="546" y2="441" stroke="#242A31" stroke-width="7" stroke-linecap="round"/>
      <circle cx="546" cy="405" r="5" fill="#F3EEE4"/>
    </g>
  </g>
  <g data-layer="annotations">
    <g data-annotation="1">
      <path d="M 62 42 L 72 32" fill="none" stroke="#F4B84F" stroke-width="1.5"/>
      <circle cx="72" cy="32" r="7" fill="#F4B84F" stroke="#3B382F" stroke-width="1.5"/>
      <text x="72" y="34.5" text-anchor="middle" fill="#252525" font-family="Menlo, Consolas, monospace" font-size="7" font-weight="bold">1</text>
    </g>
    <g data-annotation="2">
      <path d="M 62 42 L 72 52" fill="none" stroke="#F4B84F" stroke-width="1.5"/>
      <circle cx="72" cy="52" r="7" fill="#F4B84F" stroke="#3B382F" stroke-width="1.5"/>
      <text x="72" y="54.5" text-anchor="middle" fill="#252525" font-family="Menlo, Consolas, monospace" font-size="7" font-weight="bold">2</text>
    </g>
    <g data-annotation="3">
      <path d="M 208 394 L 218 384" fill="none" stroke="#F4B84F" stroke-width="1.5"/>
      <circle cx="218" cy="384" r="7" fill="#F4B84F" stroke="#3B382F" stroke-width="1.5"/>
      <text x="218" y="386.5" text-anchor="middle" fill="#252525" font-family="Menlo, Consolas, monospace" font-size="7" font-weight="bold">3</text>
    </g>
  </g>
  <g data-layer="labels">
    <text x="62" y="25" text-anchor="middle" fill="#413B31" font-family="Arial, Helvetica, sans-serif" font-size="10" font-weight="bold">LP <tspan font-size="8">+</tspan></text>
    <text x="94" y="25" text-anchor="middle" fill="#413B31" font-family="Arial, Helvetica, sans-serif" font-size="10" font-weight="bold">LG <tspan font-size="8">−</tspan></text>
    <text x="426" y="25" text-anchor="middle" fill="#413B31" font-family="Arial, Helvetica, sans-serif" font-size="10" font-weight="bold">RP <tspan font-size="8">+</tspan></text>
    <text x="458" y="25" text-anchor="middle" fill="#413B31" font-family="Arial, Helvetica, sans-serif" font-size="10" font-weight="bold">RG <tspan font-size="8">−</tspan></text>
    <text x="208" y="25" text-anchor="middle" fill="#413B31" font-family="Arial, Helvetica, sans-serif" font-size="10" font-weight="bold">LT</text>
    <text x="312" y="25" text-anchor="middle" fill="#413B31" font-family="Arial, Helvetica, sans-serif" font-size="10" font-weight="bold">RT</text>
    <text x="120" y="35" text-anchor="middle" fill="#756E60" font-family="Menlo, Consolas, monospace" font-size="8" font-weight="bold">5</text>
    <text x="164" y="35" text-anchor="middle" fill="#756E60" font-family="Menlo, Consolas, monospace" font-size="8" font-weight="bold">3</text>
    <text x="208" y="35" text-anchor="middle" fill="#756E60" font-family="Menlo, Consolas, monospace" font-size="8" font-weight="bold">1</text>
    <text x="312" y="35" text-anchor="middle" fill="#756E60" font-family="Menlo, Consolas, monospace" font-size="8" font-weight="bold">1</text>
    <text x="356" y="35" text-anchor="middle" fill="#756E60" font-family="Menlo, Consolas, monospace" font-size="8" font-weight="bold">3</text>
    <text x="400" y="35" text-anchor="middle" fill="#756E60" font-family="Menlo, Consolas, monospace" font-size="8" font-weight="bold">5</text>
    <text x="108" y="133" text-anchor="end" fill="#756E60" font-family="Menlo, Consolas, monospace" font-size="8" font-weight="bold">5</text>
    <text x="412" y="133" text-anchor="start" fill="#756E60" font-family="Menlo, Consolas, monospace" font-size="8" font-weight="bold">5</text>
    <text x="108" y="243" text-anchor="end" fill="#756E60" font-family="Menlo, Consolas, monospace" font-size="8" font-weight="bold">10</text>
    <text x="412" y="243" text-anchor="start" fill="#756E60" font-family="Menlo, Consolas, monospace" font-size="8" font-weight="bold">10</text>
    <text x="108" y="353" text-anchor="end" fill="#756E60" font-family="Menlo, Consolas, monospace" font-size="8" font-weight="bold">15</text>
    <text x="412" y="353" text-anchor="start" fill="#756E60" font-family="Menlo, Consolas, monospace" font-size="8" font-weight="bold">15</text>
    <text x="108" y="463" text-anchor="end" fill="#756E60" font-family="Menlo, Consolas, monospace" font-size="8" font-weight="bold">20</text>
    <text x="412" y="463" text-anchor="start" fill="#756E60" font-family="Menlo, Consolas, monospace" font-size="8" font-weight="bold">20</text>
    <text x="135" y="43" text-anchor="middle" fill="#413B31" font-family="Menlo, Consolas, monospace" font-size="7" font-weight="bold">D1</text>
    <text x="69" y="36" text-anchor="middle" fill="#D64545" font-family="Arial, Helvetica, sans-serif" font-size="8" font-weight="bold">+</text>
    <text x="215" y="58" text-anchor="middle" fill="#252525" font-family="Arial, Helvetica, sans-serif" font-size="8" font-weight="bold">−</text>
    <text x="140" y="54" text-anchor="middle" fill="#413B31" font-family="Menlo, Consolas, monospace" font-size="7" font-weight="bold">D2</text>
    <text x="101" y="58" text-anchor="middle" fill="#D64545" font-family="Arial, Helvetica, sans-serif" font-size="8" font-weight="bold">+</text>
    <text x="193" y="58" text-anchor="middle" fill="#252525" font-family="Arial, Helvetica, sans-serif" font-size="8" font-weight="bold">−</text>
    <text x="186" y="97" text-anchor="middle" fill="#413B31" font-family="Menlo, Consolas, monospace" font-size="7" font-weight="bold">C1 0.1µF</text>
    <text x="186" y="163" text-anchor="middle" fill="#413B31" font-family="Menlo, Consolas, monospace" font-size="7" font-weight="bold">C2 100µF 16V</text>
    <text x="193" y="146" text-anchor="middle" fill="#D64545" font-family="Arial, Helvetica, sans-serif" font-size="8" font-weight="bold">+</text>
    <text x="193" y="190" text-anchor="middle" fill="#252525" font-family="Arial, Helvetica, sans-serif" font-size="8" font-weight="bold">−</text>
    <text x="186" y="229" text-anchor="middle" fill="#413B31" font-family="Menlo, Consolas, monospace" font-size="7" font-weight="bold">C3</text>
    <text x="334" y="97" text-anchor="middle" fill="#413B31" font-family="Menlo, Consolas, monospace" font-size="7" font-weight="bold">C4</text>
    <text x="341" y="80" text-anchor="middle" fill="#D64545" font-family="Arial, Helvetica, sans-serif" font-size="8" font-weight="bold">+</text>
    <text x="341" y="124" text-anchor="middle" fill="#252525" font-family="Arial, Helvetica, sans-serif" font-size="8" font-weight="bold">−</text>
    <text x="334" y="163" text-anchor="middle" fill="#413B31" font-family="Menlo, Consolas, monospace" font-size="7" font-weight="bold">C5</text>
    <text x="341" y="146" text-anchor="middle" fill="#D64545" font-family="Arial, Helvetica, sans-serif" font-size="8" font-weight="bold">+</text>
    <text x="341" y="190" text-anchor="middle" fill="#252525" font-family="Arial, Helvetica, sans-serif" font-size="8" font-weight="bold">−</text>
    <text x="260" y="273" text-anchor="middle" fill="#413B31" font-family="Menlo, Consolas, monospace" font-size="7" font-weight="bold">R1</text>
    <text x="260" y="295" text-anchor="middle" fill="#413B31" font-family="Menlo, Consolas, monospace" font-size="7" font-weight="bold">R2</text>
    <text x="260" y="314" text-anchor="middle" fill="#413B31" font-family="Menlo, Consolas, monospace" font-size="7" font-weight="bold">S1 on</text>
    <text x="-26" y="358" text-anchor="middle" fill="#413B31" font-family="Menlo, Consolas, monospace" font-size="7" font-weight="bold">P1 25%</text>
    <text x="546" y="358" text-anchor="middle" fill="#413B31" font-family="Menlo, Consolas, monospace" font-size="7" font-weight="bold">SW1 2</text>
  </g>
</svg>
