M48
;GenerationSoftware,Autodesk,EAGLE,9.6.2*%
;CreationDate,2023-03-10T08:40:27Z*%
FMAT,2
ICI,OFF
METRIC,TZ,000.000
T4C0.750
T3C0.813
T2C1.000
T1C1.016
%
G90
M71
T1
X20828Y17018
X18288Y17018
T2
X2961Y15367
X5461Y15367
X32933Y15367
X7961Y15367
X35433Y15367
X37933Y15367
X62905Y15367
X65405Y15367
X67905Y15367
X92877Y15367
X95377Y15367
X97877Y15367
X122849Y15367
X125349Y15367
X127849Y15367
T3
X105664Y8763
X87787Y9652
X90327Y9652
X52121Y11684
X49581Y11684
X49581Y4064
X52121Y4064
X47041Y11684
X44501Y11684
X47041Y4064
X44501Y4064
X121793Y2667
X121793Y5207
X114173Y5207
X114173Y2667
X121793Y7747
X121793Y10287
X114173Y7747
X114173Y10287
X9530Y10414
X6990Y10414
X6990Y2794
X9530Y2794
X4450Y10414
X1910Y10414
X4450Y2794
X1910Y2794
X71501Y10668
X68961Y3048
X71501Y3048
X66421Y10668
X63881Y10668
X66421Y3048
X63881Y3048
X68961Y10668
X102743Y17653
X107823Y17653
X12827Y8382
X22987Y8382
X75565Y11811
X75565Y1651
X79375Y11938
X79375Y1778
X56007Y12065
X56007Y1905
X128524Y1778
X128524Y11938
X36322Y8382
X26162Y8382
X124968Y1651
X124968Y11811
X83312Y11938
X83312Y1778
X26162Y11684
X36322Y11684
X12827Y11684
X22987Y11684
X112481Y17567
X117561Y17567
X95758Y10033
X47117Y16637
X45847Y14732
X44577Y16637
X98298Y10033
X53848Y16383
X56388Y16383
X59690Y4318
X59690Y9398
X105664Y12319
T4
X15830Y2967
X17830Y2967
X30425Y2931
X32425Y2931
X94494Y2967
X96494Y2967
X87478Y3002
X89478Y3002
X37608Y2921
X39608Y2921
X101489Y3048
X103489Y3048
X108601Y3048
X110601Y3048
X23130Y2921
X25130Y2921
M30